<svg width="1134" height="529" xmlns="http://www.w3.org/2000/svg" xmlns:xlink="http://www.w3.org/1999/xlink" overflow="hidden"><defs><clipPath id="clip0"><rect x="0" y="0" width="1134" height="529"/></clipPath></defs><g clip-path="url(#clip0)"><rect x="0" y="0" width="1134" height="528.756" fill="#FFFFFF"/><rect x="184.5" y="22.4896" width="947" height="440.796" stroke="#2F528F" stroke-width="1.33353" stroke-miterlimit="8" fill="#E7E6E6"/><text font-family="Calibri,Calibri_MSFontService,sans-serif" font-weight="400" font-size="20" transform="matrix(1 0 0 0.999538 208.934 61)">Int[] ages = new int[4];<tspan font-size="20" x="0" y="24.0111">ages[0] = 12;</tspan><tspan font-size="20" x="0" y="48.0222">ages[1] = 23;</tspan><tspan font-size="20" x="0" y="71.0328">ages[2] = 33;</tspan><tspan font-size="20" x="270.343" y="0">String[] names = new String[]{“</tspan><tspan font-family="DengXian,DengXian_MSFontService,sans-serif" font-size="20" x="523.114" y="0">赵宇</tspan>”,“<tspan font-family="DengXian,DengXian_MSFontService,sans-serif" font-size="20" x="581.729" y="0">张凯</tspan>”, “<tspan font-family="DengXian,DengXian_MSFontService,sans-serif" font-size="20" x="646.625" y="0">江云</tspan>”,“<tspan font-family="DengXian,DengXian_MSFontService,sans-serif" font-size="20" x="705.24" y="0">曹林”</tspan><tspan font-size="20" x="752.747" y="0">};</tspan><tspan font-size="20" x="270.343" y="24.0111">names[1] = </tspan><tspan font-family="DengXian,DengXian_MSFontService,sans-serif" font-size="20" x="366.19" y="24.0111">“刘昭”</tspan><tspan font-size="20" x="420.865" y="24.0111">;</tspan><tspan font-size="20" x="270.343" y="48.0222">Names = new String[]{“</tspan>Tom”,“Jerry”}</text><rect x="3.50004" y="22.4896" width="154" height="440.796" stroke="#2F528F" stroke-width="1.33353" stroke-miterlimit="8" fill="#E7E6E6"/><text font-family="DengXian,DengXian_MSFontService,sans-serif" font-weight="400" font-size="23" transform="matrix(1 0 0 0.999538 32.7771 490)">栈<tspan font-family="Calibri,Calibri_MSFontService,sans-serif" font-size="23" x="22.67" y="0">stack</tspan>：<tspan font-size="23" x="0" y="27.0125">局部变量</tspan><tspan font-size="23" x="797.997" y="-1.00046">堆</tspan><tspan font-family="Calibri,Calibri_MSFontService,sans-serif" font-size="23" x="820.667" y="-1.00046">heap</tspan>：<tspan font-family="Calibri,Calibri_MSFontService,sans-serif" font-size="23" x="797.997" y="26.012">new</tspan>出来的结构：对象、数组<tspan font-family="Calibri,Calibri_MSFontService,sans-serif" font-size="20" x="-10.2072" y="-60.0277">ages:0x1122</tspan></text><path d="M256.628 313.35 325.501 313.35" stroke="#000000" stroke-width="1.33353" stroke-linejoin="round" stroke-miterlimit="10" fill="none" fill-rule="evenodd"/><path d="M256.628 350.41 325.501 350.41" stroke="#000000" stroke-width="1.33353" stroke-linejoin="round" stroke-miterlimit="10" fill="none" fill-rule="evenodd"/><path d="M256.628 387.471 325.501 387.471" stroke="#000000" stroke-width="1.33353" stroke-linejoin="round" stroke-miterlimit="10" fill="none" fill-rule="evenodd"/><path d="M257.295 275.623 257.295 425.198" stroke="#000000" stroke-width="1.33353" stroke-linejoin="round" stroke-miterlimit="10" fill="none" fill-rule="evenodd"/><path d="M324.835 275.623 324.835 425.198" stroke="#000000" stroke-width="1.33353" stroke-linejoin="round" stroke-miterlimit="10" fill="none" fill-rule="evenodd"/><path d="M256.628 276.289 325.501 276.289" stroke="#000000" stroke-width="1.33353" stroke-linejoin="round" stroke-miterlimit="10" fill="none" fill-rule="evenodd"/><path d="M256.628 424.531 325.501 424.531" stroke="#000000" stroke-width="1.33353" stroke-linejoin="round" stroke-miterlimit="10" fill="none" fill-rule="evenodd"/><path d="M5.8596-13.156C5.2235-13.156 4.70714-13.0064 4.31051-12.707 3.91388-12.4077 3.60145-11.9961 3.3732-11.4722 3.14495-10.9484 2.98967-10.3347 2.90735-9.63129 2.82503-8.92784 2.78387-8.17201 2.78387-7.36379 2.78387-6.27867 2.84-5.35633 2.95225-4.59675 3.0645-3.83718 3.24224-3.21791 3.48545-2.73897 3.72866-2.26002 4.03923-1.91204 4.41715-1.69502 4.79507-1.478 5.25343-1.36948 5.79225-1.36948 6.21132-1.36948 6.57989-1.43684 6.89794-1.57154 7.21599-1.70624 7.48913-1.89894 7.71738-2.14964 7.94563-2.40034 8.13459-2.70155 8.28426-3.05328 8.43393-3.405 8.55367-3.79415 8.64347-4.22071 8.73327-4.64727 8.79501-5.10937 8.82868-5.60703 8.86236-6.10468 8.8792-6.62292 8.8792-7.16173 8.8792-7.88763 8.85301-8.5387 8.80062-9.11493 8.74824-9.69116 8.67153-10.2 8.5705-10.6416 8.46948-11.0831 8.33851-11.4629 8.17762-11.7809 8.01672-12.099 7.82402-12.3609 7.59952-12.5667 7.37501-12.7725 7.1187-12.9222 6.83058-13.0157 6.54247-13.1093 6.21881-13.156 5.8596-13.156ZM5.97185-14.7388C6.89232-14.7388 7.665-14.576 8.28987-14.2505 8.91475-13.925 9.41801-13.446 9.79967-12.8137 10.1813-12.1813 10.4526-11.403 10.6135-10.4788 10.7744-9.55459 10.8548-8.4938 10.8548-7.29643 10.8548-6.18139 10.7669-5.16363 10.5911-4.24316 10.4152-3.32268 10.1233-2.5313 9.71548-1.86901 9.30763-1.20672 8.77443-0.694097 8.11588-0.331146 7.45733 0.0318049 6.64537 0.21328 5.67999 0.21328 4.767 0.21328 3.99807 0.0505137 3.3732-0.275019 2.74832-0.600553 2.24506-1.0795 1.8634-1.71186 1.48174-2.34421 1.21046-3.1225 1.04956-4.04671 0.888668-4.97093 0.808221-6.03172 0.808221-7.22908 0.808221-8.33664 0.898023-9.35253 1.07763-10.2767 1.25723-11.201 1.54909-11.9942 1.9532-12.6565 2.35731-13.3188 2.88864-13.8314 3.54719-14.1944 4.20574-14.5573 5.01396-14.7388 5.97185-14.7388Z" stroke="#000000" stroke-width="0.999538" stroke-linejoin="round" stroke-miterlimit="10" fill-rule="evenodd" transform="matrix(1.00046 0 0 1 285.314 301.677)"/><text fill="#000000" fill-opacity="0" font-family="Arial,Arial_MSFontService,sans-serif" font-size="14.9521" x="0.808221" y="-1.65573">0</text><path d="M5.8596-13.156C5.2235-13.156 4.70714-13.0064 4.31051-12.707 3.91388-12.4077 3.60145-11.9961 3.3732-11.4722 3.14495-10.9484 2.98967-10.3347 2.90735-9.63129 2.82503-8.92784 2.78387-8.17201 2.78387-7.36379 2.78387-6.27867 2.84-5.35633 2.95225-4.59675 3.0645-3.83718 3.24224-3.21791 3.48545-2.73897 3.72866-2.26002 4.03923-1.91204 4.41715-1.69502 4.79507-1.478 5.25343-1.36948 5.79225-1.36948 6.21132-1.36948 6.57989-1.43684 6.89794-1.57154 7.21599-1.70624 7.48913-1.89894 7.71738-2.14964 7.94563-2.40034 8.13459-2.70155 8.28426-3.05328 8.43393-3.405 8.55367-3.79415 8.64347-4.22071 8.73327-4.64727 8.79501-5.10937 8.82868-5.60703 8.86236-6.10468 8.8792-6.62292 8.8792-7.16173 8.8792-7.88763 8.85301-8.5387 8.80062-9.11493 8.74824-9.69116 8.67153-10.2 8.5705-10.6416 8.46948-11.0831 8.33851-11.4629 8.17762-11.7809 8.01672-12.099 7.82402-12.3609 7.59952-12.5667 7.37501-12.7725 7.1187-12.9222 6.83058-13.0157 6.54247-13.1093 6.21881-13.156 5.8596-13.156ZM5.97185-14.7388C6.89232-14.7388 7.665-14.576 8.28987-14.2505 8.91475-13.925 9.41801-13.446 9.79967-12.8137 10.1813-12.1813 10.4526-11.403 10.6135-10.4788 10.7744-9.55459 10.8548-8.4938 10.8548-7.29643 10.8548-6.18139 10.7669-5.16363 10.5911-4.24316 10.4152-3.32268 10.1233-2.5313 9.71548-1.86901 9.30763-1.20672 8.77443-0.694097 8.11588-0.331146 7.45733 0.0318049 6.64537 0.21328 5.67999 0.21328 4.767 0.21328 3.99807 0.0505137 3.3732-0.275019 2.74832-0.600553 2.24506-1.0795 1.8634-1.71186 1.48174-2.34421 1.21046-3.1225 1.04956-4.04671 0.888668-4.97093 0.808221-6.03172 0.808221-7.22908 0.808221-8.33664 0.898023-9.35253 1.07763-10.2767 1.25723-11.201 1.54909-11.9942 1.9532-12.6565 2.35731-13.3188 2.88864-13.8314 3.54719-14.1944 4.20574-14.5573 5.01396-14.7388 5.97185-14.7388Z" stroke="#000000" stroke-width="0.999538" stroke-linejoin="round" stroke-miterlimit="10" fill-rule="evenodd" transform="matrix(1.00046 0 0 1 285.314 338.721)"/><text fill="#000000" fill-opacity="0" font-family="Arial,Arial_MSFontService,sans-serif" font-size="14.9521" x="0.808221" y="-1.65573">0</text><path d="M5.8596-13.156C5.2235-13.156 4.70714-13.0064 4.31051-12.707 3.91388-12.4077 3.60145-11.9961 3.3732-11.4722 3.14495-10.9484 2.98967-10.3347 2.90735-9.63129 2.82503-8.92784 2.78387-8.17201 2.78387-7.36379 2.78387-6.27867 2.84-5.35633 2.95225-4.59675 3.0645-3.83718 3.24224-3.21791 3.48545-2.73897 3.72866-2.26002 4.03923-1.91204 4.41715-1.69502 4.79507-1.478 5.25343-1.36948 5.79225-1.36948 6.21132-1.36948 6.57989-1.43684 6.89794-1.57154 7.21599-1.70624 7.48913-1.89894 7.71738-2.14964 7.94563-2.40034 8.13459-2.70155 8.28426-3.05328 8.43393-3.405 8.55367-3.79415 8.64347-4.22071 8.73327-4.64727 8.79501-5.10937 8.82868-5.60703 8.86236-6.10468 8.8792-6.62292 8.8792-7.16173 8.8792-7.88763 8.85301-8.5387 8.80062-9.11493 8.74824-9.69116 8.67153-10.2 8.5705-10.6416 8.46948-11.0831 8.33851-11.4629 8.17762-11.7809 8.01672-12.099 7.82402-12.3609 7.59952-12.5667 7.37501-12.7725 7.1187-12.9222 6.83058-13.0157 6.54247-13.1093 6.21881-13.156 5.8596-13.156ZM5.97185-14.7388C6.89232-14.7388 7.665-14.576 8.28987-14.2505 8.91475-13.925 9.41801-13.446 9.79967-12.8137 10.1813-12.1813 10.4526-11.403 10.6135-10.4788 10.7744-9.55459 10.8548-8.4938 10.8548-7.29643 10.8548-6.18139 10.7669-5.16363 10.5911-4.24316 10.4152-3.32268 10.1233-2.5313 9.71548-1.86901 9.30763-1.20672 8.77443-0.694097 8.11588-0.331146 7.45733 0.0318049 6.64537 0.21328 5.67999 0.21328 4.767 0.21328 3.99807 0.0505137 3.3732-0.275019 2.74832-0.600553 2.24506-1.0795 1.8634-1.71186 1.48174-2.34421 1.21046-3.1225 1.04956-4.04671 0.888668-4.97093 0.808221-6.03172 0.808221-7.22908 0.808221-8.33664 0.898023-9.35253 1.07763-10.2767 1.25723-11.201 1.54909-11.9942 1.9532-12.6565 2.35731-13.3188 2.88864-13.8314 3.54719-14.1944 4.20574-14.5573 5.01396-14.7388 5.97185-14.7388Z" stroke="#000000" stroke-width="0.999538" stroke-linejoin="round" stroke-miterlimit="10" fill-rule="evenodd" transform="matrix(1.00046 0 0 1 285.314 375.764)"/><text fill="#000000" fill-opacity="0" font-family="Arial,Arial_MSFontService,sans-serif" font-size="14.9521" x="0.808221" y="-1.65573">0</text><path d="M5.8596-13.156C5.2235-13.156 4.70714-13.0064 4.31051-12.707 3.91388-12.4077 3.60145-11.9961 3.3732-11.4722 3.14495-10.9484 2.98967-10.3347 2.90735-9.63129 2.82503-8.92784 2.78387-8.17201 2.78387-7.36379 2.78387-6.27867 2.84-5.35633 2.95225-4.59675 3.0645-3.83718 3.24224-3.21791 3.48545-2.73897 3.72866-2.26002 4.03923-1.91204 4.41715-1.69502 4.79507-1.478 5.25343-1.36948 5.79225-1.36948 6.21132-1.36948 6.57989-1.43684 6.89794-1.57154 7.21599-1.70624 7.48913-1.89894 7.71738-2.14964 7.94563-2.40034 8.13459-2.70155 8.28426-3.05328 8.43393-3.405 8.55367-3.79415 8.64347-4.22071 8.73327-4.64727 8.79501-5.10937 8.82868-5.60703 8.86236-6.10468 8.8792-6.62292 8.8792-7.16173 8.8792-7.88763 8.85301-8.5387 8.80062-9.11493 8.74824-9.69116 8.67153-10.2 8.5705-10.6416 8.46948-11.0831 8.33851-11.4629 8.17762-11.7809 8.01672-12.099 7.82402-12.3609 7.59952-12.5667 7.37501-12.7725 7.1187-12.9222 6.83058-13.0157 6.54247-13.1093 6.21881-13.156 5.8596-13.156ZM5.97185-14.7388C6.89232-14.7388 7.665-14.576 8.28987-14.2505 8.91475-13.925 9.41801-13.446 9.79967-12.8137 10.1813-12.1813 10.4526-11.403 10.6135-10.4788 10.7744-9.55459 10.8548-8.4938 10.8548-7.29643 10.8548-6.18139 10.7669-5.16363 10.5911-4.24316 10.4152-3.32268 10.1233-2.5313 9.71548-1.86901 9.30763-1.20672 8.77443-0.694097 8.11588-0.331146 7.45733 0.0318049 6.64537 0.21328 5.67999 0.21328 4.767 0.21328 3.99807 0.0505137 3.3732-0.275019 2.74832-0.600553 2.24506-1.0795 1.8634-1.71186 1.48174-2.34421 1.21046-3.1225 1.04956-4.04671 0.888668-4.97093 0.808221-6.03172 0.808221-7.22908 0.808221-8.33664 0.898023-9.35253 1.07763-10.2767 1.25723-11.201 1.54909-11.9942 1.9532-12.6565 2.35731-13.3188 2.88864-13.8314 3.54719-14.1944 4.20574-14.5573 5.01396-14.7388 5.97185-14.7388Z" stroke="#000000" stroke-width="0.999538" stroke-linejoin="round" stroke-miterlimit="10" fill-rule="evenodd" transform="matrix(1.00046 0 0 1 285.314 412.808)"/><text fill="#000000" fill-opacity="0" font-family="Arial,Arial_MSFontService,sans-serif" font-size="14.9521" x="0.808221" y="-1.65573">0</text><path d="M0.250105-0.220201 124.426 140.819 123.926 141.26-0.250105 0.220201ZM126.297 137.397 128.58 146.042 120.294 142.681Z" transform="matrix(1.00046 0 0 -1 126.5 418.416)"/><path d="M257.5 258.381 257.5 276.931" stroke="#ED7D31" stroke-width="1.33353" stroke-miterlimit="8" fill="none" fill-rule="evenodd"/><text font-family="Calibri,Calibri_MSFontService,sans-serif" font-weight="400" font-size="20" transform="matrix(1 0 0 0.999538 264.188 273)">0x1122</text><path d="M273 282.869 310.77 305.852" stroke="#ED7D31" stroke-width="2.00029" stroke-miterlimit="8" fill="none" fill-rule="evenodd"/><path d="M273 319.852 310.77 342.835" stroke="#ED7D31" stroke-width="2.00029" stroke-miterlimit="8" fill="none" fill-rule="evenodd"/><path d="M272 356.835 309.77 379.817" stroke="#ED7D31" stroke-width="2.00029" stroke-miterlimit="8" fill="none" fill-rule="evenodd"/><text font-family="Calibri,Calibri_MSFontService,sans-serif" font-weight="700" font-size="23" transform="matrix(1 0 0 0.999538 340.382 304)">12<tspan font-size="23" x="1.04614" y="38.0176">23</tspan><tspan font-size="23" x="0" y="80.037">33</tspan></text><path d="M638.169 319.9 707.042 319.9" stroke="#000000" stroke-width="1.33353" stroke-linejoin="round" stroke-miterlimit="10" fill="none" fill-rule="evenodd"/><path d="M638.169 356.961 707.042 356.961" stroke="#000000" stroke-width="1.33353" stroke-linejoin="round" stroke-miterlimit="10" fill="none" fill-rule="evenodd"/><path d="M638.169 394.021 707.042 394.021" stroke="#000000" stroke-width="1.33353" stroke-linejoin="round" stroke-miterlimit="10" fill="none" fill-rule="evenodd"/><path d="M638.835 282.173 638.835 431.748" stroke="#000000" stroke-width="1.33353" stroke-linejoin="round" stroke-miterlimit="10" fill="none" fill-rule="evenodd"/><path d="M706.375 282.173 706.375 431.748" stroke="#000000" stroke-width="1.33353" stroke-linejoin="round" stroke-miterlimit="10" fill="none" fill-rule="evenodd"/><path d="M638.169 282.839 707.042 282.839" stroke="#000000" stroke-width="1.33353" stroke-linejoin="round" stroke-miterlimit="10" fill="none" fill-rule="evenodd"/><path d="M638.169 431.082 707.042 431.082" stroke="#000000" stroke-width="1.33353" stroke-linejoin="round" stroke-miterlimit="10" fill="none" fill-rule="evenodd"/><path d="M14.5875-10.7314C14.7671-10.7314 14.9168-10.7258 15.0365-10.7145 15.1562-10.7033 15.2517-10.6809 15.3228-10.6472 15.3938-10.6135 15.4444-10.5761 15.4743-10.5349 15.5042-10.4938 15.5192-10.4433 15.5192-10.3834L15.5192-4.50134C15.5192-3.91014 15.5622-3.43681 15.6483-3.08134 15.7343-2.72587 15.8653-2.42279 16.0412-2.17209 16.217-1.92139 16.4397-1.72682 16.7091-1.58838 16.9785-1.44993 17.2928-1.38071 17.652-1.38071 18.116-1.38071 18.5781-1.54535 19.0383-1.87462 19.4986-2.2039 19.9869-2.68658 20.5032-3.32268L20.5032-10.3834C20.5032-10.4433 20.5163-10.4938 20.5425-10.5349 20.5687-10.5761 20.6192-10.6135 20.6941-10.6472 20.7689-10.6809 20.8643-10.7033 20.9803-10.7145 21.0963-10.7258 21.2478-10.7314 21.4349-10.7314 21.6145-10.7314 21.7642-10.7258 21.8839-10.7145 22.0037-10.7033 22.0972-10.6809 22.1646-10.6472 22.2319-10.6135 22.2824-10.5761 22.3161-10.5349 22.3498-10.4938 22.3666-10.4433 22.3666-10.3834L22.3666-0.280632C22.3666-0.220764 22.3535-0.17025 22.3273-0.129091 22.3011-0.0879314 22.2544-0.0523846 22.187-0.0224506 22.1197 0.00748352 22.0317 0.0299341 21.9232 0.0449011 21.8147 0.0598681 21.6819 0.0673517 21.5247 0.0673517 21.3526 0.0673517 21.2123 0.0598681 21.1038 0.0449011 20.9953 0.0299341 20.9092 0.00748352 20.8456-0.0224506 20.782-0.0523846 20.739-0.0879314 20.7165-0.129091 20.6941-0.17025 20.6828-0.220764 20.6828-0.280632L20.6828-1.61644C20.1066-0.980341 19.5378-0.516363 18.9766-0.224506 18.4153 0.0673517 17.8466 0.21328 17.2703 0.21328 16.5968 0.21328 16.0299 0.101028 15.5697-0.123478 15.1095-0.347984 14.7372-0.652937 14.4528-1.03834 14.1684-1.42374 13.9645-1.87275 13.841-2.38537 13.7175-2.89799 13.6558-3.521 13.6558-4.25438L13.6558-10.3834C13.6558-10.4433 13.6689-10.4938 13.6951-10.5349 13.7213-10.5761 13.7718-10.6135 13.8466-10.6472 13.9215-10.6809 14.0188-10.7033 14.1385-10.7145 14.2582-10.7258 14.4079-10.7314 14.5875-10.7314ZM6.80252-10.8885C7.47604-10.8885 8.04292-10.7744 8.50315-10.5462 8.96339-10.3179 9.33569-10.013 9.62007-9.63129 9.90444-9.24963 10.1084-8.80249 10.2318-8.28987 10.3553-7.77725 10.4171-7.16173 10.4171-6.44331L10.4171-0.280632C10.4171-0.220764 10.4021-0.17025 10.3722-0.129091 10.3422-0.0879314 10.2936-0.0523846 10.2262-0.0224506 10.1589 0.00748352 10.0653 0.0299341 9.9456 0.0449011 9.82586 0.0598681 9.67619 0.0673517 9.49659 0.0673517 9.3095 0.0673517 9.15609 0.0598681 9.03635 0.0449011 8.91662 0.0299341 8.82307 0.00748352 8.75572-0.0224506 8.68837-0.0523846 8.63973-0.0879314 8.60979-0.129091 8.57986-0.17025 8.56489-0.220764 8.56489-0.280632L8.56489-6.19636C8.56489-6.77259 8.51999-7.23657 8.43019-7.58829 8.34039-7.94002 8.20942-8.2431 8.0373-8.49754 7.86518-8.75198 7.64255-8.94655 7.3694-9.08125 7.09625-9.21596 6.78007-9.28331 6.42086-9.28331 5.95688-9.28331 5.49291-9.11867 5.02893-8.7894 4.56495-8.46012 4.07852-7.97743 3.56964-7.34133L3.56964-0.280632C3.56964-0.220764 3.55467-0.17025 3.52474-0.129091 3.4948-0.0879314 3.44616-0.0523846 3.37881-0.0224506 3.31146 0.00748352 3.21791 0.0299341 3.09818 0.0449011 2.97844 0.0598681 2.82503 0.0673517 2.63794 0.0673517 2.45834 0.0673517 2.30867 0.0598681 2.18893 0.0449011 2.06919 0.0299341 1.97378 0.00748352 1.90269-0.0224506 1.83159-0.0523846 1.78295-0.0879314 1.75676-0.129091 1.73057-0.17025 1.71747-0.220764 1.71747-0.280632L1.71747-10.3834C1.71747-10.4433 1.72869-10.4938 1.75114-10.5349 1.7736-10.5761 1.8185-10.6135 1.88585-10.6472 1.9532-10.6809 2.03926-10.7033 2.14403-10.7145 2.2488-10.7258 2.38724-10.7314 2.55936-10.7314 2.724-10.7314 2.86058-10.7258 2.96909-10.7145 3.0776-10.7033 3.16179-10.6809 3.22166-10.6472 3.28152-10.6135 3.32455-10.5761 3.35075-10.5349 3.37694-10.4938 3.39004-10.4433 3.39004-10.3834L3.39004-9.04758C3.95878-9.68368 4.52566-10.1495 5.09067-10.4451 5.65567-10.7407 6.22629-10.8885 6.80252-10.8885ZM31.6245-15.6368C31.8116-15.6368 31.965-15.6293 32.0848-15.6144 32.2045-15.5994 32.2981-15.5769 32.3654-15.547 32.4328-15.5171 32.4814-15.4797 32.5113-15.4348 32.5413-15.3899 32.5562-15.3375 32.5562-15.2776L32.5562-0.280632C32.5562-0.220764 32.5413-0.17025 32.5113-0.129091 32.4814-0.0879314 32.4328-0.0523846 32.3654-0.0224506 32.2981 0.00748352 32.2045 0.0299341 32.0848 0.0449011 31.965 0.0598681 31.8116 0.0673517 31.6245 0.0673517 31.4449 0.0673517 31.2953 0.0598681 31.1755 0.0449011 31.0558 0.0299341 30.9604 0.00748352 30.8893-0.0224506 30.8182-0.0523846 30.7696-0.0879314 30.7434-0.129091 30.7172-0.17025 30.7041-0.220764 30.7041-0.280632L30.7041-15.2776C30.7041-15.3375 30.7172-15.3899 30.7434-15.4348 30.7696-15.4797 30.8182-15.5171 30.8893-15.547 30.9604-15.5769 31.0558-15.5994 31.1755-15.6144 31.2953-15.6293 31.4449-15.6368 31.6245-15.6368ZM26.6269-15.6368C26.8139-15.6368 26.9674-15.6293 27.0871-15.6144 27.2068-15.5994 27.3004-15.5769 27.3677-15.547 27.4351-15.5171 27.4837-15.4797 27.5137-15.4348 27.5436-15.3899 27.5586-15.3375 27.5586-15.2776L27.5586-0.280632C27.5586-0.220764 27.5436-0.17025 27.5137-0.129091 27.4837-0.0879314 27.4351-0.0523846 27.3677-0.0224506 27.3004 0.00748352 27.2068 0.0299341 27.0871 0.0449011 26.9674 0.0598681 26.8139 0.0673517 26.6269 0.0673517 26.4473 0.0673517 26.2976 0.0598681 26.1778 0.0449011 26.0581 0.0299341 25.9627 0.00748352 25.8916-0.0224506 25.8205-0.0523846 25.7719-0.0879314 25.7457-0.129091 25.7195-0.17025 25.7064-0.220764 25.7064-0.280632L25.7064-15.2776C25.7064-15.3375 25.7195-15.3899 25.7457-15.4348 25.7719-15.4797 25.8205-15.5171 25.8916-15.547 25.9627-15.5769 26.0581-15.5994 26.1778-15.6144 26.2976-15.6293 26.4473-15.6368 26.6269-15.6368Z" stroke="#000000" stroke-width="0.999538" stroke-linejoin="round" stroke-miterlimit="10" fill-rule="evenodd" transform="matrix(1.00046 0 0 1 655.603 308.224)"/><text fill="#000000" fill-opacity="0" font-family="Arial,Arial_MSFontService,sans-serif" font-size="15.8501" x="1.71747" y="-1.76798">null</text><path d="M14.7227-10.5293 16.1483-10.5293 16.1483-3.82782C16.1483-2.49575 16.3765-1.53412 16.833-0.942924 17.2895-0.351726 18.0005-0.0561264 18.9658-0.0561264 20.021-0.0561264 20.8536-0.435915 21.4635-1.19549 22.0734-1.95507 22.3783-2.97844 22.3783-4.26561L22.3783-10.5293 23.8152-10.5293 23.8152-1.65012C23.8152-1.22356 23.8245-0.798866 23.8432-0.376047 23.8619 0.0467721 23.8788 0.471462 23.8937 0.898023L22.6028 0.898023 22.4681-1.26846 22.4232-1.26846C22.0266-0.452753 21.5233 0.14967 20.9134 0.538813 20.3035 0.927957 19.5271 1.12253 18.5842 1.12253 17.2746 1.12253 16.3036 0.748352 15.6712 0 15.0389-0.748352 14.7227-1.9083 14.7227-3.47984ZM7.0607-10.7538C8.37032-10.7538 9.34131-10.3778 9.97366-9.62568 10.606-8.87359 10.9222-7.71177 10.9222-6.14023L10.9222 0.898023 9.49659 0.898023 9.49659-5.79225C9.49659-7.11683 9.26834-8.07846 8.81185-8.67714 8.35535-9.27582 7.64442-9.57517 6.67904-9.57517 5.63883-9.57517 4.8119-9.19538 4.19826-8.4358 3.58461-7.67622 3.27778-6.64911 3.27778-5.35446L3.27778 0.898023 1.85217 0.898023 1.85217-7.98118C1.85217-8.40774 1.84282-8.83243 1.82411-9.25525 1.8054-9.67806 1.78856-10.1028 1.7736-10.5293L3.05328-10.5293 3.18798-8.35161 3.23288-8.35161C3.62951-9.16731 4.1309-9.77161 4.73707-10.1645 5.34324-10.5574 6.11778-10.7538 7.0607-10.7538ZM31.8383-15.4235 33.2639-15.4235 33.2639 0.898023 31.8383 0.898023ZM26.8406-15.4235 28.2662-15.4235 28.2662 0.898023 26.8406 0.898023Z" stroke="#000000" stroke-width="0.999538" stroke-linejoin="round" stroke-miterlimit="10" fill-rule="evenodd" transform="matrix(1.00046 0 0 1 655.103 345.268)"/><text fill="#000000" fill-opacity="0" font-family="Arial,Arial_MSFontService,sans-serif" font-size="16.5461" x="1.7736" y="-0.94573">null</text><path d="M14.7227-10.5293 16.1483-10.5293 16.1483-3.82782C16.1483-2.49575 16.3765-1.53412 16.833-0.942924 17.2895-0.351726 18.0005-0.0561264 18.9658-0.0561264 20.021-0.0561264 20.8536-0.435915 21.4635-1.19549 22.0734-1.95507 22.3783-2.97844 22.3783-4.26561L22.3783-10.5293 23.8152-10.5293 23.8152-1.65012C23.8152-1.22356 23.8245-0.798866 23.8432-0.376047 23.8619 0.0467721 23.8788 0.471462 23.8937 0.898023L22.6028 0.898023 22.4681-1.26846 22.4232-1.26846C22.0266-0.452753 21.5233 0.14967 20.9134 0.538813 20.3035 0.927957 19.5271 1.12253 18.5842 1.12253 17.2746 1.12253 16.3036 0.748352 15.6712 0 15.0389-0.748352 14.7227-1.9083 14.7227-3.47984ZM7.0607-10.7538C8.37032-10.7538 9.34131-10.3778 9.97366-9.62568 10.606-8.87359 10.9222-7.71177 10.9222-6.14023L10.9222 0.898023 9.49659 0.898023 9.49659-5.79225C9.49659-7.11683 9.26834-8.07846 8.81185-8.67714 8.35535-9.27582 7.64442-9.57517 6.67904-9.57517 5.63883-9.57517 4.8119-9.19538 4.19826-8.4358 3.58461-7.67622 3.27778-6.64911 3.27778-5.35446L3.27778 0.898023 1.85217 0.898023 1.85217-7.98118C1.85217-8.40774 1.84282-8.83243 1.82411-9.25525 1.8054-9.67806 1.78856-10.1028 1.7736-10.5293L3.05328-10.5293 3.18798-8.35161 3.23288-8.35161C3.62951-9.16731 4.1309-9.77161 4.73707-10.1645 5.34324-10.5574 6.11778-10.7538 7.0607-10.7538ZM31.8383-15.4235 33.2639-15.4235 33.2639 0.898023 31.8383 0.898023ZM26.8406-15.4235 28.2662-15.4235 28.2662 0.898023 26.8406 0.898023Z" stroke="#000000" stroke-width="0.999538" stroke-linejoin="round" stroke-miterlimit="10" fill-rule="evenodd" transform="matrix(1.00046 0 0 1 655.103 382.311)"/><text fill="#000000" fill-opacity="0" font-family="Arial,Arial_MSFontService,sans-serif" font-size="16.5461" x="1.7736" y="-0.94573">null</text><path d="M14.7227-10.5293 16.1483-10.5293 16.1483-3.82782C16.1483-2.49575 16.3765-1.53412 16.833-0.942924 17.2895-0.351726 18.0005-0.0561264 18.9658-0.0561264 20.021-0.0561264 20.8536-0.435915 21.4635-1.19549 22.0734-1.95507 22.3783-2.97844 22.3783-4.26561L22.3783-10.5293 23.8152-10.5293 23.8152-1.65012C23.8152-1.22356 23.8245-0.798866 23.8432-0.376047 23.8619 0.0467721 23.8788 0.471462 23.8937 0.898023L22.6028 0.898023 22.4681-1.26846 22.4232-1.26846C22.0266-0.452753 21.5233 0.14967 20.9134 0.538813 20.3035 0.927957 19.5271 1.12253 18.5842 1.12253 17.2746 1.12253 16.3036 0.748352 15.6712 0 15.0389-0.748352 14.7227-1.9083 14.7227-3.47984ZM7.0607-10.7538C8.37032-10.7538 9.34131-10.3778 9.97366-9.62568 10.606-8.87359 10.9222-7.71177 10.9222-6.14023L10.9222 0.898023 9.49659 0.898023 9.49659-5.79225C9.49659-7.11683 9.26834-8.07846 8.81185-8.67714 8.35535-9.27582 7.64442-9.57517 6.67904-9.57517 5.63883-9.57517 4.8119-9.19538 4.19826-8.4358 3.58461-7.67622 3.27778-6.64911 3.27778-5.35446L3.27778 0.898023 1.85217 0.898023 1.85217-7.98118C1.85217-8.40774 1.84282-8.83243 1.82411-9.25525 1.8054-9.67806 1.78856-10.1028 1.7736-10.5293L3.05328-10.5293 3.18798-8.35161 3.23288-8.35161C3.62951-9.16731 4.1309-9.77161 4.73707-10.1645 5.34324-10.5574 6.11778-10.7538 7.0607-10.7538ZM31.8383-15.4235 33.2639-15.4235 33.2639 0.898023 31.8383 0.898023ZM26.8406-15.4235 28.2662-15.4235 28.2662 0.898023 26.8406 0.898023Z" stroke="#000000" stroke-width="0.999538" stroke-linejoin="round" stroke-miterlimit="10" fill-rule="evenodd" transform="matrix(1.00046 0 0 1 655.103 419.355)"/><text fill="#000000" fill-opacity="0" font-family="Arial,Arial_MSFontService,sans-serif" font-size="16.5461" x="1.7736" y="-0.94573">null</text><path d="M639.5 264.378 639.5 282.928" stroke="#ED7D31" stroke-width="1.33353" stroke-miterlimit="8" fill="none" fill-rule="evenodd"/><text font-family="Calibri,Calibri_MSFontService,sans-serif" font-weight="400" font-size="20" transform="matrix(1 0 0 0.999538 645.15 279)">0x3344</text><path d="M659 288.866 696.77 311.849" stroke="#ED7D31" stroke-width="2.00029" stroke-miterlimit="8" fill="none" fill-rule="evenodd"/><path d="M659 326.849 696.77 349.831" stroke="#ED7D31" stroke-width="2.00029" stroke-miterlimit="8" fill="none" fill-rule="evenodd"/><path d="M658 366.83 695.77 389.813" stroke="#ED7D31" stroke-width="2.00029" stroke-miterlimit="8" fill="none" fill-rule="evenodd"/><text font-family="DengXian,DengXian_MSFontService,sans-serif" font-weight="700" font-size="23" transform="matrix(1 0 0 0.999538 729.688 308)">赵宇<tspan font-family="Calibri,Calibri_MSFontService,sans-serif" font-weight="400" font-size="20" x="-712.127" y="82.0379">names:0x3344</tspan></text><path d="M0.0630653-0.327206 495.54 95.1703 495.414 95.8247-0.0630653 0.327206ZM494.926 91.3191 502.022 96.7591 493.413 99.172Z" transform="matrix(1.00046 0 0 -1 137.5 380.128)"/><path d="M658 402.814 695.77 425.796" stroke="#ED7D31" stroke-width="2.00029" stroke-miterlimit="8" fill="none" fill-rule="evenodd"/><text font-family="DengXian,DengXian_MSFontService,sans-serif" font-weight="700" font-size="23" transform="matrix(1 0 0 0.999538 729.688 346)">张凯<tspan font-size="23" x="0" y="36.0166">江云</tspan><tspan font-size="23" x="0" y="76.0351">曹林</tspan></text><path d="M729 323.85 775.807 356.125" stroke="#ED7D31" stroke-width="2.00029" stroke-miterlimit="8" fill="none" fill-rule="evenodd"/><text font-family="DengXian,DengXian_MSFontService,sans-serif" font-weight="700" font-size="23" transform="matrix(1 0 0 0.999538 790.694 347)">刘昭</text><path d="M840.979 171.115 909.851 171.115" stroke="#000000" stroke-width="1.33353" stroke-linejoin="round" stroke-miterlimit="10" fill="none" fill-rule="evenodd"/><path d="M841.645 133.388 841.645 210.631" stroke="#000000" stroke-width="1.33353" stroke-linejoin="round" stroke-miterlimit="10" fill="none" fill-rule="evenodd"/><path d="M909.185 133.388 909.185 210.631" stroke="#000000" stroke-width="1.33353" stroke-linejoin="round" stroke-miterlimit="10" fill="none" fill-rule="evenodd"/><path d="M840.979 134.055 909.851 134.055" stroke="#000000" stroke-width="1.33353" stroke-linejoin="round" stroke-miterlimit="10" fill="none" fill-rule="evenodd"/><path d="M840.979 209.965 909.851 209.965" stroke="#000000" stroke-width="1.33353" stroke-linejoin="round" stroke-miterlimit="10" fill="none" fill-rule="evenodd"/><path d="M14.5875-10.7314C14.7671-10.7314 14.9168-10.7258 15.0365-10.7145 15.1562-10.7033 15.2517-10.6809 15.3228-10.6472 15.3938-10.6135 15.4444-10.5761 15.4743-10.5349 15.5042-10.4938 15.5192-10.4433 15.5192-10.3834L15.5192-4.50134C15.5192-3.91014 15.5622-3.43681 15.6483-3.08134 15.7343-2.72587 15.8653-2.42279 16.0412-2.17209 16.217-1.92139 16.4397-1.72682 16.7091-1.58838 16.9785-1.44993 17.2928-1.38071 17.652-1.38071 18.116-1.38071 18.5781-1.54535 19.0383-1.87462 19.4986-2.2039 19.9869-2.68658 20.5032-3.32268L20.5032-10.3834C20.5032-10.4433 20.5163-10.4938 20.5425-10.5349 20.5687-10.5761 20.6192-10.6135 20.6941-10.6472 20.7689-10.6809 20.8643-10.7033 20.9803-10.7145 21.0963-10.7258 21.2478-10.7314 21.4349-10.7314 21.6145-10.7314 21.7642-10.7258 21.8839-10.7145 22.0037-10.7033 22.0972-10.6809 22.1646-10.6472 22.2319-10.6135 22.2824-10.5761 22.3161-10.5349 22.3498-10.4938 22.3666-10.4433 22.3666-10.3834L22.3666-0.280632C22.3666-0.220764 22.3535-0.17025 22.3273-0.129091 22.3011-0.0879314 22.2544-0.0523846 22.187-0.0224506 22.1197 0.00748352 22.0317 0.0299341 21.9232 0.0449011 21.8147 0.0598681 21.6819 0.0673517 21.5247 0.0673517 21.3526 0.0673517 21.2123 0.0598681 21.1038 0.0449011 20.9953 0.0299341 20.9092 0.00748352 20.8456-0.0224506 20.782-0.0523846 20.739-0.0879314 20.7165-0.129091 20.6941-0.17025 20.6828-0.220764 20.6828-0.280632L20.6828-1.61644C20.1066-0.980341 19.5378-0.516363 18.9766-0.224506 18.4153 0.0673517 17.8466 0.21328 17.2703 0.21328 16.5968 0.21328 16.0299 0.101028 15.5697-0.123478 15.1095-0.347984 14.7372-0.652937 14.4528-1.03834 14.1684-1.42374 13.9645-1.87275 13.841-2.38537 13.7175-2.89799 13.6558-3.521 13.6558-4.25438L13.6558-10.3834C13.6558-10.4433 13.6689-10.4938 13.6951-10.5349 13.7213-10.5761 13.7718-10.6135 13.8466-10.6472 13.9215-10.6809 14.0188-10.7033 14.1385-10.7145 14.2582-10.7258 14.4079-10.7314 14.5875-10.7314ZM6.80252-10.8885C7.47604-10.8885 8.04292-10.7744 8.50315-10.5462 8.96339-10.3179 9.33569-10.013 9.62007-9.63129 9.90444-9.24963 10.1084-8.80249 10.2318-8.28987 10.3553-7.77725 10.4171-7.16173 10.4171-6.44331L10.4171-0.280632C10.4171-0.220764 10.4021-0.17025 10.3722-0.129091 10.3422-0.0879314 10.2936-0.0523846 10.2262-0.0224506 10.1589 0.00748352 10.0653 0.0299341 9.9456 0.0449011 9.82586 0.0598681 9.67619 0.0673517 9.49659 0.0673517 9.3095 0.0673517 9.15609 0.0598681 9.03635 0.0449011 8.91662 0.0299341 8.82307 0.00748352 8.75572-0.0224506 8.68837-0.0523846 8.63973-0.0879314 8.60979-0.129091 8.57986-0.17025 8.56489-0.220764 8.56489-0.280632L8.56489-6.19636C8.56489-6.77259 8.51999-7.23657 8.43019-7.58829 8.34039-7.94002 8.20942-8.2431 8.0373-8.49754 7.86518-8.75198 7.64255-8.94655 7.3694-9.08125 7.09625-9.21596 6.78007-9.28331 6.42086-9.28331 5.95688-9.28331 5.49291-9.11867 5.02893-8.7894 4.56495-8.46012 4.07852-7.97743 3.56964-7.34133L3.56964-0.280632C3.56964-0.220764 3.55467-0.17025 3.52474-0.129091 3.4948-0.0879314 3.44616-0.0523846 3.37881-0.0224506 3.31146 0.00748352 3.21791 0.0299341 3.09818 0.0449011 2.97844 0.0598681 2.82503 0.0673517 2.63794 0.0673517 2.45834 0.0673517 2.30867 0.0598681 2.18893 0.0449011 2.06919 0.0299341 1.97378 0.00748352 1.90269-0.0224506 1.83159-0.0523846 1.78295-0.0879314 1.75676-0.129091 1.73057-0.17025 1.71747-0.220764 1.71747-0.280632L1.71747-10.3834C1.71747-10.4433 1.72869-10.4938 1.75114-10.5349 1.7736-10.5761 1.8185-10.6135 1.88585-10.6472 1.9532-10.6809 2.03926-10.7033 2.14403-10.7145 2.2488-10.7258 2.38724-10.7314 2.55936-10.7314 2.724-10.7314 2.86058-10.7258 2.96909-10.7145 3.0776-10.7033 3.16179-10.6809 3.22166-10.6472 3.28152-10.6135 3.32455-10.5761 3.35075-10.5349 3.37694-10.4938 3.39004-10.4433 3.39004-10.3834L3.39004-9.04758C3.95878-9.68368 4.52566-10.1495 5.09067-10.4451 5.65567-10.7407 6.22629-10.8885 6.80252-10.8885ZM31.6245-15.6368C31.8116-15.6368 31.965-15.6293 32.0848-15.6144 32.2045-15.5994 32.2981-15.5769 32.3654-15.547 32.4328-15.5171 32.4814-15.4797 32.5113-15.4348 32.5413-15.3899 32.5562-15.3375 32.5562-15.2776L32.5562-0.280632C32.5562-0.220764 32.5413-0.17025 32.5113-0.129091 32.4814-0.0879314 32.4328-0.0523846 32.3654-0.0224506 32.2981 0.00748352 32.2045 0.0299341 32.0848 0.0449011 31.965 0.0598681 31.8116 0.0673517 31.6245 0.0673517 31.4449 0.0673517 31.2953 0.0598681 31.1755 0.0449011 31.0558 0.0299341 30.9604 0.00748352 30.8893-0.0224506 30.8182-0.0523846 30.7696-0.0879314 30.7434-0.129091 30.7172-0.17025 30.7041-0.220764 30.7041-0.280632L30.7041-15.2776C30.7041-15.3375 30.7172-15.3899 30.7434-15.4348 30.7696-15.4797 30.8182-15.5171 30.8893-15.547 30.9604-15.5769 31.0558-15.5994 31.1755-15.6144 31.2953-15.6293 31.4449-15.6368 31.6245-15.6368ZM26.6269-15.6368C26.8139-15.6368 26.9674-15.6293 27.0871-15.6144 27.2068-15.5994 27.3004-15.5769 27.3677-15.547 27.4351-15.5171 27.4837-15.4797 27.5137-15.4348 27.5436-15.3899 27.5586-15.3375 27.5586-15.2776L27.5586-0.280632C27.5586-0.220764 27.5436-0.17025 27.5137-0.129091 27.4837-0.0879314 27.4351-0.0523846 27.3677-0.0224506 27.3004 0.00748352 27.2068 0.0299341 27.0871 0.0449011 26.9674 0.0598681 26.8139 0.0673517 26.6269 0.0673517 26.4473 0.0673517 26.2976 0.0598681 26.1778 0.0449011 26.0581 0.0299341 25.9627 0.00748352 25.8916-0.0224506 25.8205-0.0523846 25.7719-0.0879314 25.7457-0.129091 25.7195-0.17025 25.7064-0.220764 25.7064-0.280632L25.7064-15.2776C25.7064-15.3375 25.7195-15.3899 25.7457-15.4348 25.7719-15.4797 25.8205-15.5171 25.8916-15.547 25.9627-15.5769 26.0581-15.5994 26.1778-15.6144 26.2976-15.6293 26.4473-15.6368 26.6269-15.6368Z" stroke="#000000" stroke-width="0.999538" stroke-linejoin="round" stroke-miterlimit="10" fill-rule="evenodd" transform="matrix(1.00046 0 0 1 858.413 159.508)"/><text fill="#000000" fill-opacity="0" font-family="Arial,Arial_MSFontService,sans-serif" font-size="15.8501" x="1.71747" y="-1.76798">null</text><path d="M14.7227-10.5293 16.1483-10.5293 16.1483-3.82782C16.1483-2.49575 16.3765-1.53412 16.833-0.942924 17.2895-0.351726 18.0005-0.0561264 18.9658-0.0561264 20.021-0.0561264 20.8536-0.435915 21.4635-1.19549 22.0734-1.95507 22.3783-2.97844 22.3783-4.26561L22.3783-10.5293 23.8152-10.5293 23.8152-1.65012C23.8152-1.22356 23.8245-0.798866 23.8432-0.376047 23.8619 0.0467721 23.8788 0.471462 23.8937 0.898023L22.6028 0.898023 22.4681-1.26846 22.4232-1.26846C22.0266-0.452753 21.5233 0.14967 20.9134 0.538813 20.3035 0.927957 19.5271 1.12253 18.5842 1.12253 17.2746 1.12253 16.3036 0.748352 15.6712 0 15.0389-0.748352 14.7227-1.9083 14.7227-3.47984ZM7.0607-10.7538C8.37032-10.7538 9.34131-10.3778 9.97366-9.62568 10.606-8.87359 10.9222-7.71177 10.9222-6.14023L10.9222 0.898023 9.49659 0.898023 9.49659-5.79225C9.49659-7.11683 9.26834-8.07846 8.81185-8.67714 8.35535-9.27582 7.64442-9.57517 6.67904-9.57517 5.63883-9.57517 4.8119-9.19538 4.19826-8.4358 3.58461-7.67622 3.27778-6.64911 3.27778-5.35446L3.27778 0.898023 1.85217 0.898023 1.85217-7.98118C1.85217-8.40774 1.84282-8.83243 1.82411-9.25525 1.8054-9.67806 1.78856-10.1028 1.7736-10.5293L3.05328-10.5293 3.18798-8.35161 3.23288-8.35161C3.62951-9.16731 4.1309-9.77161 4.73707-10.1645 5.34324-10.5574 6.11778-10.7538 7.0607-10.7538ZM31.8383-15.4235 33.2639-15.4235 33.2639 0.898023 31.8383 0.898023ZM26.8406-15.4235 28.2662-15.4235 28.2662 0.898023 26.8406 0.898023Z" stroke="#000000" stroke-width="0.999538" stroke-linejoin="round" stroke-miterlimit="10" fill-rule="evenodd" transform="matrix(1.00046 0 0 1 857.912 196.552)"/><text fill="#000000" fill-opacity="0" font-family="Arial,Arial_MSFontService,sans-serif" font-size="16.5461" x="1.7736" y="-0.94573">null</text><path d="M69 368.83 145.721 399.645" stroke="#ED7D31" stroke-width="2.00029" stroke-miterlimit="8" fill="none" fill-rule="evenodd"/><text font-family="Calibri,Calibri_MSFontService,sans-serif" font-weight="400" font-size="20" transform="matrix(1 0 0 0.999538 79.1156 360)">0x5566</text><path d="M0.0984833-0.318343 691.525 213.583 691.328 214.22-0.0984833 0.318343ZM691.336 209.688 697.795 215.871 688.973 217.328Z" transform="matrix(1.00046 0 0 -1 144.5 350.309)"/><path d="M842.5 115.447 842.5 133.997" stroke="#ED7D31" stroke-width="1.33353" stroke-miterlimit="8" fill="none" fill-rule="evenodd"/><text font-family="Calibri,Calibri_MSFontService,sans-serif" font-weight="400" font-size="20" transform="matrix(1 0 0 0.999538 846.079 132)">0x5566</text><path d="M857 143.933 894.77 166.916" stroke="#ED7D31" stroke-width="2.00029" stroke-miterlimit="8" fill="none" fill-rule="evenodd"/><path d="M855 178.917 892.77 201.9" stroke="#ED7D31" stroke-width="2.00029" stroke-miterlimit="8" fill="none" fill-rule="evenodd"/><text font-family="Calibri,Calibri_MSFontService,sans-serif" font-weight="700" font-size="23" transform="matrix(1 0 0 0.999538 923.888 161)">Tom<tspan font-size="23" x="0" y="36.0166">Jerry</tspan></text></g></svg>