<svg width="1134" height="529" xmlns="http://www.w3.org/2000/svg" xmlns:xlink="http://www.w3.org/1999/xlink" overflow="hidden"><defs><clipPath id="clip0"><rect x="0" y="0" width="1134" height="529"/></clipPath></defs><g clip-path="url(#clip0)"><rect x="0" y="0" width="1134" height="528.756" fill="#FFFFFF"/><rect x="185.5" y="22.4896" width="947" height="441.796" stroke="#2F528F" stroke-width="1.33353" stroke-miterlimit="8" fill="#E7E6E6"/><text font-family="Calibri,Calibri_MSFontService,sans-serif" font-weight="400" font-size="20" transform="matrix(1 0 0 0.999538 817.628 73)">int[][] arr1<tspan font-size="20" x="89.4932" y="0">=</tspan><tspan font-size="20" x="103.995" y="0">new</tspan><tspan font-size="20" x="143.401" y="0">int[4][];</tspan><tspan font-size="20" x="0" y="24.0111">arr1[0] = new int[3];</tspan><tspan font-size="20" x="0" y="48.0222">arr1[1] = new int[]{1,2,3};</tspan><tspan font-size="20" x="0" y="72.0333">arr1[0][2] = 5;</tspan><tspan font-size="20" x="0" y="97.0448">arr1 = new int[2][];</tspan></text><rect x="4.49998" y="22.4896" width="154" height="441.796" stroke="#2F528F" stroke-width="1.33353" stroke-miterlimit="8" fill="#E7E6E6"/><text font-family="DengXian,DengXian_MSFontService,sans-serif" font-weight="400" font-size="23" transform="matrix(1 0 0 0.999538 33.5976 490)">栈<tspan font-family="Calibri,Calibri_MSFontService,sans-serif" font-size="23" x="22.67" y="0">stack</tspan>：<tspan font-size="23" x="0" y="27.0125">局部变量</tspan><tspan font-family="Calibri,Calibri_MSFontService,sans-serif" font-size="20" x="-10.2071" y="-60.0277">arr1:0x1122</tspan></text><path d="M402.303 327.248 471.176 327.248" stroke="#000000" stroke-width="1.33353" stroke-linejoin="round" stroke-miterlimit="10" fill="none" fill-rule="evenodd"/><path d="M402.303 364.309 471.176 364.309" stroke="#000000" stroke-width="1.33353" stroke-linejoin="round" stroke-miterlimit="10" fill="none" fill-rule="evenodd"/><path d="M402.303 401.369 471.176 401.369" stroke="#000000" stroke-width="1.33353" stroke-linejoin="round" stroke-miterlimit="10" fill="none" fill-rule="evenodd"/><path d="M402.969 289.805 402.969 439.096" stroke="#000000" stroke-width="1.33353" stroke-linejoin="round" stroke-miterlimit="10" fill="none" fill-rule="evenodd"/><path d="M470.509 289.805 470.509 439.096" stroke="#000000" stroke-width="1.33353" stroke-linejoin="round" stroke-miterlimit="10" fill="none" fill-rule="evenodd"/><path d="M402.303 290.472 471.176 290.472" stroke="#000000" stroke-width="1.33353" stroke-linejoin="round" stroke-miterlimit="10" fill="none" fill-rule="evenodd"/><path d="M402.303 438.43 471.176 438.43" stroke="#000000" stroke-width="1.33353" stroke-linejoin="round" stroke-miterlimit="10" fill="none" fill-rule="evenodd"/><path d="M13.3625-9.79821C13.5265-9.79821 13.6631-9.79308 13.7724-9.78283 13.8818-9.77258 13.9689-9.75209 14.0338-9.72134 14.0987-9.69059 14.1448-9.65643 14.1722-9.61885 14.1995-9.58127 14.2132-9.53514 14.2132-9.48048L14.2132-4.10992C14.2132-3.57013 14.2524-3.13795 14.331-2.8134 14.4096-2.48884 14.5292-2.21211 14.6897-1.98321 14.8503-1.75432 15.0536-1.57666 15.2996-1.45026 15.5456-1.32385 15.8325-1.26065 16.1605-1.26065 16.5841-1.26065 17.0061-1.41097 17.4263-1.71161 17.8465-2.01225 18.2923-2.45297 18.7638-3.03375L18.7638-9.48048C18.7638-9.53514 18.7757-9.58127 18.7997-9.61885 18.8236-9.65643 18.8697-9.69059 18.938-9.72134 19.0064-9.75209 19.0935-9.77258 19.1994-9.78283 19.3053-9.79308 19.4437-9.79821 19.6145-9.79821 19.7785-9.79821 19.9151-9.79308 20.0244-9.78283 20.1338-9.77258 20.2192-9.75209 20.2807-9.72134 20.3422-9.69059 20.3883-9.65643 20.419-9.61885 20.4498-9.58127 20.4652-9.53514 20.4652-9.48048L20.4652-0.256229C20.4652-0.201567 20.4532-0.155446 20.4293-0.117866 20.4054-0.0802852 20.3627-0.0478294 20.3012-0.0204983 20.2397 0.00683278 20.1594 0.0273311 20.0603 0.0409967 19.9612 0.0546622 19.84 0.061495 19.6965 0.061495 19.5393 0.061495 19.4112 0.0546622 19.3121 0.0409967 19.213 0.0273311 19.1345 0.00683278 19.0764-0.0204983 19.0183-0.0478294 18.979-0.0802852 18.9585-0.117866 18.938-0.155446 18.9278-0.201567 18.9278-0.256229L18.9278-1.47588C18.4017-0.895094 17.8824-0.471462 17.3699-0.204983 16.8574 0.061495 16.3382 0.194734 15.812 0.194734 15.1971 0.194734 14.6795 0.0922426 14.2593-0.112741 13.8391-0.317724 13.4991-0.59616 13.2395-0.948048 12.9798-1.29994 12.7937-1.7099 12.6809-2.17795 12.5682-2.64599 12.5118-3.21482 12.5118-3.88444L12.5118-9.48048C12.5118-9.53514 12.5238-9.58127 12.5477-9.61885 12.5716-9.65643 12.6177-9.69059 12.686-9.72134 12.7544-9.75209 12.8432-9.77258 12.9525-9.78283 13.0618-9.79308 13.1985-9.79821 13.3625-9.79821ZM6.211-9.9417C6.82595-9.9417 7.34353-9.8375 7.76375-9.6291 8.18396-9.4207 8.52389-9.14226 8.78354-8.79379 9.04319-8.44532 9.22938-8.03706 9.34212-7.56901 9.45486-7.10097 9.51123-6.53897 9.51123-5.88302L9.51123-0.256229C9.51123-0.201567 9.49757-0.155446 9.47023-0.117866 9.4429-0.0802852 9.39849-0.0478294 9.337-0.0204983 9.2755 0.00683278 9.19009 0.0273311 9.08077 0.0409967 8.97144 0.0546622 8.83479 0.061495 8.6708 0.061495 8.49998 0.061495 8.35991 0.0546622 8.25058 0.0409967 8.14126 0.0273311 8.05585 0.00683278 7.99435-0.0204983 7.93286-0.0478294 7.88845-0.0802852 7.86111-0.117866 7.83378-0.155446 7.82012-0.201567 7.82012-0.256229L7.82012-5.65754C7.82012-6.18367 7.77912-6.6073 7.69713-6.92844 7.61513-7.24958 7.49556-7.52631 7.33841-7.75862 7.18125-7.99094 6.97798-8.16859 6.72858-8.29158 6.47918-8.41457 6.1905-8.47606 5.86253-8.47606 5.43889-8.47606 5.01526-8.32574 4.59163-8.0251 4.168-7.72446 3.72387-7.28374 3.25924-6.70296L3.25924-0.256229C3.25924-0.201567 3.24557-0.155446 3.21824-0.117866 3.19091-0.0802852 3.1465-0.0478294 3.085-0.0204983 3.02351 0.00683278 2.9381 0.0273311 2.82877 0.0409967 2.71945 0.0546622 2.57938 0.061495 2.40856 0.061495 2.24457 0.061495 2.10791 0.0546622 1.99859 0.0409967 1.88926 0.0273311 1.80215 0.00683278 1.73723-0.0204983 1.67232-0.0478294 1.62791-0.0802852 1.604-0.117866 1.58008-0.155446 1.56812-0.201567 1.56812-0.256229L1.56812-9.48048C1.56812-9.53514 1.57837-9.58127 1.59887-9.61885 1.61937-9.65643 1.66037-9.69059 1.72186-9.72134 1.78336-9.75209 1.86193-9.77258 1.95759-9.78283 2.05325-9.79308 2.17966-9.79821 2.33681-9.79821 2.48713-9.79821 2.61183-9.79308 2.71091-9.78283 2.80998-9.77258 2.88685-9.75209 2.94151-9.72134 2.99617-9.69059 3.03546-9.65643 3.05938-9.61885 3.08329-9.58127 3.09525-9.53514 3.09525-9.48048L3.09525-8.26083C3.61454-8.84162 4.13212-9.26696 4.648-9.53685 5.16387-9.80675 5.68487-9.9417 6.211-9.9417ZM29.3961-14.2771C29.5669-14.2771 29.707-14.2703 29.8163-14.2566 29.9256-14.2429 30.011-14.2224 30.0725-14.1951 30.134-14.1678 30.1784-14.1336 30.2058-14.0926 30.2331-14.0516 30.2468-14.0038 30.2468-13.9491L30.2468-0.256229C30.2468-0.201567 30.2331-0.155446 30.2058-0.117866 30.1784-0.0802852 30.134-0.0478294 30.0725-0.0204983 30.011 0.00683278 29.9256 0.0273311 29.8163 0.0409967 29.707 0.0546622 29.5669 0.061495 29.3961 0.061495 29.2321 0.061495 29.0954 0.0546622 28.9861 0.0409967 28.8768 0.0273311 28.7897 0.00683278 28.7248-0.0204983 28.6599-0.0478294 28.6154-0.0802852 28.5915-0.117866 28.5676-0.155446 28.5557-0.201567 28.5557-0.256229L28.5557-13.9491C28.5557-14.0038 28.5676-14.0516 28.5915-14.0926 28.6154-14.1336 28.6599-14.1678 28.7248-14.1951 28.7897-14.2224 28.8768-14.2429 28.9861-14.2566 29.0954-14.2703 29.2321-14.2771 29.3961-14.2771ZM24.3984-14.2771C24.5692-14.2771 24.7093-14.2703 24.8186-14.2566 24.9279-14.2429 25.0133-14.2224 25.0748-14.1951 25.1363-14.1678 25.1807-14.1336 25.2081-14.0926 25.2354-14.0516 25.2491-14.0038 25.2491-13.9491L25.2491-0.256229C25.2491-0.201567 25.2354-0.155446 25.2081-0.117866 25.1807-0.0802852 25.1363-0.0478294 25.0748-0.0204983 25.0133 0.00683278 24.9279 0.0273311 24.8186 0.0409967 24.7093 0.0546622 24.5692 0.061495 24.3984 0.061495 24.2344 0.061495 24.0978 0.0546622 23.9884 0.0409967 23.8791 0.0273311 23.792 0.00683278 23.7271-0.0204983 23.6622-0.0478294 23.6178-0.0802852 23.5938-0.117866 23.5699-0.155446 23.558-0.201567 23.558-0.256229L23.558-13.9491C23.558-14.0038 23.5699-14.0516 23.5938-14.0926 23.6178-14.1336 23.6622-14.1678 23.7271-14.1951 23.792-14.2224 23.8791-14.2429 23.9884-14.2566 24.0978-14.2703 24.2344-14.2771 24.3984-14.2771Z" stroke="#000000" stroke-width="0.999538" stroke-linejoin="round" stroke-miterlimit="10" fill-rule="evenodd" transform="matrix(1.00046 0 0 1 420.737 314.854)"/><text fill="#000000" fill-opacity="0" font-family="Arial,Arial_MSFontService,sans-serif" font-size="14.4718" x="1.56812" y="-1.61424">null</text><path d="M14.7227-10.5293 16.1483-10.5293 16.1483-3.82782C16.1483-2.49575 16.3765-1.53412 16.833-0.942924 17.2895-0.351726 18.0005-0.0561264 18.9658-0.0561264 20.021-0.0561264 20.8536-0.435915 21.4635-1.19549 22.0734-1.95507 22.3783-2.97844 22.3783-4.26561L22.3783-10.5293 23.8152-10.5293 23.8152-1.65012C23.8152-1.22356 23.8245-0.798866 23.8432-0.376047 23.8619 0.0467721 23.8788 0.471462 23.8937 0.898023L22.6028 0.898023 22.4681-1.26846 22.4232-1.26846C22.0266-0.452753 21.5233 0.14967 20.9134 0.538813 20.3035 0.927957 19.5271 1.12253 18.5842 1.12253 17.2746 1.12253 16.3036 0.748352 15.6712 0 15.0389-0.748352 14.7227-1.9083 14.7227-3.47984ZM7.0607-10.7538C8.37032-10.7538 9.34131-10.3778 9.97366-9.62568 10.606-8.87359 10.9222-7.71177 10.9222-6.14023L10.9222 0.898023 9.49659 0.898023 9.49659-5.79225C9.49659-7.11683 9.26834-8.07846 8.81185-8.67714 8.35535-9.27582 7.64442-9.57517 6.67904-9.57517 5.63883-9.57517 4.8119-9.19538 4.19826-8.4358 3.58461-7.67622 3.27778-6.64911 3.27778-5.35446L3.27778 0.898023 1.85217 0.898023 1.85217-7.98118C1.85217-8.40774 1.84282-8.83243 1.82411-9.25525 1.8054-9.67806 1.78856-10.1028 1.7736-10.5293L3.05328-10.5293 3.18798-8.35161 3.23288-8.35161C3.62951-9.16731 4.1309-9.77161 4.73707-10.1645 5.34324-10.5574 6.11778-10.7538 7.0607-10.7538ZM31.8383-15.4235 33.2639-15.4235 33.2639 0.898023 31.8383 0.898023ZM26.8406-15.4235 28.2662-15.4235 28.2662 0.898023 26.8406 0.898023Z" stroke="#000000" stroke-width="0.999538" stroke-linejoin="round" stroke-miterlimit="10" fill-rule="evenodd" transform="matrix(1.00046 0 0 1 419.236 352.613)"/><text fill="#000000" fill-opacity="0" font-family="Arial,Arial_MSFontService,sans-serif" font-size="16.5461" x="1.7736" y="-0.94573">null</text><path d="M14.7227-10.5293 16.1483-10.5293 16.1483-3.82782C16.1483-2.49575 16.3765-1.53412 16.833-0.942924 17.2895-0.351726 18.0005-0.0561264 18.9658-0.0561264 20.021-0.0561264 20.8536-0.435915 21.4635-1.19549 22.0734-1.95507 22.3783-2.97844 22.3783-4.26561L22.3783-10.5293 23.8152-10.5293 23.8152-1.65012C23.8152-1.22356 23.8245-0.798866 23.8432-0.376047 23.8619 0.0467721 23.8788 0.471462 23.8937 0.898023L22.6028 0.898023 22.4681-1.26846 22.4232-1.26846C22.0266-0.452753 21.5233 0.14967 20.9134 0.538813 20.3035 0.927957 19.5271 1.12253 18.5842 1.12253 17.2746 1.12253 16.3036 0.748352 15.6712 0 15.0389-0.748352 14.7227-1.9083 14.7227-3.47984ZM7.0607-10.7538C8.37032-10.7538 9.34131-10.3778 9.97366-9.62568 10.606-8.87359 10.9222-7.71177 10.9222-6.14023L10.9222 0.898023 9.49659 0.898023 9.49659-5.79225C9.49659-7.11683 9.26834-8.07846 8.81185-8.67714 8.35535-9.27582 7.64442-9.57517 6.67904-9.57517 5.63883-9.57517 4.8119-9.19538 4.19826-8.4358 3.58461-7.67622 3.27778-6.64911 3.27778-5.35446L3.27778 0.898023 1.85217 0.898023 1.85217-7.98118C1.85217-8.40774 1.84282-8.83243 1.82411-9.25525 1.8054-9.67806 1.78856-10.1028 1.7736-10.5293L3.05328-10.5293 3.18798-8.35161 3.23288-8.35161C3.62951-9.16731 4.1309-9.77161 4.73707-10.1645 5.34324-10.5574 6.11778-10.7538 7.0607-10.7538ZM31.8383-15.4235 33.2639-15.4235 33.2639 0.898023 31.8383 0.898023ZM26.8406-15.4235 28.2662-15.4235 28.2662 0.898023 26.8406 0.898023Z" stroke="#000000" stroke-width="0.999538" stroke-linejoin="round" stroke-miterlimit="10" fill-rule="evenodd" transform="matrix(1.00046 0 0 1 419.236 389.656)"/><text fill="#000000" fill-opacity="0" font-family="Arial,Arial_MSFontService,sans-serif" font-size="16.5461" x="1.7736" y="-0.94573">null</text><path d="M14.7227-10.5293 16.1483-10.5293 16.1483-3.82782C16.1483-2.49575 16.3765-1.53412 16.833-0.942924 17.2895-0.351726 18.0005-0.0561264 18.9658-0.0561264 20.021-0.0561264 20.8536-0.435915 21.4635-1.19549 22.0734-1.95507 22.3783-2.97844 22.3783-4.26561L22.3783-10.5293 23.8152-10.5293 23.8152-1.65012C23.8152-1.22356 23.8245-0.798866 23.8432-0.376047 23.8619 0.0467721 23.8788 0.471462 23.8937 0.898023L22.6028 0.898023 22.4681-1.26846 22.4232-1.26846C22.0266-0.452753 21.5233 0.14967 20.9134 0.538813 20.3035 0.927957 19.5271 1.12253 18.5842 1.12253 17.2746 1.12253 16.3036 0.748352 15.6712 0 15.0389-0.748352 14.7227-1.9083 14.7227-3.47984ZM7.0607-10.7538C8.37032-10.7538 9.34131-10.3778 9.97366-9.62568 10.606-8.87359 10.9222-7.71177 10.9222-6.14023L10.9222 0.898023 9.49659 0.898023 9.49659-5.79225C9.49659-7.11683 9.26834-8.07846 8.81185-8.67714 8.35535-9.27582 7.64442-9.57517 6.67904-9.57517 5.63883-9.57517 4.8119-9.19538 4.19826-8.4358 3.58461-7.67622 3.27778-6.64911 3.27778-5.35446L3.27778 0.898023 1.85217 0.898023 1.85217-7.98118C1.85217-8.40774 1.84282-8.83243 1.82411-9.25525 1.8054-9.67806 1.78856-10.1028 1.7736-10.5293L3.05328-10.5293 3.18798-8.35161 3.23288-8.35161C3.62951-9.16731 4.1309-9.77161 4.73707-10.1645 5.34324-10.5574 6.11778-10.7538 7.0607-10.7538ZM31.8383-15.4235 33.2639-15.4235 33.2639 0.898023 31.8383 0.898023ZM26.8406-15.4235 28.2662-15.4235 28.2662 0.898023 26.8406 0.898023Z" stroke="#000000" stroke-width="0.999538" stroke-linejoin="round" stroke-miterlimit="10" fill-rule="evenodd" transform="matrix(1.00046 0 0 1 419.236 426.7)"/><text fill="#000000" fill-opacity="0" font-family="Arial,Arial_MSFontService,sans-serif" font-size="16.5461" x="1.7736" y="-0.94573">null</text><path d="M403.5 272.374 403.5 290.925" stroke="#ED7D31" stroke-width="1.33353" stroke-miterlimit="8" fill="none" fill-rule="evenodd"/><text font-family="Calibri,Calibri_MSFontService,sans-serif" font-weight="400" font-size="20" transform="matrix(1 0 0 0.999538 409.284 287)">0x1122</text><path d="M423 296.863 460.77 319.845" stroke="#ED7D31" stroke-width="2.00029" stroke-miterlimit="8" fill="none" fill-rule="evenodd"/><path d="M423 334.845 460.77 357.828" stroke="#ED7D31" stroke-width="2.00029" stroke-miterlimit="8" fill="none" fill-rule="evenodd"/><path d="M404.184 180.024 473.057 180.024" stroke="#000000" stroke-width="1.33353" stroke-linejoin="round" stroke-miterlimit="10" fill="none" fill-rule="evenodd"/><path d="M404.851 142.581 404.851 219.54" stroke="#000000" stroke-width="1.33353" stroke-linejoin="round" stroke-miterlimit="10" fill="none" fill-rule="evenodd"/><path d="M472.39 142.581 472.39 219.54" stroke="#000000" stroke-width="1.33353" stroke-linejoin="round" stroke-miterlimit="10" fill="none" fill-rule="evenodd"/><path d="M404.184 143.247 473.057 143.247" stroke="#000000" stroke-width="1.33353" stroke-linejoin="round" stroke-miterlimit="10" fill="none" fill-rule="evenodd"/><path d="M404.184 218.873 473.057 218.873" stroke="#000000" stroke-width="1.33353" stroke-linejoin="round" stroke-miterlimit="10" fill="none" fill-rule="evenodd"/><path d="M13.3625-9.79821C13.5265-9.79821 13.6631-9.79308 13.7724-9.78283 13.8818-9.77258 13.9689-9.75209 14.0338-9.72134 14.0987-9.69059 14.1448-9.65643 14.1722-9.61885 14.1995-9.58127 14.2132-9.53514 14.2132-9.48048L14.2132-4.10992C14.2132-3.57013 14.2524-3.13795 14.331-2.8134 14.4096-2.48884 14.5292-2.21211 14.6897-1.98321 14.8503-1.75432 15.0536-1.57666 15.2996-1.45026 15.5456-1.32385 15.8325-1.26065 16.1605-1.26065 16.5841-1.26065 17.0061-1.41097 17.4263-1.71161 17.8465-2.01225 18.2923-2.45297 18.7638-3.03375L18.7638-9.48048C18.7638-9.53514 18.7757-9.58127 18.7997-9.61885 18.8236-9.65643 18.8697-9.69059 18.938-9.72134 19.0064-9.75209 19.0935-9.77258 19.1994-9.78283 19.3053-9.79308 19.4437-9.79821 19.6145-9.79821 19.7785-9.79821 19.9151-9.79308 20.0244-9.78283 20.1338-9.77258 20.2192-9.75209 20.2807-9.72134 20.3422-9.69059 20.3883-9.65643 20.419-9.61885 20.4498-9.58127 20.4652-9.53514 20.4652-9.48048L20.4652-0.256229C20.4652-0.201567 20.4532-0.155446 20.4293-0.117866 20.4054-0.0802852 20.3627-0.0478294 20.3012-0.0204983 20.2397 0.00683278 20.1594 0.0273311 20.0603 0.0409967 19.9612 0.0546622 19.84 0.061495 19.6965 0.061495 19.5393 0.061495 19.4112 0.0546622 19.3121 0.0409967 19.213 0.0273311 19.1345 0.00683278 19.0764-0.0204983 19.0183-0.0478294 18.979-0.0802852 18.9585-0.117866 18.938-0.155446 18.9278-0.201567 18.9278-0.256229L18.9278-1.47588C18.4017-0.895094 17.8824-0.471462 17.3699-0.204983 16.8574 0.061495 16.3382 0.194734 15.812 0.194734 15.1971 0.194734 14.6795 0.0922426 14.2593-0.112741 13.8391-0.317724 13.4991-0.59616 13.2395-0.948048 12.9798-1.29994 12.7937-1.7099 12.6809-2.17795 12.5682-2.64599 12.5118-3.21482 12.5118-3.88444L12.5118-9.48048C12.5118-9.53514 12.5238-9.58127 12.5477-9.61885 12.5716-9.65643 12.6177-9.69059 12.686-9.72134 12.7544-9.75209 12.8432-9.77258 12.9525-9.78283 13.0618-9.79308 13.1985-9.79821 13.3625-9.79821ZM6.211-9.9417C6.82595-9.9417 7.34353-9.8375 7.76375-9.6291 8.18396-9.4207 8.52389-9.14226 8.78354-8.79379 9.04319-8.44532 9.22938-8.03706 9.34212-7.56901 9.45486-7.10097 9.51123-6.53897 9.51123-5.88302L9.51123-0.256229C9.51123-0.201567 9.49757-0.155446 9.47023-0.117866 9.4429-0.0802852 9.39849-0.0478294 9.337-0.0204983 9.2755 0.00683278 9.19009 0.0273311 9.08077 0.0409967 8.97144 0.0546622 8.83479 0.061495 8.6708 0.061495 8.49998 0.061495 8.35991 0.0546622 8.25058 0.0409967 8.14126 0.0273311 8.05585 0.00683278 7.99435-0.0204983 7.93286-0.0478294 7.88845-0.0802852 7.86111-0.117866 7.83378-0.155446 7.82012-0.201567 7.82012-0.256229L7.82012-5.65754C7.82012-6.18367 7.77912-6.6073 7.69713-6.92844 7.61513-7.24958 7.49556-7.52631 7.33841-7.75862 7.18125-7.99094 6.97798-8.16859 6.72858-8.29158 6.47918-8.41457 6.1905-8.47606 5.86253-8.47606 5.43889-8.47606 5.01526-8.32574 4.59163-8.0251 4.168-7.72446 3.72387-7.28374 3.25924-6.70296L3.25924-0.256229C3.25924-0.201567 3.24557-0.155446 3.21824-0.117866 3.19091-0.0802852 3.1465-0.0478294 3.085-0.0204983 3.02351 0.00683278 2.9381 0.0273311 2.82877 0.0409967 2.71945 0.0546622 2.57938 0.061495 2.40856 0.061495 2.24457 0.061495 2.10791 0.0546622 1.99859 0.0409967 1.88926 0.0273311 1.80215 0.00683278 1.73723-0.0204983 1.67232-0.0478294 1.62791-0.0802852 1.604-0.117866 1.58008-0.155446 1.56812-0.201567 1.56812-0.256229L1.56812-9.48048C1.56812-9.53514 1.57837-9.58127 1.59887-9.61885 1.61937-9.65643 1.66037-9.69059 1.72186-9.72134 1.78336-9.75209 1.86193-9.77258 1.95759-9.78283 2.05325-9.79308 2.17966-9.79821 2.33681-9.79821 2.48713-9.79821 2.61183-9.79308 2.71091-9.78283 2.80998-9.77258 2.88685-9.75209 2.94151-9.72134 2.99617-9.69059 3.03546-9.65643 3.05938-9.61885 3.08329-9.58127 3.09525-9.53514 3.09525-9.48048L3.09525-8.26083C3.61454-8.84162 4.13212-9.26696 4.648-9.53685 5.16387-9.80675 5.68487-9.9417 6.211-9.9417ZM29.3961-14.2771C29.5669-14.2771 29.707-14.2703 29.8163-14.2566 29.9256-14.2429 30.011-14.2224 30.0725-14.1951 30.134-14.1678 30.1784-14.1336 30.2058-14.0926 30.2331-14.0516 30.2468-14.0038 30.2468-13.9491L30.2468-0.256229C30.2468-0.201567 30.2331-0.155446 30.2058-0.117866 30.1784-0.0802852 30.134-0.0478294 30.0725-0.0204983 30.011 0.00683278 29.9256 0.0273311 29.8163 0.0409967 29.707 0.0546622 29.5669 0.061495 29.3961 0.061495 29.2321 0.061495 29.0954 0.0546622 28.9861 0.0409967 28.8768 0.0273311 28.7897 0.00683278 28.7248-0.0204983 28.6599-0.0478294 28.6154-0.0802852 28.5915-0.117866 28.5676-0.155446 28.5557-0.201567 28.5557-0.256229L28.5557-13.9491C28.5557-14.0038 28.5676-14.0516 28.5915-14.0926 28.6154-14.1336 28.6599-14.1678 28.7248-14.1951 28.7897-14.2224 28.8768-14.2429 28.9861-14.2566 29.0954-14.2703 29.2321-14.2771 29.3961-14.2771ZM24.3984-14.2771C24.5692-14.2771 24.7093-14.2703 24.8186-14.2566 24.9279-14.2429 25.0133-14.2224 25.0748-14.1951 25.1363-14.1678 25.1807-14.1336 25.2081-14.0926 25.2354-14.0516 25.2491-14.0038 25.2491-13.9491L25.2491-0.256229C25.2491-0.201567 25.2354-0.155446 25.2081-0.117866 25.1807-0.0802852 25.1363-0.0478294 25.0748-0.0204983 25.0133 0.00683278 24.9279 0.0273311 24.8186 0.0409967 24.7093 0.0546622 24.5692 0.061495 24.3984 0.061495 24.2344 0.061495 24.0978 0.0546622 23.9884 0.0409967 23.8791 0.0273311 23.792 0.00683278 23.7271-0.0204983 23.6622-0.0478294 23.6178-0.0802852 23.5938-0.117866 23.5699-0.155446 23.558-0.201567 23.558-0.256229L23.558-13.9491C23.558-14.0038 23.5699-14.0516 23.5938-14.0926 23.6178-14.1336 23.6622-14.1678 23.7271-14.1951 23.792-14.2224 23.8791-14.2429 23.9884-14.2566 24.0978-14.2703 24.2344-14.2771 24.3984-14.2771Z" stroke="#000000" stroke-width="0.999538" stroke-linejoin="round" stroke-miterlimit="10" fill-rule="evenodd" transform="matrix(1.00046 0 0 1 422.618 167.698)"/><text fill="#000000" fill-opacity="0" font-family="Arial,Arial_MSFontService,sans-serif" font-size="14.4718" x="1.56812" y="-1.61424">null</text><path d="M14.7227-10.5293 16.1483-10.5293 16.1483-3.82782C16.1483-2.49575 16.3765-1.53412 16.833-0.942924 17.2895-0.351726 18.0005-0.0561264 18.9658-0.0561264 20.021-0.0561264 20.8536-0.435915 21.4635-1.19549 22.0734-1.95507 22.3783-2.97844 22.3783-4.26561L22.3783-10.5293 23.8152-10.5293 23.8152-1.65012C23.8152-1.22356 23.8245-0.798866 23.8432-0.376047 23.8619 0.0467721 23.8788 0.471462 23.8937 0.898023L22.6028 0.898023 22.4681-1.26846 22.4232-1.26846C22.0266-0.452753 21.5233 0.14967 20.9134 0.538813 20.3035 0.927957 19.5271 1.12253 18.5842 1.12253 17.2746 1.12253 16.3036 0.748352 15.6712 0 15.0389-0.748352 14.7227-1.9083 14.7227-3.47984ZM7.0607-10.7538C8.37032-10.7538 9.34131-10.3778 9.97366-9.62568 10.606-8.87359 10.9222-7.71177 10.9222-6.14023L10.9222 0.898023 9.49659 0.898023 9.49659-5.79225C9.49659-7.11683 9.26834-8.07846 8.81185-8.67714 8.35535-9.27582 7.64442-9.57517 6.67904-9.57517 5.63883-9.57517 4.8119-9.19538 4.19826-8.4358 3.58461-7.67622 3.27778-6.64911 3.27778-5.35446L3.27778 0.898023 1.85217 0.898023 1.85217-7.98118C1.85217-8.40774 1.84282-8.83243 1.82411-9.25525 1.8054-9.67806 1.78856-10.1028 1.7736-10.5293L3.05328-10.5293 3.18798-8.35161 3.23288-8.35161C3.62951-9.16731 4.1309-9.77161 4.73707-10.1645 5.34324-10.5574 6.11778-10.7538 7.0607-10.7538ZM31.8383-15.4235 33.2639-15.4235 33.2639 0.898023 31.8383 0.898023ZM26.8406-15.4235 28.2662-15.4235 28.2662 0.898023 26.8406 0.898023Z" stroke="#000000" stroke-width="0.999538" stroke-linejoin="round" stroke-miterlimit="10" fill-rule="evenodd" transform="matrix(1.00046 0 0 1 421.118 205.456)"/><text fill="#000000" fill-opacity="0" font-family="Arial,Arial_MSFontService,sans-serif" font-size="16.5461" x="1.7736" y="-0.94573">null</text><path d="M58 408.811 134.721 439.627" stroke="#ED7D31" stroke-width="2.00029" stroke-miterlimit="8" fill="none" fill-rule="evenodd"/><text font-family="Calibri,Calibri_MSFontService,sans-serif" font-weight="400" font-size="20" transform="matrix(1 0 0 0.999538 61.221 404)">0x7788</text><path d="M405.5 125.442 405.5 143.993" stroke="#ED7D31" stroke-width="1.33353" stroke-miterlimit="8" fill="none" fill-rule="evenodd"/><text font-family="Calibri,Calibri_MSFontService,sans-serif" font-weight="400" font-size="20" transform="matrix(1 0 0 0.999538 409.284 141)">0x7788</text><path d="M0.152717-0.296173 273.911 140.863 273.605 141.455-0.152717 0.296173ZM274.406 136.994 279.681 144.213 270.74 144.102Z" transform="matrix(1.00046 0 0 -1 120.5 424.584)"/><text font-family="Calibri,Calibri_MSFontService,sans-serif" font-weight="400" font-size="20" transform="matrix(1 0 0 0.999538 486.777 320)">0x3344<tspan font-size="20" x="0" y="34.0157">0x5566</tspan></text><path d="M846.632 253.765 846.632 292.158" stroke="#000000" stroke-width="1.33353" stroke-linejoin="round" stroke-miterlimit="10" fill="none" fill-rule="evenodd"/><path d="M906.375 253.765 906.375 292.158" stroke="#000000" stroke-width="1.33353" stroke-linejoin="round" stroke-miterlimit="10" fill="none" fill-rule="evenodd"/><path d="M786.888 253.765 786.888 292.158" stroke="#000000" stroke-width="1.33353" stroke-linejoin="round" stroke-miterlimit="10" fill="none" fill-rule="evenodd"/><path d="M966.119 253.765 966.119 292.158" stroke="#000000" stroke-width="1.33353" stroke-linejoin="round" stroke-miterlimit="10" fill="none" fill-rule="evenodd"/><path d="M786.221 254.431 966.786 254.431" stroke="#000000" stroke-width="1.33353" stroke-linejoin="round" stroke-miterlimit="10" fill="none" fill-rule="evenodd"/><path d="M786.221 291.492 966.786 291.492" stroke="#000000" stroke-width="1.33353" stroke-linejoin="round" stroke-miterlimit="10" fill="none" fill-rule="evenodd"/><path d="M5.35007-12.012C4.76928-12.012 4.29782-11.8754 3.93568-11.6021 3.57354-11.3288 3.28828-10.9529 3.07988-10.4747 2.87148-9.99636 2.7297-9.43607 2.65454-8.79379 2.57937-8.15151 2.54179-7.4614 2.54179-6.72346 2.54179-5.7327 2.59304-4.89056 2.69553-4.19704 2.79802-3.50351 2.9603-2.9381 3.18237-2.5008 3.40443-2.0635 3.68799-1.74578 4.03305-1.54762 4.3781-1.34947 4.79661-1.2504 5.28857-1.2504 5.67121-1.2504 6.00772-1.31189 6.29812-1.43488 6.58851-1.55787 6.8379-1.73382 7.04631-1.96272 7.2547-2.19161 7.42723-2.46663 7.56389-2.78777 7.70054-3.10892 7.80987-3.46422 7.89186-3.85369 7.97386-4.24316 8.03023-4.66508 8.06097-5.11946 8.09172-5.57384 8.10709-6.04701 8.10709-6.53897 8.10709-7.20175 8.08318-7.7962 8.03535-8.32233 7.98752-8.84845 7.91748-9.31308 7.82524-9.71621 7.733-10.1193 7.61343-10.4661 7.46652-10.7565 7.31962-11.0469 7.14367-11.286 6.93869-11.4739 6.73371-11.6618 6.49968-11.7985 6.23662-11.8839 5.97356-11.9693 5.67804-12.012 5.35007-12.012ZM5.45256-13.4572C6.29299-13.4572 6.99848-13.3085 7.56901-13.0113 8.13955-12.7141 8.59905-12.2768 8.94753-11.6994 9.296-11.1221 9.54369-10.4114 9.69059-9.5676 9.8375-8.72375 9.91095-7.75521 9.91095-6.66196 9.91095-5.64388 9.83066-4.71462 9.67009-3.87419 9.50952-3.03375 9.24304-2.31119 8.87066-1.70649 8.49827-1.10179 8.01144-0.63374 7.41015-0.302351 6.80887 0.0290393 6.06751 0.194734 5.18608 0.194734 4.35248 0.194734 3.65041 0.0461212 3.07988-0.251105 2.50934-0.548331 2.04983-0.985629 1.70136-1.563 1.35289-2.14037 1.1052-2.85098 0.958298-3.69483 0.811393-4.53867 0.73794-5.50722 0.73794-6.60047 0.73794-7.61172 0.819934-8.53927 0.983921-9.38312 1.14791-10.227 1.41439-10.9512 1.78336-11.5559 2.15233-12.1606 2.63745-12.6287 3.23874-12.9601 3.84002-13.2915 4.57796-13.4572 5.45256-13.4572Z" stroke="#000000" stroke-width="0.999538" stroke-linejoin="round" stroke-miterlimit="10" fill-rule="evenodd" transform="matrix(1.00046 0 0 1 811.343 278.83)"/><text fill="#000000" fill-opacity="0" font-family="Arial,Arial_MSFontService,sans-serif" font-size="13.6519" x="0.73794" y="-1.51175">0</text><path d="M6.16268-13.9643C4.86055-13.9643 3.92698-13.4086 3.36197-12.2973 2.79697-11.186 2.51446-9.4255 2.51446-7.0158 2.51446-4.65849 2.80632-2.91296 3.39004-1.77921 3.97375-0.645454 4.883-0.078577 6.11778-0.078577 7.34508-0.078577 8.25245-0.660421 8.83991-1.82411 9.42737-2.9878 9.72109-4.71836 9.72109-7.0158 9.72109-9.43298 9.44233-11.1953 8.88481-12.3029 8.32729-13.4105 7.41991-13.9643 6.16268-13.9643ZM6.17391-15.1541C7.8577-15.1541 9.10932-14.4806 9.92876-13.1336 10.7482-11.7865 11.1579-9.74729 11.1579-7.0158 11.1579-4.37412 10.7314-2.35731 9.87825-0.965374 9.02513 0.426561 7.76415 1.12253 6.09533 1.12253 4.44147 1.12253 3.19359 0.441528 2.3517-0.920473 1.5098-2.28247 1.08885-4.31425 1.08885-7.0158 1.08885-9.76225 1.49858-11.8053 2.31802-13.1448 3.13747-14.4844 4.42276-15.1541 6.17391-15.1541Z" stroke="#000000" stroke-width="0.999538" stroke-linejoin="round" stroke-miterlimit="10" fill-rule="evenodd" transform="matrix(1.00046 0 0 1 870.503 279.829)"/><text fill="#000000" fill-opacity="0" font-family="Arial,Arial_MSFontService,sans-serif" font-size="16.2767" x="1.08885" y="-0.912054">0</text><path d="M6.16268-13.9643C4.86055-13.9643 3.92698-13.4086 3.36197-12.2973 2.79697-11.186 2.51446-9.4255 2.51446-7.0158 2.51446-4.65849 2.80632-2.91296 3.39004-1.77921 3.97375-0.645454 4.883-0.078577 6.11778-0.078577 7.34508-0.078577 8.25245-0.660421 8.83991-1.82411 9.42737-2.9878 9.72109-4.71836 9.72109-7.0158 9.72109-9.43298 9.44233-11.1953 8.88481-12.3029 8.32729-13.4105 7.41991-13.9643 6.16268-13.9643ZM6.17391-15.1541C7.8577-15.1541 9.10932-14.4806 9.92876-13.1336 10.7482-11.7865 11.1579-9.74729 11.1579-7.0158 11.1579-4.37412 10.7314-2.35731 9.87825-0.965374 9.02513 0.426561 7.76415 1.12253 6.09533 1.12253 4.44147 1.12253 3.19359 0.441528 2.3517-0.920473 1.5098-2.28247 1.08885-4.31425 1.08885-7.0158 1.08885-9.76225 1.49858-11.8053 2.31802-13.1448 3.13747-14.4844 4.42276-15.1541 6.17391-15.1541Z" stroke="#000000" stroke-width="0.999538" stroke-linejoin="round" stroke-miterlimit="10" fill-rule="evenodd" transform="matrix(1.00046 0 0 1 930.246 279.829)"/><text fill="#000000" fill-opacity="0" font-family="Arial,Arial_MSFontService,sans-serif" font-size="16.2767" x="1.08885" y="-0.912054">0</text><path d="M787.5 236.391 787.5 254.941" stroke="#ED7D31" stroke-width="1.33353" stroke-miterlimit="8" fill="none" fill-rule="evenodd"/><path d="M846.632 363.359 846.632 401.753" stroke="#000000" stroke-width="1.33353" stroke-linejoin="round" stroke-miterlimit="10" fill="none" fill-rule="evenodd"/><path d="M906.375 363.359 906.375 401.753" stroke="#000000" stroke-width="1.33353" stroke-linejoin="round" stroke-miterlimit="10" fill="none" fill-rule="evenodd"/><path d="M786.888 363.359 786.888 401.753" stroke="#000000" stroke-width="1.33353" stroke-linejoin="round" stroke-miterlimit="10" fill="none" fill-rule="evenodd"/><path d="M966.119 363.359 966.119 401.753" stroke="#000000" stroke-width="1.33353" stroke-linejoin="round" stroke-miterlimit="10" fill="none" fill-rule="evenodd"/><path d="M786.221 364.026 966.786 364.026" stroke="#000000" stroke-width="1.33353" stroke-linejoin="round" stroke-miterlimit="10" fill="none" fill-rule="evenodd"/><path d="M786.221 401.086 966.786 401.086" stroke="#000000" stroke-width="1.33353" stroke-linejoin="round" stroke-miterlimit="10" fill="none" fill-rule="evenodd"/><path d="M5.35007-12.012C4.76928-12.012 4.29782-11.8754 3.93568-11.6021 3.57354-11.3288 3.28828-10.9529 3.07988-10.4747 2.87148-9.99636 2.7297-9.43607 2.65454-8.79379 2.57937-8.15151 2.54179-7.4614 2.54179-6.72346 2.54179-5.7327 2.59304-4.89056 2.69553-4.19704 2.79802-3.50351 2.9603-2.9381 3.18237-2.5008 3.40443-2.0635 3.68799-1.74578 4.03305-1.54762 4.3781-1.34947 4.79661-1.2504 5.28857-1.2504 5.67121-1.2504 6.00772-1.31189 6.29812-1.43488 6.58851-1.55787 6.8379-1.73382 7.04631-1.96272 7.2547-2.19161 7.42723-2.46663 7.56389-2.78777 7.70054-3.10892 7.80987-3.46422 7.89186-3.85369 7.97386-4.24316 8.03023-4.66508 8.06097-5.11946 8.09172-5.57384 8.10709-6.04701 8.10709-6.53897 8.10709-7.20175 8.08318-7.7962 8.03535-8.32233 7.98752-8.84845 7.91748-9.31308 7.82524-9.71621 7.733-10.1193 7.61343-10.4661 7.46652-10.7565 7.31962-11.0469 7.14367-11.286 6.93869-11.4739 6.73371-11.6618 6.49968-11.7985 6.23662-11.8839 5.97356-11.9693 5.67804-12.012 5.35007-12.012ZM5.45256-13.4572C6.29299-13.4572 6.99848-13.3085 7.56901-13.0113 8.13955-12.7141 8.59905-12.2768 8.94753-11.6994 9.296-11.1221 9.54369-10.4114 9.69059-9.5676 9.8375-8.72375 9.91095-7.75521 9.91095-6.66196 9.91095-5.64388 9.83066-4.71462 9.67009-3.87419 9.50952-3.03375 9.24304-2.31119 8.87066-1.70649 8.49827-1.10179 8.01144-0.63374 7.41015-0.302351 6.80887 0.0290393 6.06751 0.194734 5.18608 0.194734 4.35248 0.194734 3.65041 0.0461212 3.07988-0.251105 2.50934-0.548331 2.04983-0.985629 1.70136-1.563 1.35289-2.14037 1.1052-2.85098 0.958298-3.69483 0.811393-4.53867 0.73794-5.50722 0.73794-6.60047 0.73794-7.61172 0.819934-8.53927 0.983921-9.38312 1.14791-10.227 1.41439-10.9512 1.78336-11.5559 2.15233-12.1606 2.63745-12.6287 3.23874-12.9601 3.84002-13.2915 4.57796-13.4572 5.45256-13.4572Z" stroke="#000000" stroke-width="0.999538" stroke-linejoin="round" stroke-miterlimit="10" fill-rule="evenodd" transform="matrix(1.00046 0 0 1 811.343 388.374)"/><text fill="#000000" fill-opacity="0" font-family="Arial,Arial_MSFontService,sans-serif" font-size="13.6519" x="0.73794" y="-1.51175">0</text><path d="M6.16268-13.9643C4.86055-13.9643 3.92698-13.4086 3.36197-12.2973 2.79697-11.186 2.51446-9.4255 2.51446-7.0158 2.51446-4.65849 2.80632-2.91296 3.39004-1.77921 3.97375-0.645454 4.883-0.078577 6.11778-0.078577 7.34508-0.078577 8.25245-0.660421 8.83991-1.82411 9.42737-2.9878 9.72109-4.71836 9.72109-7.0158 9.72109-9.43298 9.44233-11.1953 8.88481-12.3029 8.32729-13.4105 7.41991-13.9643 6.16268-13.9643ZM6.17391-15.1541C7.8577-15.1541 9.10932-14.4806 9.92876-13.1336 10.7482-11.7865 11.1579-9.74729 11.1579-7.0158 11.1579-4.37412 10.7314-2.35731 9.87825-0.965374 9.02513 0.426561 7.76415 1.12253 6.09533 1.12253 4.44147 1.12253 3.19359 0.441528 2.3517-0.920473 1.5098-2.28247 1.08885-4.31425 1.08885-7.0158 1.08885-9.76225 1.49858-11.8053 2.31802-13.1448 3.13747-14.4844 4.42276-15.1541 6.17391-15.1541Z" stroke="#000000" stroke-width="0.999538" stroke-linejoin="round" stroke-miterlimit="10" fill-rule="evenodd" transform="matrix(1.00046 0 0 1 870.503 389.373)"/><text fill="#000000" fill-opacity="0" font-family="Arial,Arial_MSFontService,sans-serif" font-size="16.2767" x="1.08885" y="-0.912054">0</text><path d="M6.16268-13.9643C4.86055-13.9643 3.92698-13.4086 3.36197-12.2973 2.79697-11.186 2.51446-9.4255 2.51446-7.0158 2.51446-4.65849 2.80632-2.91296 3.39004-1.77921 3.97375-0.645454 4.883-0.078577 6.11778-0.078577 7.34508-0.078577 8.25245-0.660421 8.83991-1.82411 9.42737-2.9878 9.72109-4.71836 9.72109-7.0158 9.72109-9.43298 9.44233-11.1953 8.88481-12.3029 8.32729-13.4105 7.41991-13.9643 6.16268-13.9643ZM6.17391-15.1541C7.8577-15.1541 9.10932-14.4806 9.92876-13.1336 10.7482-11.7865 11.1579-9.74729 11.1579-7.0158 11.1579-4.37412 10.7314-2.35731 9.87825-0.965374 9.02513 0.426561 7.76415 1.12253 6.09533 1.12253 4.44147 1.12253 3.19359 0.441528 2.3517-0.920473 1.5098-2.28247 1.08885-4.31425 1.08885-7.0158 1.08885-9.76225 1.49858-11.8053 2.31802-13.1448 3.13747-14.4844 4.42276-15.1541 6.17391-15.1541Z" stroke="#000000" stroke-width="0.999538" stroke-linejoin="round" stroke-miterlimit="10" fill-rule="evenodd" transform="matrix(1.00046 0 0 1 930.246 389.373)"/><text fill="#000000" fill-opacity="0" font-family="Arial,Arial_MSFontService,sans-serif" font-size="16.2767" x="1.08885" y="-0.912054">0</text><path d="M787.5 346.34 787.5 364.891" stroke="#ED7D31" stroke-width="1.33353" stroke-miterlimit="8" fill="none" fill-rule="evenodd"/><text font-family="Calibri,Calibri_MSFontService,sans-serif" font-weight="400" font-size="20" transform="matrix(1 0 0 0.999538 794.026 251)">0x3344<tspan font-size="20" x="0" y="111.051">0x5566</tspan></text><path d="M0.0931598-0.319941 227.448 65.8808 227.262 66.5207-0.0931598 0.319941ZM227.194 61.9891 233.755 68.0642 224.958 69.6677Z" transform="matrix(1.00046 0 0 -1 551.5 313.451)"/><path d="M551.511 347.006 777.985 354.813 777.962 355.479 551.488 347.673ZM776.779 351.104 784.638 355.376 776.503 359.096Z"/><path d="M804 375.826 832.128 392.243" stroke="#ED7D31" stroke-width="2.00029" stroke-miterlimit="8" fill="none" fill-rule="evenodd"/><path d="M862 374.827 890.128 391.244" stroke="#ED7D31" stroke-width="2.00029" stroke-miterlimit="8" fill="none" fill-rule="evenodd"/><path d="M924 374.827 952.128 391.244" stroke="#ED7D31" stroke-width="2.00029" stroke-miterlimit="8" fill="none" fill-rule="evenodd"/><text font-family="Calibri,Calibri_MSFontService,sans-serif" font-weight="700" font-size="23" transform="matrix(1 0 0 0.999538 813.132 428)">1<tspan font-size="23" x="58.9086" y="0">2</tspan><tspan font-size="23" x="120.396" y="-1.00046">3</tspan></text><path d="M0.228078-0.242943 275.051 257.764 274.594 258.25-0.228078 0.242943ZM276.587 254.179 279.681 262.568 271.114 260.009Z" transform="matrix(1.00046 0 0 -1 120.5 397.006)"/><path d="M233.467 351.624 239.787 345.307 246.5 352.017 253.213 345.307 259.533 351.624 252.82 358.334 259.533 365.045 253.213 371.362 246.5 364.651 239.787 371.362 233.467 365.045 240.18 358.334Z" stroke="#AE5A21" stroke-width="1.33353" stroke-miterlimit="8" fill="#ED7D31" fill-rule="evenodd"/><path d="M924 266.877 952.128 283.294" stroke="#ED7D31" stroke-width="2.00029" stroke-miterlimit="8" fill="none" fill-rule="evenodd"/><text font-family="Calibri,Calibri_MSFontService,sans-serif" font-weight="700" font-size="23" transform="matrix(1 0 0 0.999538 933.528 315)">5<tspan font-family="DengXian,DengXian_MSFontService,sans-serif" font-weight="400" font-size="23" x="-101.933" y="175.081">堆</tspan><tspan font-weight="400" font-size="23" x="-79.2631" y="175.081">heap</tspan><tspan font-family="DengXian,DengXian_MSFontService,sans-serif" font-weight="400" font-size="23" x="-33.423" y="175.081">：</tspan><tspan font-weight="400" font-size="23" x="-101.933" y="202.093">new</tspan><tspan font-family="DengXian,DengXian_MSFontService,sans-serif" font-weight="400" font-size="23" x="-62.7073" y="202.093">出来的结构：对象、数组</tspan></text></g></svg>