<svg id="SvgjsSvg1208" width="1130.65625" height="785.390625" xmlns="http://www.w3.org/2000/svg" version="1.1" xmlns:xlink="http://www.w3.org/1999/xlink" xmlns:svgjs="http://svgjs.com/svgjs"><defs id="SvgjsDefs1209"><marker id="SvgjsMarker1222" markerWidth="14" markerHeight="10" refX="10" refY="5" viewBox="0 0 14 10" orient="auto" markerUnits="userSpaceOnUse" stroke-dasharray="0,0"><path id="SvgjsPath1223" d="M0,0 L14,5 L0,10 L0,0" fill="#323232" stroke="#323232" stroke-width="1"></path></marker><marker id="SvgjsMarker1232" markerWidth="14" markerHeight="10" refX="10" refY="5" viewBox="0 0 14 10" orient="auto" markerUnits="userSpaceOnUse" stroke-dasharray="0,0"><path id="SvgjsPath1233" d="M0,0 L14,5 L0,10 L0,0" fill="#323232" stroke="#323232" stroke-width="1"></path></marker><marker id="SvgjsMarker1244" markerWidth="14" markerHeight="10" refX="10" refY="5" viewBox="0 0 14 10" orient="auto" markerUnits="userSpaceOnUse" stroke-dasharray="0,0"><path id="SvgjsPath1245" d="M0,0 L14,5 L0,10 L0,0" fill="#323232" stroke="#323232" stroke-width="1"></path></marker><marker id="SvgjsMarker1250" markerWidth="14" markerHeight="10" refX="10" refY="5" viewBox="0 0 14 10" orient="auto" markerUnits="userSpaceOnUse" stroke-dasharray="0,0"><path id="SvgjsPath1251" d="M0,0 L14,5 L0,10 L0,0" fill="#323232" stroke="#323232" stroke-width="1"></path></marker><marker id="SvgjsMarker1286" markerWidth="14" markerHeight="10" refX="4" refY="5" viewBox="0 0 14 10" orient="auto" markerUnits="userSpaceOnUse" stroke-dasharray="0,0"><path id="SvgjsPath1287" d="M14,0 L0,5 L14,10 L14,0" fill="#323232" stroke="#323232" stroke-width="1"></path></marker><marker id="SvgjsMarker1290" markerWidth="14" markerHeight="10" refX="4" refY="5" viewBox="0 0 14 10" orient="auto" markerUnits="userSpaceOnUse" stroke-dasharray="0,0"><path id="SvgjsPath1291" d="M14,0 L0,5 L14,10 L14,0" fill="#323232" stroke="#323232" stroke-width="1"></path></marker><marker id="SvgjsMarker1294" markerWidth="14" markerHeight="10" refX="4" refY="5" viewBox="0 0 14 10" orient="auto" markerUnits="userSpaceOnUse" stroke-dasharray="0,0"><path id="SvgjsPath1295" d="M14,0 L0,5 L14,10 L14,0" fill="#323232" stroke="#323232" stroke-width="1"></path></marker><marker id="SvgjsMarker1298" markerWidth="14" markerHeight="10" refX="4" refY="5" viewBox="0 0 14 10" orient="auto" markerUnits="userSpaceOnUse" stroke-dasharray="0,0"><path id="SvgjsPath1299" d="M14,0 L0,5 L14,10 L14,0" fill="#323232" stroke="#323232" stroke-width="1"></path></marker><marker id="SvgjsMarker1302" markerWidth="14" markerHeight="10" refX="4" refY="5" viewBox="0 0 14 10" orient="auto" markerUnits="userSpaceOnUse" stroke-dasharray="0,0"><path id="SvgjsPath1303" d="M14,0 L0,5 L14,10 L14,0" fill="#323232" stroke="#323232" stroke-width="1"></path></marker><marker id="SvgjsMarker1308" markerWidth="14" markerHeight="10" refX="10" refY="5" viewBox="0 0 14 10" orient="auto" markerUnits="userSpaceOnUse" stroke-dasharray="0,0"><path id="SvgjsPath1309" d="M0,0 L14,5 L0,10 L0,0" fill="#323232" stroke="#323232" stroke-width="1"></path></marker><marker id="SvgjsMarker1312" markerWidth="14" markerHeight="10" refX="10" refY="5" viewBox="0 0 14 10" orient="auto" markerUnits="userSpaceOnUse" stroke-dasharray="0,0"><path id="SvgjsPath1313" d="M0,0 L14,5 L0,10 L0,0" fill="#323232" stroke="#323232" stroke-width="1"></path></marker><marker id="SvgjsMarker1316" markerWidth="14" markerHeight="10" refX="10" refY="5" viewBox="0 0 14 10" orient="auto" markerUnits="userSpaceOnUse" stroke-dasharray="0,0"><path id="SvgjsPath1317" d="M0,0 L14,5 L0,10 L0,0" fill="#323232" stroke="#323232" stroke-width="1"></path></marker><marker id="SvgjsMarker1320" markerWidth="14" markerHeight="10" refX="10" refY="5" viewBox="0 0 14 10" orient="auto" markerUnits="userSpaceOnUse" stroke-dasharray="0,0"><path id="SvgjsPath1321" d="M0,0 L14,5 L0,10 L0,0" fill="#323232" stroke="#323232" stroke-width="1"></path></marker><marker id="SvgjsMarker1326" markerWidth="14" markerHeight="10" refX="4" refY="5" viewBox="0 0 14 10" orient="auto" markerUnits="userSpaceOnUse" stroke-dasharray="0,0"><path id="SvgjsPath1327" d="M14,0 L0,5 L14,10 L14,0" fill="#323232" stroke="#323232" stroke-width="1"></path></marker><marker id="SvgjsMarker1330" markerWidth="14" markerHeight="10" refX="10" refY="5" viewBox="0 0 14 10" orient="auto" markerUnits="userSpaceOnUse" stroke-dasharray="0,0"><path id="SvgjsPath1331" d="M0,0 L14,5 L0,10 L0,0" fill="#323232" stroke="#323232" stroke-width="1"></path></marker><marker id="SvgjsMarker1340" markerWidth="14" markerHeight="10" refX="10" refY="5" viewBox="0 0 14 10" orient="auto" markerUnits="userSpaceOnUse" stroke-dasharray="0,0"><path id="SvgjsPath1341" d="M0,0 L14,5 L0,10 L0,0" fill="#323232" stroke="#323232" stroke-width="1"></path></marker><marker id="SvgjsMarker1366" markerWidth="14" markerHeight="10" refX="10" refY="5" viewBox="0 0 14 10" orient="auto" markerUnits="userSpaceOnUse" stroke-dasharray="0,0"><path id="SvgjsPath1367" d="M0,0 L14,5 L0,10 L0,0" fill="#323232" stroke="#323232" stroke-width="1"></path></marker><marker id="SvgjsMarker1370" markerWidth="14" markerHeight="10" refX="10" refY="5" viewBox="0 0 14 10" orient="auto" markerUnits="userSpaceOnUse" stroke-dasharray="0,0"><path id="SvgjsPath1371" d="M0,0 L14,5 L0,10 L0,0" fill="#323232" stroke="#323232" stroke-width="1"></path></marker><marker id="SvgjsMarker1404" markerWidth="14" markerHeight="10" refX="10" refY="5" viewBox="0 0 14 10" orient="auto" markerUnits="userSpaceOnUse" stroke-dasharray="0,0"><path id="SvgjsPath1405" d="M0,0 L14,5 L0,10 L0,0" fill="#323232" stroke="#323232" stroke-width="1"></path></marker><marker id="SvgjsMarker1408" markerWidth="14" markerHeight="10" refX="10" refY="5" viewBox="0 0 14 10" orient="auto" markerUnits="userSpaceOnUse" stroke-dasharray="0,0"><path id="SvgjsPath1409" d="M0,0 L14,5 L0,10 L0,0" fill="#323232" stroke="#323232" stroke-width="1"></path></marker></defs><g id="SvgjsG1210" transform="translate(499.9114532470702,25.00098458822687)"><path id="SvgjsPath1211" d="M 0 20C 0 -6.666666666666667 40 -6.666666666666667 40 20C 40 46.666666666666664 0 46.666666666666664 0 20Z" stroke="none" fill-opacity="1" fill="#323232"></path><g id="SvgjsG1212"><text id="SvgjsText1213" font-family="微软雅黑" text-anchor="middle" font-size="13px" width="80px" fill="#323232" font-weight="400" align="middle" lineHeight="125%" anchor="middle" family="微软雅黑" size="13px" weight="400" font-style="" opacity="1" y="44.375" transform="rotate(0)"></text></g></g><g id="SvgjsG1214" transform="translate(436.9114532470702,100.5565501621792)"><path id="SvgjsPath1215" d="M 0 18Q 0 0 18 0L 148 0Q 166 0 166 18L 166 32Q 166 50 148 50L 18 50Q 0 50 0 32L 0 18Z" stroke="rgba(50,50,50,1)" stroke-width="2" fill-opacity="1" fill="#ffffff"></path><g id="SvgjsG1216"><text id="SvgjsText1217" font-family="&quot;Times New Roman&quot;" text-anchor="middle" font-size="18px" width="146px" fill="#323232" font-weight="700" align="middle" lineHeight="125%" anchor="middle" family="&quot;Times New Roman&quot;" size="18px" weight="700" font-style="" opacity="1" y="9.25" transform="rotate(0)"><tspan id="SvgjsTspan1218" dy="22" x="83"><tspan id="SvgjsTspan1219" style="text-decoration:;">loopFlag = true</tspan></tspan></text></g></g><g id="SvgjsG1220"><path id="SvgjsPath1221" d="M519.9114532470702 66.00098458822686L519.9114532470702 82.77876737520303L519.9114532470702 82.77876737520303L519.9114532470702 96.95655016217921" stroke="#323232" stroke-width="2" fill="none" marker-end="url(#SvgjsMarker1222)"></path></g><g id="SvgjsG1224" transform="translate(436.9114532470701,184.86211573613147)"><path id="SvgjsPath1225" d="M 0 18Q 0 0 18 0L 148 0Q 166 0 166 18L 166 32Q 166 50 148 50L 18 50Q 0 50 0 32L 0 18Z" stroke="rgba(50,50,50,1)" stroke-width="2" fill-opacity="1" fill="#ffffff"></path><g id="SvgjsG1226"><text id="SvgjsText1227" font-family="宋体" text-anchor="middle" font-size="18px" width="146px" fill="#323232" font-weight="700" align="middle" lineHeight="125%" anchor="middle" family="宋体" size="18px" weight="700" font-style="" opacity="1" y="9.25" transform="rotate(0)"><tspan id="SvgjsTspan1228" dy="22" x="83"><tspan id="SvgjsTspan1229" style="text-decoration:;">显示主菜单</tspan></tspan></text></g></g><g id="SvgjsG1230"><path id="SvgjsPath1231" d="M519.9114532470702 151.5565501621792L519.9114532470702 167.70933294915534L519.9114532470703 167.70933294915534L519.9114532470703 181.26211573613148" stroke="#323232" stroke-width="2" fill="none" marker-end="url(#SvgjsMarker1232)"></path></g><g id="SvgjsG1234" transform="translate(436.9114532470704,269.16768131008365)"><path id="SvgjsPath1235" d="M 0 18Q 0 0 18 0L 148 0Q 166 0 166 18L 166 32Q 166 50 148 50L 18 50Q 0 50 0 32L 0 18Z" stroke="rgba(50,50,50,1)" stroke-width="2" fill-opacity="1" fill="#ffffff"></path><g id="SvgjsG1236"><text id="SvgjsText1237" font-family="宋体" text-anchor="middle" font-size="18px" width="146px" fill="#323232" font-weight="700" align="middle" lineHeight="125%" anchor="middle" family="宋体" size="18px" weight="700" font-style="" opacity="1" y="-1.75" transform="rotate(0)"><tspan id="SvgjsTspan1238" dy="22" x="83"><tspan id="SvgjsTspan1239" style="text-decoration:;">从键盘读取</tspan></tspan><tspan id="SvgjsTspan1240" dy="22" x="83"><tspan id="SvgjsTspan1241" style="text-decoration:;">用户选择</tspan></tspan></text></g></g><g id="SvgjsG1242"><path id="SvgjsPath1243" d="M519.9114532470701 235.86211573613133L519.9114532470701 252.0148985231075L519.9114532470704 252.0148985231075L519.9114532470704 265.56768131008363" stroke="#323232" stroke-width="2" fill="none" marker-end="url(#SvgjsMarker1244)"></path></g><g id="SvgjsG1246" transform="translate(25.00236233797932,352.2232468840359)"><path id="SvgjsPath1247" d="M 0 4Q 0 0 4 0L 985.818181818182 0Q 989.818181818182 0 989.818181818182 4L 989.818181818182 16Q 989.818181818182 20 985.818181818182 20L 4 20Q 0 20 0 16Z" stroke="none" fill-opacity="1" fill="#323232"></path></g><g id="SvgjsG1248"><path id="SvgjsPath1249" d="M519.9114532470704 320.16768131008365L519.9114532470704 335.69546409705976L519.9114532470702 335.69546409705976L519.9114532470702 352.2232468840359" stroke="#323232" stroke-width="2" fill="none" marker-end="url(#SvgjsMarker1250)"></path></g><g id="SvgjsG1252" transform="translate(40.91145324707031,416.11211573613133)"><path id="SvgjsPath1253" d="M 0 18Q 0 0 18 0L 148 0Q 166 0 166 18L 166 32Q 166 50 148 50L 18 50Q 0 50 0 32L 0 18Z" stroke="rgba(50,50,50,1)" stroke-width="2" fill-opacity="1" fill="#ffffff"></path><g id="SvgjsG1254"><text id="SvgjsText1255" font-family="宋体" text-anchor="middle" font-size="16px" width="146px" fill="#323232" font-weight="700" align="middle" lineHeight="125%" anchor="middle" family="宋体" size="16px" weight="700" font-style="" opacity="1" y="11" transform="rotate(0)"><tspan id="SvgjsTspan1256" dy="20" x="83"><tspan id="SvgjsTspan1257" style="text-decoration:;">addNewCustomer()</tspan></tspan></text></g></g><g id="SvgjsG1258" transform="translate(238.9114532470703,416.11211573613133)"><path id="SvgjsPath1259" d="M 0 18Q 0 0 18 0L 148 0Q 166 0 166 18L 166 32Q 166 50 148 50L 18 50Q 0 50 0 32L 0 18Z" stroke="rgba(50,50,50,1)" stroke-width="2" fill-opacity="1" fill="#ffffff"></path><g id="SvgjsG1260"><text id="SvgjsText1261" font-family="宋体" text-anchor="middle" font-size="16px" width="146px" fill="#323232" font-weight="700" align="middle" lineHeight="125%" anchor="middle" family="宋体" size="16px" weight="700" font-style="" opacity="1" y="11" transform="rotate(0)"><tspan id="SvgjsTspan1262" dy="20" x="83"><tspan id="SvgjsTspan1263" style="text-decoration:;">modifyCustomer()</tspan></tspan></text></g></g><g id="SvgjsG1264" transform="translate(436.9114532470702,416.11211573613133)"><path id="SvgjsPath1265" d="M 0 18Q 0 0 18 0L 148 0Q 166 0 166 18L 166 32Q 166 50 148 50L 18 50Q 0 50 0 32L 0 18Z" stroke="rgba(50,50,50,1)" stroke-width="2" fill-opacity="1" fill="#ffffff"></path><g id="SvgjsG1266"><text id="SvgjsText1267" font-family="宋体" text-anchor="middle" font-size="16px" width="146px" fill="#323232" font-weight="700" align="middle" lineHeight="125%" anchor="middle" family="宋体" size="16px" weight="700" font-style="" opacity="1" y="11" transform="rotate(0)"><tspan id="SvgjsTspan1268" dy="20" x="83"><tspan id="SvgjsTspan1269" style="text-decoration:;">deleteCustomer()</tspan></tspan></text></g></g><g id="SvgjsG1270" transform="translate(634.9114532470702,416.1121157361314)"><path id="SvgjsPath1271" d="M 0 18Q 0 0 18 0L 148 0Q 166 0 166 18L 166 32Q 166 50 148 50L 18 50Q 0 50 0 32L 0 18Z" stroke="rgba(50,50,50,1)" stroke-width="2" fill-opacity="1" fill="#ffffff"></path><g id="SvgjsG1272"><text id="SvgjsText1273" font-family="宋体" text-anchor="middle" font-size="14px" width="146px" fill="#323232" font-weight="700" align="middle" lineHeight="125%" anchor="middle" family="宋体" size="14px" weight="700" font-style="" opacity="1" y="13.25" transform="rotate(0)"><tspan id="SvgjsTspan1274" dy="17" x="83"><tspan id="SvgjsTspan1275" style="text-decoration:;">listAllCustomer()</tspan></tspan></text></g></g><g id="SvgjsG1276" transform="translate(832.9114532470705,416.11211573613133)"><path id="SvgjsPath1277" d="M 0 18Q 0 0 18 0L 148 0Q 166 0 166 18L 166 32Q 166 50 148 50L 18 50Q 0 50 0 32L 0 18Z" stroke="rgba(50,50,50,1)" stroke-width="2" fill-opacity="1" fill="#ffffff"></path><g id="SvgjsG1278"><text id="SvgjsText1279" font-family="宋体" text-anchor="middle" font-size="18px" width="146px" fill="#323232" font-weight="700" align="middle" lineHeight="125%" anchor="middle" family="宋体" size="18px" weight="700" font-style="" opacity="1" y="-1.75" transform="rotate(0)"><tspan id="SvgjsTspan1280" dy="22" x="83"><tspan id="SvgjsTspan1281" style="text-decoration:;">从键盘读取</tspan></tspan><tspan id="SvgjsTspan1282" dy="22" x="83"><tspan id="SvgjsTspan1283" style="text-decoration:;">用户选择</tspan></tspan></text></g></g><g id="SvgjsG1284"><path id="SvgjsPath1285" d="M123.91145324707031 412.5121157361313L123.91145324707031 389.3931522150818L123.91145324707031 389.3931522150818L123.91145324707031 362.6741886940323" stroke="#323232" stroke-width="2" fill="none" marker-start="url(#SvgjsMarker1286)"></path></g><g id="SvgjsG1288"><path id="SvgjsPath1289" d="M321.9114532470702 412.5121157361313L321.9114532470702 392.26025534295405L321.9114532470702 392.26025534295405L321.9114532470702 368.4083949497768" stroke="#323232" stroke-width="2" fill="none" marker-start="url(#SvgjsMarker1290)"></path></g><g id="SvgjsG1292"><path id="SvgjsPath1293" d="M519.9114532470702 412.5121157361313L519.9114532470702 389.9269220096207L519.9114532470702 389.9269220096207L519.9114532470702 363.7417282831101" stroke="#323232" stroke-width="2" fill="none" marker-start="url(#SvgjsMarker1294)"></path></g><g id="SvgjsG1296"><path id="SvgjsPath1297" d="M717.9114532470702 412.51211573613136L717.9114532470702 392.92692200962074L717.9114532470702 392.92692200962074L717.9114532470702 370.7417282831101" stroke="#323232" stroke-width="2" fill="none" marker-start="url(#SvgjsMarker1298)"></path></g><g id="SvgjsG1300"><path id="SvgjsPath1301" d="M915.9114532470705 412.5121157361313L915.9114532470705 388.86210839572914L915.9114532470705 388.86210839572914L915.9114532470705 361.61210105532695" stroke="#323232" stroke-width="2" fill="none" marker-start="url(#SvgjsMarker1302)"></path></g><g id="SvgjsG1304" transform="translate(25.002362337979378,589.8422945030833)"><path id="SvgjsPath1305" d="M 0 4Q 0 0 4 0L 985.818181818182 0Q 989.818181818182 0 989.818181818182 4L 989.818181818182 16Q 989.818181818182 20 985.818181818182 20L 4 20Q 0 20 0 16Z" stroke="none" fill-opacity="1" fill="#323232"></path></g><g id="SvgjsG1306"><path id="SvgjsPath1307" d="M123.91145324707031 467.1121157361313L123.91145324707031 528.3949377381953L123.91145324707031 528.3949377381953L123.91145324707031 587.0777597402594" stroke="#323232" stroke-width="2" fill="none" marker-end="url(#SvgjsMarker1308)"></path></g><g id="SvgjsG1310"><path id="SvgjsPath1311" d="M321.9114532470702 467.1121157361313L321.9114532470702 528.1951375383951L321.9114532470702 528.1951375383951L321.9114532470702 586.6781593406592" stroke="#323232" stroke-width="2" fill="none" marker-end="url(#SvgjsMarker1312)"></path></g><g id="SvgjsG1314"><path id="SvgjsPath1315" d="M519.9114532470702 467.11211573613116L519.9114532470702 528.1951375383951L519.9114532470702 528.1951375383951L519.9114532470702 586.6781593406592" stroke="#323232" stroke-width="2" fill="none" marker-end="url(#SvgjsMarker1316)"></path></g><g id="SvgjsG1318"><path id="SvgjsPath1319" d="M717.9114532470702 467.1121157361313L717.9114532470702 528.1951375383951L717.9114532470702 528.1951375383951L717.9114532470702 586.6781593406592" stroke="#323232" stroke-width="2" fill="none" marker-end="url(#SvgjsMarker1320)"></path></g><g id="SvgjsG1322" transform="translate(489.16541835239934,647.2629194053216)"><path id="SvgjsPath1323" d="M 0 17.857142857142833L 30.7460348946708 0L 61.4920697893416 17.857142857142833L 30.7460348946708 35.714285714285666L 0 17.857142857142833Z" stroke="rgba(50,50,50,1)" stroke-width="2" fill-opacity="1" fill="#ffffff"></path></g><g id="SvgjsG1324"><path id="SvgjsPath1325" d="M519.9114532470701 643.6629194053215L519.9114532470701 627.9890973805346L519.9114532470702 627.9890973805346L519.9114532470702 609.7152753557477" stroke="#323232" stroke-width="2" fill="none" marker-start="url(#SvgjsMarker1326)"></path></g><g id="SvgjsG1328"><path id="SvgjsPath1329" d="M551.6574881417409 665.1200622624644L1105.7685961042134 665.1200622624644L1105.7685961042134 209.86211573613136L606.5114532470701 209.86211573613136" stroke="#323232" stroke-width="2" fill="none" marker-end="url(#SvgjsMarker1330)"></path></g><g id="SvgjsG1332" transform="translate(499.91145324707054,720.3978300218456)"><path id="SvgjsPath1333" d="M 0 20C 0 -6.666666666666667 40 -6.666666666666667 40 20C 40 46.666666666666664 0 46.666666666666664 0 20Z" stroke="rgba(50,50,50,1)" stroke-width="4" fill-opacity="1" fill="#ffffff"></path><path id="SvgjsPath1334" d="M 10 20C 10 6.666666666666666 30 6.666666666666666 30 20C 30 33.333333333333336 10 33.333333333333336 10 20Z" stroke="none" fill-opacity="1" fill="#323232"></path><path id="SvgjsPath1335" d="M 0 20C 0 -6.666666666666667 40 -6.666666666666667 40 20C 40 46.666666666666664 0 46.666666666666664 0 20Z" stroke="none" fill="none"></path><g id="SvgjsG1336"><text id="SvgjsText1337" font-family="微软雅黑" text-anchor="middle" font-size="13px" width="80px" fill="#323232" font-weight="400" align="middle" lineHeight="125%" anchor="middle" family="微软雅黑" size="13px" weight="400" font-style="" opacity="1" y="44.375" transform="rotate(0)"></text></g></g><g id="SvgjsG1338"><path id="SvgjsPath1339" d="M519.9114532470701 683.9772051196072L519.9114532470701 701.6875175707264L519.9114532470704 701.6875175707264L519.9114532470704 716.7978300218456" stroke="#323232" stroke-width="2" fill="none" marker-end="url(#SvgjsMarker1340)"></path></g><g id="SvgjsG1342" transform="translate(507.47936333550376,675.9330912998741)"><path id="SvgjsPath1343" d="M 0 0L 70 0L 70 32.22222222222222L 0 32.22222222222222Z" stroke="none" fill="none"></path><g id="SvgjsG1344"><text id="SvgjsText1345" font-family="&quot;Times New Roman&quot;" text-anchor="middle" font-size="17px" width="70px" fill="#323232" font-weight="700" align="middle" lineHeight="125%" anchor="middle" family="&quot;Times New Roman&quot;" size="17px" weight="700" font-style="" opacity="1" y="1.4861111111111107" transform="rotate(0)"><tspan id="SvgjsTspan1346" dy="21" x="35"><tspan id="SvgjsTspan1347" style="text-decoration:;">[else]</tspan></tspan></text></g></g><g id="SvgjsG1348" transform="translate(539.9114532470705,630.3669255794734)"><path id="SvgjsPath1349" d="M 0 0L 102.56791008843254 0L 102.56791008843254 40.22841112541403L 0 40.22841112541403Z" stroke="none" fill="none"></path><g id="SvgjsG1350"><text id="SvgjsText1351" font-family="&quot;Times New Roman&quot;" text-anchor="middle" font-size="17px" width="103px" fill="#323232" font-weight="700" align="middle" lineHeight="125%" anchor="middle" family="&quot;Times New Roman&quot;" size="17px" weight="700" font-style="" opacity="1" y="5.4892055627070135" transform="rotate(0)"><tspan id="SvgjsTspan1352" dy="21" x="51.5"><tspan id="SvgjsTspan1353" style="text-decoration:;">[loopFlag]</tspan></tspan></text></g></g><g id="SvgjsG1354" transform="translate(885.1654183523985,495.8343479767499)"><path id="SvgjsPath1355" d="M 0 17.857142857142833L 30.7460348946708 0L 61.4920697893416 17.857142857142833L 30.7460348946708 35.714285714285666L 0 17.857142857142833Z" stroke="rgba(50,50,50,1)" stroke-width="2" fill-opacity="1" fill="#ffffff"></path></g><g id="SvgjsG1356" transform="translate(728.3876560756134,488.69149083389283)"><path id="SvgjsPath1357" d="M 0 18Q 0 0 18 0L 106.52379717145607 0Q 124.52379717145607 0 124.52379717145607 18L 124.52379717145607 31.999999999999773Q 124.52379717145607 49.99999999999977 106.52379717145607 49.99999999999977L 18 49.99999999999977Q 0 49.99999999999977 0 31.999999999999773L 0 18Z" stroke="rgba(50,50,50,1)" stroke-width="2" fill-opacity="1" fill="#ffffff"></path><g id="SvgjsG1358"><text id="SvgjsText1359" font-family="&quot;Times New Roman&quot;" text-anchor="middle" font-size="18px" width="105px" fill="#323232" font-weight="700" align="middle" lineHeight="125%" anchor="middle" family="&quot;Times New Roman&quot;" size="18px" weight="700" font-style="" opacity="1" y="-1.7500000000001137" transform="rotate(0)"><tspan id="SvgjsTspan1360" dy="22" x="62.5"><tspan id="SvgjsTspan1361" style="text-decoration:;">loopFlag = </tspan></tspan><tspan id="SvgjsTspan1362" dy="22" x="62.5"><tspan id="SvgjsTspan1363" style="text-decoration:;">false</tspan></tspan></text></g></g><g id="SvgjsG1364"><path id="SvgjsPath1365" d="M884.1654183523985 513.6914908338927L869.0384357997343 513.6914908338927L869.0384357997343 513.6914908338927L856.51145324707 513.6914908338927" stroke="#323232" stroke-width="2" fill="none" marker-end="url(#SvgjsMarker1366)"></path></g><g id="SvgjsG1368"><path id="SvgjsPath1369" d="M790.6495546613419 539.6914908338925L790.6495546613419 564.642537038563L790.6495546613419 564.642537038563L790.6495546613419 586.9935832432335" stroke="#323232" stroke-width="2" fill="none" marker-end="url(#SvgjsMarker1370)"></path></g><g id="SvgjsG1372" transform="translate(130.336506192647,383.88989351390916)"><path id="SvgjsPath1373" d="M 0 0L 70 0L 70 32.22222222222222L 0 32.22222222222222Z" stroke="none" fill="none"></path><g id="SvgjsG1374"><text id="SvgjsText1375" font-family="&quot;Times New Roman&quot;" text-anchor="middle" font-size="17px" width="70px" fill="#323232" font-weight="700" align="middle" lineHeight="125%" anchor="middle" family="&quot;Times New Roman&quot;" size="17px" weight="700" font-style="" opacity="1" y="1.4861111111111107" transform="rotate(0)"><tspan id="SvgjsTspan1376" dy="21" x="35"><tspan id="SvgjsTspan1377" style="text-decoration:;">[选择1]</tspan></tspan></text></g></g><g id="SvgjsG1378" transform="translate(327.479363335504,383.8898935139091)"><path id="SvgjsPath1379" d="M 0 0L 70 0L 70 32.22222222222222L 0 32.22222222222222Z" stroke="none" fill="none"></path><g id="SvgjsG1380"><text id="SvgjsText1381" font-family="&quot;Times New Roman&quot;" text-anchor="middle" font-size="17px" width="70px" fill="#323232" font-weight="700" align="middle" lineHeight="125%" anchor="middle" family="&quot;Times New Roman&quot;" size="17px" weight="700" font-style="" opacity="1" y="1.4861111111111107" transform="rotate(0)"><tspan id="SvgjsTspan1382" dy="21" x="35"><tspan id="SvgjsTspan1383" style="text-decoration:;">[选择2]</tspan></tspan></text></g></g><g id="SvgjsG1384" transform="translate(532.9114532470704,383.8898935139091)"><path id="SvgjsPath1385" d="M 0 0L 70 0L 70 32.22222222222222L 0 32.22222222222222Z" stroke="none" fill="none"></path><g id="SvgjsG1386"><text id="SvgjsText1387" font-family="&quot;Times New Roman&quot;" text-anchor="middle" font-size="17px" width="70px" fill="#323232" font-weight="700" align="middle" lineHeight="125%" anchor="middle" family="&quot;Times New Roman&quot;" size="17px" weight="700" font-style="" opacity="1" y="1.4861111111111107" transform="rotate(0)"><tspan id="SvgjsTspan1388" dy="21" x="35"><tspan id="SvgjsTspan1389" style="text-decoration:;">[选择3]</tspan></tspan></text></g></g><g id="SvgjsG1390" transform="translate(730.911453247071,383.88989351390904)"><path id="SvgjsPath1391" d="M 0 0L 70 0L 70 32.22222222222222L 0 32.22222222222222Z" stroke="none" fill="none"></path><g id="SvgjsG1392"><text id="SvgjsText1393" font-family="&quot;Times New Roman&quot;" text-anchor="middle" font-size="17px" width="70px" fill="#323232" font-weight="700" align="middle" lineHeight="125%" anchor="middle" family="&quot;Times New Roman&quot;" size="17px" weight="700" font-style="" opacity="1" y="1.4861111111111107" transform="rotate(0)"><tspan id="SvgjsTspan1394" dy="21" x="35"><tspan id="SvgjsTspan1395" style="text-decoration:;">[选择5]</tspan></tspan></text></g></g><g id="SvgjsG1396" transform="translate(928.9114532470724,383.8898935139089)"><path id="SvgjsPath1397" d="M 0 0L 70 0L 70 32.22222222222222L 0 32.22222222222222Z" stroke="none" fill="none"></path><g id="SvgjsG1398"><text id="SvgjsText1399" font-family="&quot;Times New Roman&quot;" text-anchor="middle" font-size="17px" width="70px" fill="#323232" font-weight="700" align="middle" lineHeight="125%" anchor="middle" family="&quot;Times New Roman&quot;" size="17px" weight="700" font-style="" opacity="1" y="1.4861111111111107" transform="rotate(0)"><tspan id="SvgjsTspan1400" dy="21" x="35"><tspan id="SvgjsTspan1401" style="text-decoration:;">[选择6]</tspan></tspan></text></g></g><g id="SvgjsG1402"><path id="SvgjsPath1403" d="M915.9114532470705 467.11211573613133L915.9114532470705 480.97323185644063L915.9114532470705 480.97323185644063L915.9114532470705 492.23434797674986" stroke="#323232" stroke-width="2" fill="none" marker-end="url(#SvgjsMarker1404)"></path></g><g id="SvgjsG1406"><path id="SvgjsPath1407" d="M915.9114532470694 532.5486336910355L915.9114532470694 560.7885213909723L915.9114532470694 560.7885213909723L915.9114532470694 586.428409090909" stroke="#323232" stroke-width="2" fill="none" marker-end="url(#SvgjsMarker1408)"></path></g></svg>