<svg id="SvgjsSvg1042" width="731" height="287" xmlns="http://www.w3.org/2000/svg" version="1.1" xmlns:xlink="http://www.w3.org/1999/xlink" xmlns:svgjs="http://svgjs.com/svgjs"><defs id="SvgjsDefs1043"><marker id="SvgjsMarker1068" markerWidth="14" markerHeight="10" refX="10" refY="5" viewBox="0 0 14 10" orient="auto" markerUnits="userSpaceOnUse" stroke-dasharray="0,0"><path id="SvgjsPath1069" d="M0,0 L14,5 L0,10 L0,0" fill="#323232" stroke="#323232" stroke-width="1"></path></marker><marker id="SvgjsMarker1072" markerWidth="14" markerHeight="10" refX="10" refY="5" viewBox="0 0 14 10" orient="auto" markerUnits="userSpaceOnUse" stroke-dasharray="0,0"><path id="SvgjsPath1073" d="M0,0 L14,5 L0,10 L0,0" fill="#323232" stroke="#323232" stroke-width="1"></path></marker><marker id="SvgjsMarker1076" markerWidth="14" markerHeight="10" refX="10" refY="5" viewBox="0 0 14 10" orient="auto" markerUnits="userSpaceOnUse" stroke-dasharray="0,0"><path id="SvgjsPath1077" d="M0,0 L14,5 L0,10 L0,0" fill="#323232" stroke="#323232" stroke-width="1"></path></marker></defs><g id="SvgjsG1044" transform="translate(25,25)"><path id="SvgjsPath1045" d="M 0 4Q 0 0 4 0L 677 0Q 681 0 681 4L 681 233Q 681 237 677 237L 4 237Q 0 237 0 233Z" stroke="rgba(0,0,0,1)" stroke-width="2" fill-opacity="1" fill="#e0e0e0"></path><g id="SvgjsG1046"><text id="SvgjsText1047" font-family="微软雅黑" text-anchor="middle" font-size="13px" width="661px" fill="#323232" font-weight="400" align="middle" lineHeight="125%" anchor="middle" family="微软雅黑" size="13px" weight="400" font-style="" opacity="1" y="107.875" transform="rotate(0)"></text></g></g><g id="SvgjsG1048" transform="translate(111,105)"><path id="SvgjsPath1049" d="M 0 0L 163 0L 163 57L 0 57Z" stroke="rgba(50,50,50,1)" stroke-width="2" fill-opacity="1" fill="#ffffff"></path><g id="SvgjsG1050"><text id="SvgjsText1051" font-family="&quot;Times New Roman&quot;" text-anchor="middle" font-size="20px" width="143px" fill="#323232" font-weight="700" align="middle" lineHeight="125%" anchor="middle" family="&quot;Times New Roman&quot;" size="20px" weight="700" font-style="" opacity="1" y="10.5" transform="rotate(0)"><tspan id="SvgjsTspan1052" dy="25" x="81.5"><tspan id="SvgjsTspan1053" style="text-decoration:;">CustomerView</tspan></tspan></text></g></g><g id="SvgjsG1054" transform="translate(422.1666717529297,53)"><path id="SvgjsPath1055" d="M 0 0L 163 0L 163 57L 0 57Z" stroke="rgba(50,50,50,1)" stroke-width="2" fill-opacity="1" fill="#ffffff"></path><g id="SvgjsG1056"><text id="SvgjsText1057" font-family="&quot;Times New Roman&quot;" text-anchor="middle" font-size="20px" width="143px" fill="#323232" font-weight="700" align="middle" lineHeight="125%" anchor="middle" family="&quot;Times New Roman&quot;" size="20px" weight="700" font-style="" opacity="1" y="10.5" transform="rotate(0)"><tspan id="SvgjsTspan1058" dy="25" x="81.5"><tspan id="SvgjsTspan1059" style="text-decoration:;">CustomerList</tspan></tspan></text></g></g><g id="SvgjsG1060" transform="translate(422.1666717529297,180)"><path id="SvgjsPath1061" d="M 0 0L 163 0L 163 57L 0 57Z" stroke="rgba(50,50,50,1)" stroke-width="2" fill-opacity="1" fill="#ffffff"></path><g id="SvgjsG1062"><text id="SvgjsText1063" font-family="&quot;Times New Roman&quot;" text-anchor="middle" font-size="20px" width="143px" fill="#323232" font-weight="700" align="middle" lineHeight="125%" anchor="middle" family="&quot;Times New Roman&quot;" size="20px" weight="700" font-style="" opacity="1" y="10.5" transform="rotate(0)"><tspan id="SvgjsTspan1064" dy="25" x="81.5"><tspan id="SvgjsTspan1065" style="text-decoration:;">Customer</tspan></tspan></text></g></g><g id="SvgjsG1066"><path id="SvgjsPath1067" d="M274.8922083566796 133.95162401206224L418.9547216688833 206.87415355657595" stroke="#323232" stroke-width="2" fill="none" marker-end="url(#SvgjsMarker1068)"></path></g><g id="SvgjsG1070"><path id="SvgjsPath1071" d="M274.94357671361206 133.16884597914404L418.7697955839262 82.69215447508145" stroke="#323232" stroke-width="2" fill="none" marker-end="url(#SvgjsMarker1072)"></path></g><g id="SvgjsG1074"><path id="SvgjsPath1075" d="M503.6666717529297 111L503.6666717529297 176.39999999999998" stroke="#323232" stroke-width="2" fill="none" marker-end="url(#SvgjsMarker1076)"></path></g></svg>