<svg id="SvgjsSvg1108" width="839" height="220" xmlns="http://www.w3.org/2000/svg" version="1.1" xmlns:xlink="http://www.w3.org/1999/xlink" xmlns:svgjs="http://svgjs.com/svgjs"><defs id="SvgjsDefs1109"><marker id="SvgjsMarker1156" markerWidth="14" markerHeight="12" refX="16" refY="6" viewBox="0 0 14 12" orient="auto" markerUnits="userSpaceOnUse" stroke-dasharray="0,0"><path id="SvgjsPath1157" d="M1,1 L14,6 L1,11L1,1" fill="#ffffff" stroke="#323232" stroke-width="2"></path></marker></defs><g id="SvgjsG1110" transform="translate(25,33.5)"><path id="SvgjsPath1111" d="M 0 4Q 0 0 4 0L 272 0Q 276 0 276 4L 276 149Q 276 153 272 153L 4 153Q 0 153 0 149Z" stroke="rgba(50,50,50,1)" stroke-width="2" fill-opacity="1" fill="#ffffff"></path><path id="SvgjsPath1112" d="M 0 30L 276 30M 0 66.9L 276 66.9" stroke="rgba(50,50,50,1)" stroke-width="2" fill="none"></path><path id="SvgjsPath1113" d="M 0 0L 276 0L 276 153L 0 153Z" stroke="none" fill="none"></path><g id="SvgjsG1114"><text id="SvgjsText1115" font-family="微软雅黑" text-anchor="middle" font-size="14px" width="256px" fill="#323232" font-weight="700" align="middle" lineHeight="125%" anchor="middle" family="微软雅黑" size="14px" weight="700" font-style="" opacity="1" y="3.25" transform="rotate(0)"><tspan id="SvgjsTspan1116" dy="17" x="138"><tspan id="SvgjsTspan1117" style="text-decoration:;">Circle(圆)</tspan></tspan></text></g><g id="SvgjsG1118"><text id="SvgjsText1119" font-family="微软雅黑" text-anchor="start" font-size="14px" width="256px" fill="#323232" font-weight="400" align="middle" lineHeight="125%" anchor="start" family="微软雅黑" size="14px" weight="400" font-style="" opacity="1" y="36.7" transform="rotate(0)"><tspan id="SvgjsTspan1120" dy="17" x="10"><tspan id="SvgjsTspan1121" style="text-decoration:;">- radius：double</tspan></tspan></text></g><g id="SvgjsG1122"><text id="SvgjsText1123" font-family="微软雅黑" text-anchor="start" font-size="14px" width="256px" fill="#323232" font-weight="400" align="middle" lineHeight="125%" anchor="start" family="微软雅黑" size="14px" weight="400" font-style="" opacity="1" y="72.2" transform="rotate(0)"><tspan id="SvgjsTspan1124" dy="17" x="10"><tspan id="SvgjsTspan1125" style="text-decoration:;text-decoration: underline;">+ Circle()：将radius属性初始化为1</tspan></tspan><tspan id="SvgjsTspan1126" dy="17" x="10"><tspan id="SvgjsTspan1127" style="text-decoration:;">+ setRadius(double radius)：void</tspan></tspan><tspan id="SvgjsTspan1128" dy="17" x="10"><tspan id="SvgjsTspan1129" style="text-decoration:;">+ getRadius()：double</tspan></tspan><tspan id="SvgjsTspan1130" dy="17" x="10"><tspan id="SvgjsTspan1131" style="text-decoration:;">+ findArea()：double  计算圆的面积</tspan></tspan></text></g></g><g id="SvgjsG1132" transform="translate(494,25)"><path id="SvgjsPath1133" d="M 0 4Q 0 0 4 0L 316 0Q 320 0 320 4L 320 166Q 320 170 316 170L 4 170Q 0 170 0 166Z" stroke="rgba(50,50,50,1)" stroke-width="2" fill-opacity="1" fill="#ffffff"></path><path id="SvgjsPath1134" d="M 0 30L 320 30M 0 72L 320 72" stroke="rgba(50,50,50,1)" stroke-width="2" fill="none"></path><path id="SvgjsPath1135" d="M 0 0L 320 0L 320 170L 0 170Z" stroke="none" fill="none"></path><g id="SvgjsG1136"><text id="SvgjsText1137" font-family="微软雅黑" text-anchor="middle" font-size="14px" width="300px" fill="#323232" font-weight="700" align="middle" lineHeight="125%" anchor="middle" family="微软雅黑" size="14px" weight="700" font-style="" opacity="1" y="3.25" transform="rotate(0)"><tspan id="SvgjsTspan1138" dy="17" x="160"><tspan id="SvgjsTspan1139" style="text-decoration:;">Cylinder(圆柱)</tspan></tspan></text></g><g id="SvgjsG1140"><text id="SvgjsText1141" font-family="微软雅黑" text-anchor="start" font-size="14px" width="300px" fill="#323232" font-weight="400" align="middle" lineHeight="125%" anchor="start" family="微软雅黑" size="14px" weight="400" font-style="" opacity="1" y="39.25" transform="rotate(0)"><tspan id="SvgjsTspan1142" dy="17" x="10"><tspan id="SvgjsTspan1143" style="text-decoration:;">- length：double</tspan></tspan></text></g><g id="SvgjsG1144"><text id="SvgjsText1145" font-family="微软雅黑" text-anchor="start" font-size="14px" width="300px" fill="#323232" font-weight="400" align="middle" lineHeight="125%" anchor="start" family="微软雅黑" size="14px" weight="400" font-style="" opacity="1" y="83.25" transform="rotate(0)"><tspan id="SvgjsTspan1146" dy="17" x="10"><tspan id="SvgjsTspan1147" style="text-decoration:;text-decoration: underline;">+ Cylinder()：将length属性初始化为1</tspan></tspan><tspan id="SvgjsTspan1148" dy="17" x="10"><tspan id="SvgjsTspan1149" style="text-decoration:;">+ setLength(double length)：void</tspan></tspan><tspan id="SvgjsTspan1150" dy="17" x="10"><tspan id="SvgjsTspan1151" style="text-decoration:;">+ getLength()：double</tspan></tspan><tspan id="SvgjsTspan1152" dy="17" x="10"><tspan id="SvgjsTspan1153" style="text-decoration:;">+ findVolume()：double   计算圆柱体积</tspan></tspan></text></g></g><g id="SvgjsG1154"><path id="SvgjsPath1155" d="M493 110L397.5 110L397.5 110L304.6 110" stroke="#323232" stroke-width="2" fill="none" marker-end="url(#SvgjsMarker1156)"></path></g></svg>