<svg id="SvgjsSvg1094" width="1137.3637084960938" height="319" xmlns="http://www.w3.org/2000/svg" version="1.1" xmlns:xlink="http://www.w3.org/1999/xlink" xmlns:svgjs="http://svgjs.com/svgjs"><defs id="SvgjsDefs1095"><marker id="SvgjsMarker1160" markerWidth="14" markerHeight="12" refX="16" refY="6" viewBox="0 0 14 12" orient="auto" markerUnits="userSpaceOnUse" stroke-dasharray="0,0"><path id="SvgjsPath1161" d="M1,1 L14,6 L1,11L1,1" fill="#ffffff" stroke="#323232" stroke-width="2"></path></marker><marker id="SvgjsMarker1164" markerWidth="14" markerHeight="10" refX="10" refY="5" viewBox="0 0 14 10" orient="auto" markerUnits="userSpaceOnUse" stroke-dasharray="0,0"><path id="SvgjsPath1165" d="M0,0 L14,5 L0,10 L0,0" fill="#323232" stroke="#323232" stroke-width="1"></path></marker><marker id="SvgjsMarker1168" markerWidth="14" markerHeight="10" refX="10" refY="5" viewBox="0 0 14 10" orient="auto" markerUnits="userSpaceOnUse" stroke-dasharray="0,0"><path id="SvgjsPath1169" d="M0,0 L14,5 L0,10 L0,0" fill="#323232" stroke="#323232" stroke-width="1"></path></marker></defs><g id="SvgjsG1096" transform="translate(25.00028542911309,62.10300339479488)"><path id="SvgjsPath1097" d="M 0 4Q 0 0 4 0L 296 0Q 300 0 300 4L 300 191Q 300 195 296 195L 4 195Q 0 195 0 191Z" stroke="rgba(50,50,50,1)" stroke-width="2" fill-opacity="1" fill="#ffffff"></path><path id="SvgjsPath1098" d="M 0 30L 300 30" stroke="rgba(50,50,50,1)" stroke-width="2" fill="none"></path><path id="SvgjsPath1099" d="M 0 0L 300 0L 300 195L 0 195Z" stroke="none" fill="none"></path><g id="SvgjsG1100"><text id="SvgjsText1101" font-family="微软雅黑" text-anchor="middle" font-size="14px" width="280px" fill="#323232" font-weight="700" align="middle" lineHeight="125%" anchor="middle" family="微软雅黑" size="14px" weight="700" font-style="" opacity="1" y="3.25" transform="rotate(0)"><tspan id="SvgjsTspan1102" dy="17" x="150"><tspan id="SvgjsTspan1103" style="text-decoration:;">Person(父类)</tspan></tspan></text></g><g id="SvgjsG1104"><text id="SvgjsText1105" font-family="微软雅黑" text-anchor="start" font-size="14px" width="280px" fill="#323232" font-weight="400" align="middle" lineHeight="125%" anchor="start" family="微软雅黑" size="14px" weight="400" font-style="" opacity="1" y="100.75" transform="rotate(0)"></text></g></g><g id="SvgjsG1106" transform="translate(39.11793248793657,109.24933893540299)"><path id="SvgjsPath1107" d="M 0 4Q 0 0 4 0L 259.7797815659467 0Q 263.7797815659467 0 263.7797815659467 4L 263.7797815659467 125.11764705882376Q 263.7797815659467 129.11764705882376 259.7797815659467 129.11764705882376L 4 129.11764705882376Q 0 129.11764705882376 0 125.11764705882376Z" stroke="rgba(50,50,50,1)" stroke-width="2" fill-opacity="1" fill="#ffffff"></path><g id="SvgjsG1108"><text id="SvgjsText1109" font-family="微软雅黑" text-anchor="start" font-size="14px" width="244px" fill="#323232" font-weight="400" align="middle" lineHeight="125%" anchor="start" family="微软雅黑" size="14px" weight="400" font-style="" opacity="1" y="9.308823529411882" transform="rotate(0)"><tspan id="SvgjsTspan1110" dy="17" x="10"><tspan id="SvgjsTspan1111" style="text-decoration:;">private String name;</tspan></tspan><tspan id="SvgjsTspan1112" dy="17" x="10"><tspan id="SvgjsTspan1113" style="text-decoration:;">private int age</tspan></tspan><tspan id="SvgjsTspan1114" dy="17" x="10"><tspan id="SvgjsTspan1115" style="text-decoration:;">public void setName(String name){}</tspan></tspan><tspan id="SvgjsTspan1116" dy="17" x="10"><tspan id="SvgjsTspan1117" style="text-decoration:;">public void setAge(int age){}</tspan></tspan><tspan id="SvgjsTspan1118" dy="17" x="10"><tspan id="SvgjsTspan1119" style="text-decoration:;">public String getName(){}</tspan></tspan><tspan id="SvgjsTspan1120" dy="17" x="10"><tspan id="SvgjsTspan1121" style="text-decoration:;">public int getAge(){}</tspan></tspan></text></g></g><g id="SvgjsG1122" transform="translate(457.9414618997009,25.00042385978486)"><path id="SvgjsPath1123" d="M 0 4Q 0 0 4 0L 292.72095803653497 0Q 296.72095803653497 0 296.72095803653497 4L 296.72095803653497 265.20515907002004Q 296.72095803653497 269.20515907002004 292.72095803653497 269.20515907002004L 4 269.20515907002004Q 0 269.20515907002004 0 265.20515907002004Z" stroke="rgba(50,50,50,1)" stroke-width="2" fill-opacity="1" fill="#ffffff"></path><path id="SvgjsPath1124" d="M 0 30L 296.72095803653497 30" stroke="rgba(50,50,50,1)" stroke-width="2" fill="none"></path><path id="SvgjsPath1125" d="M 0 0L 296.72095803653497 0L 296.72095803653497 269.20515907002004L 0 269.20515907002004Z" stroke="none" fill="none"></path><g id="SvgjsG1126"><text id="SvgjsText1127" font-family="微软雅黑" text-anchor="middle" font-size="14px" width="277px" fill="#323232" font-weight="700" align="middle" lineHeight="125%" anchor="middle" family="微软雅黑" size="14px" weight="700" font-style="" opacity="1" y="3.25" transform="rotate(0)"><tspan id="SvgjsTspan1128" dy="17" x="148.5"><tspan id="SvgjsTspan1129" style="text-decoration:;">Student(子类)</tspan></tspan></text></g><g id="SvgjsG1130"><text id="SvgjsText1131" font-family="微软雅黑" text-anchor="start" font-size="14px" width="277px" fill="#323232" font-weight="400" align="middle" lineHeight="125%" anchor="start" family="微软雅黑" size="14px" weight="400" font-style="" opacity="1" y="137.85257953501002" transform="rotate(0)"></text></g></g><g id="SvgjsG1132" transform="translate(470.8826383702892,70.97028881215755)"><path id="SvgjsPath1133" d="M 0 4Q 0 0 4 0L 266 0Q 270 0 270 4L 270 125.11764705882376Q 270 129.11764705882376 266 129.11764705882376L 4 129.11764705882376Q 0 129.11764705882376 0 125.11764705882376Z" stroke="rgba(50,50,50,1)" stroke-width="2" fill-opacity="1" fill="#ffffff"></path><g id="SvgjsG1134"><text id="SvgjsText1135" font-family="微软雅黑" text-anchor="start" font-size="14px" width="250px" fill="#323232" font-weight="400" align="middle" lineHeight="125%" anchor="start" family="微软雅黑" size="14px" weight="400" font-style="" opacity="1" y="9.308823529411882" transform="rotate(0)"><tspan id="SvgjsTspan1136" dy="17" x="10"><tspan id="SvgjsTspan1137" style="text-decoration:;">private String name;</tspan></tspan><tspan id="SvgjsTspan1138" dy="17" x="10"><tspan id="SvgjsTspan1139" style="text-decoration:;">private int age</tspan></tspan><tspan id="SvgjsTspan1140" dy="17" x="10"><tspan id="SvgjsTspan1141" style="text-decoration:;">public void setName(String name){}</tspan></tspan><tspan id="SvgjsTspan1142" dy="17" x="10"><tspan id="SvgjsTspan1143" style="text-decoration:;">public void setAge(int age){}</tspan></tspan><tspan id="SvgjsTspan1144" dy="17" x="10"><tspan id="SvgjsTspan1145" style="text-decoration:;">public String getName(){}</tspan></tspan><tspan id="SvgjsTspan1146" dy="17" x="10"><tspan id="SvgjsTspan1147" style="text-decoration:;">public int getAge(){}</tspan></tspan></text></g></g><g id="SvgjsG1148" transform="translate(469.7061677820541,208.61734763568705)"><path id="SvgjsPath1149" d="M 0 4Q 0 0 4 0L 266 0Q 270 0 270 4L 270 72.17647058823547Q 270 76.17647058823547 266 76.17647058823547L 4 76.17647058823547Q 0 76.17647058823547 0 72.17647058823547Z" stroke="rgba(50,50,50,1)" stroke-width="2" fill-opacity="1" fill="#ffffff"></path><g id="SvgjsG1150"><text id="SvgjsText1151" font-family="微软雅黑" text-anchor="start" font-size="14px" width="250px" fill="#323232" font-weight="400" align="middle" lineHeight="125%" anchor="start" family="微软雅黑" size="14px" weight="400" font-style="" opacity="1" y="8.838235294117737" transform="rotate(0)"><tspan id="SvgjsTspan1152" dy="17" x="10"><tspan id="SvgjsTspan1153" style="text-decoration:;">private String school;</tspan></tspan><tspan id="SvgjsTspan1154" dy="17" x="10"><tspan id="SvgjsTspan1155" style="text-decoration:;">public void setString(String school){}</tspan></tspan><tspan id="SvgjsTspan1156" dy="17" x="10"><tspan id="SvgjsTspan1157" style="text-decoration:;">public String getSchool(){}</tspan></tspan></text></g></g><g id="SvgjsG1158"><path id="SvgjsPath1159" d="M456.9414618997009 159.60300339479483L328.6002854291131 159.60300339479488" stroke="#323232" stroke-width="2" fill="none" marker-end="url(#SvgjsMarker1160)"></path></g><g id="SvgjsG1162"><path id="SvgjsPath1163" d="M907.5406826771664 78.36698599422681L744.2879044290266 134.36113842524628" stroke="#323232" stroke-width="2" fill="none" marker-end="url(#SvgjsMarker1164)"></path></g><g id="SvgjsG1166"><path id="SvgjsPath1167" d="M901.7212434656481 198.3669859942268L743.1558969167169 245.6763264518271" stroke="#323232" stroke-width="2" fill="none" marker-end="url(#SvgjsMarker1168)"></path></g><g id="SvgjsG1170" transform="translate(879.368302289177,40.71992717069759)"><path id="SvgjsPath1171" d="M 0 0L 232.94117647058823 0L 232.94117647058823 80L 0 80Z" stroke="none" fill="none"></path><g id="SvgjsG1172"><text id="SvgjsText1173" font-family="微软雅黑" text-anchor="middle" font-size="14px" width="233px" fill="#323232" font-weight="700" align="middle" lineHeight="125%" anchor="middle" family="微软雅黑" size="14px" weight="700" font-style="" opacity="1" y="28.25" transform="rotate(0)"><tspan id="SvgjsTspan1174" dy="17" x="116.5"><tspan id="SvgjsTspan1175" style="text-decoration:;">从父类中继承的属性和方法</tspan></tspan></text></g></g><g id="SvgjsG1176" transform="translate(879.3683022891768,158.36698599422675)"><path id="SvgjsPath1177" d="M 0 0L 232.94117647058823 0L 232.94117647058823 80L 0 80Z" stroke="none" fill="none"></path><g id="SvgjsG1178"><text id="SvgjsText1179" font-family="微软雅黑" text-anchor="middle" font-size="14px" width="233px" fill="#323232" font-weight="700" align="middle" lineHeight="125%" anchor="middle" family="微软雅黑" size="14px" weight="700" font-style="" opacity="1" y="28.25" transform="rotate(0)"><tspan id="SvgjsTspan1180" dy="17" x="116.5"><tspan id="SvgjsTspan1181" style="text-decoration:;">子类自己定义的属性和方法</tspan></tspan></text></g></g></svg>