<svg width="1280" height="397" xmlns="http://www.w3.org/2000/svg" xmlns:xlink="http://www.w3.org/1999/xlink" overflow="hidden"><defs><clipPath id="clip0"><rect x="0" y="0" width="1280" height="397"/></clipPath></defs><g clip-path="url(#clip0)"><rect x="0" y="0" width="1280" height="397.167" fill="#FFFFFF"/><rect x="47.5001" y="17.5074" width="169" height="300.126" stroke="#2F528F" stroke-width="1.33333" stroke-miterlimit="8" fill="#E7E6E6"/><text font-family="DengXian,DengXian_MSFontService,sans-serif" font-weight="400" font-size="25" transform="matrix(1 0 0 1.00042 78.8139 346)">栈<tspan font-family="Calibri,Calibri_MSFontService,sans-serif" font-size="25" x="24.8333" y="0">stack</tspan>：<tspan font-size="25" x="0" y="29.9874">局部变量</tspan></text><rect x="259.5" y="17.5074" width="973" height="300.126" stroke="#2F528F" stroke-width="1.33333" stroke-miterlimit="8" fill="#E7E6E6"/><path d="M492.5 167.57C492.5 106.241 606.22 56.5238 746.5 56.5238 886.78 56.5238 1000.5 106.241 1000.5 167.57 1000.5 228.9 886.78 278.617 746.5 278.617 606.22 278.617 492.5 228.9 492.5 167.57Z" stroke="#787878" stroke-width="1.33333" stroke-miterlimit="8" fill="#A5A5A5" fill-rule="evenodd"/><text font-family="DengXian,DengXian_MSFontService,sans-serif" font-weight="400" font-size="25" transform="matrix(1 0 0 1.00042 914.107 345)">堆<tspan font-family="Calibri,Calibri_MSFontService,sans-serif" font-size="25" x="24.8334" y="0">heap</tspan><tspan font-size="25" x="75.1667" y="0">：</tspan><tspan font-family="Calibri,Calibri_MSFontService,sans-serif" font-size="25" x="0" y="29.9874">new</tspan><tspan font-size="25" x="43.0467" y="29.9874">出来的结构：对象、数组</tspan><tspan font-family="Calibri,Calibri_MSFontService,sans-serif" font-size="26" x="-191.889" y="-119.95">hello</tspan><tspan font-family="Calibri,Calibri_MSFontService,sans-serif" font-size="26" x="-191.889" y="-210.911">hi~~</tspan><tspan font-family="Calibri,Calibri_MSFontService,sans-serif" font-size="22" x="-831.316" y="-77.9673">S1:</tspan><tspan font-size="22" x="-803.983" y="-77.9673">地址值</tspan><tspan font-family="Calibri,Calibri_MSFontService,sans-serif" font-size="22" x="-831.316" y="-127.946">S2:</tspan><tspan font-size="22" x="-803.983" y="-127.946">地址值</tspan></text><path d="M0.0275732-0.332191 516.531 42.5397 516.476 43.2041-0.0275732 0.332191ZM515.508 38.7756 523.15 43.4236 514.846 46.7481Z" transform="matrix(1 0 0 -1.00042 189.5 260.033)"/><path d="M189.504 210.255 705.986 216.408 705.978 217.075 189.496 210.922ZM704.698 212.724 712.65 216.821 704.603 220.727Z"/><path d="M391.938 204.843 398.757 198.021 406 205.267 413.244 198.021 420.062 204.843 412.819 212.089 420.062 219.335 413.244 226.157 406 218.911 398.757 226.157 391.938 219.335 399.181 212.089Z" stroke="#AE5A21" stroke-width="1.33333" stroke-miterlimit="8" fill="#ED7D31" fill-rule="evenodd"/><path d="M0.0529646-0.329099 516.618 82.806 516.512 83.4642-0.0529646 0.329099ZM515.887 78.9745 523.15 84.1949 514.616 86.8729Z" transform="matrix(1 0 0 -1.00042 189.5 209.783)"/><path d="M110.5 200.584 183.735 225.421" stroke="#ED7D31" stroke-width="3" stroke-miterlimit="8" fill="none" fill-rule="evenodd"/><text font-family="DengXian,DengXian_MSFontService,sans-serif" font-weight="400" font-size="22" transform="matrix(1 0 0 1.00042 100.239 187)">新地址值<tspan font-size="25" x="707.871" y="-1.99916">字符串常量池</tspan></text></g></svg>