<svg width="1206" height="529" xmlns="http://www.w3.org/2000/svg" xmlns:xlink="http://www.w3.org/1999/xlink" overflow="hidden"><defs><clipPath id="clip0"><rect x="0" y="0" width="1206" height="529"/></clipPath></defs><g clip-path="url(#clip0)"><rect x="0" y="0" width="1206" height="528.687" fill="#FFFFFF"/><rect x="209.5" y="3.4979" width="978" height="455.73" stroke="#2F528F" stroke-width="1.3337" stroke-miterlimit="8" fill="#E7E6E6"/><text font-family="Calibri,Calibri_MSFontService,sans-serif" font-weight="400" font-size="21" transform="matrix(1 0 0 0.999409 865.542 37)">class Data{<tspan font-size="21" x="48.0133" y="25.0148">int m;</tspan><tspan font-size="21" x="48.0133" y="50.0296">int n;</tspan><tspan font-size="21" x="0" y="75.0444">}</tspan></text><rect x="19.5" y="6.49612" width="159" height="455.73" stroke="#2F528F" stroke-width="1.3337" stroke-miterlimit="8" fill="#E7E6E6"/><text font-family="DengXian,DengXian_MSFontService,sans-serif" font-weight="400" font-size="23" transform="matrix(1 0 0 0.999409 49.6381 489)">栈<tspan font-family="Calibri,Calibri_MSFontService,sans-serif" font-size="23" x="23.5065" y="0">stack</tspan>：<tspan font-size="23" x="0" y="28.0166">局部变量</tspan><tspan font-family="Calibri,Calibri_MSFontService,sans-serif" font-size="21" x="-0.000419617" y="-62.0367">dat</tspan><tspan font-family="Calibri,Calibri_MSFontService,sans-serif" font-size="21" x="27.5605" y="-62.0367">a</tspan><tspan font-family="Calibri,Calibri_MSFontService,sans-serif" font-size="21" x="37.5633" y="-62.0367">:</tspan><tspan font-family="Calibri,Calibri_MSFontService,sans-serif" font-size="21" x="43.0648" y="-62.0367">0x1122</tspan></text><path d="M0.211948-0.257136 301.738 248.28 301.314 248.794-0.211948 0.257136ZM303.041 244.604 306.669 252.776 297.954 250.775Z" transform="matrix(1.00059 0 0 -1 153.5 420.177)"/><text font-family="DengXian,DengXian_MSFontService,sans-serif" font-weight="400" font-size="23" transform="matrix(1 0 0 0.999409 874.369 489)">堆<tspan font-family="Calibri,Calibri_MSFontService,sans-serif" font-size="23" x="23.5065" y="0">heap</tspan><tspan font-size="23" x="71.0196" y="0">：</tspan><tspan font-family="Calibri,Calibri_MSFontService,sans-serif" font-size="23" x="0" y="28.0166">new</tspan>出来的结构：对象、数组</text><rect x="460.5" y="167.401" width="207" height="141.916" stroke="#787878" stroke-width="1.3337" stroke-miterlimit="8" fill="#A5A5A5"/><text font-family="Calibri,Calibri_MSFontService,sans-serif" font-weight="400" font-size="25" transform="matrix(1 0 0 0.999409 511.541 226)">m:0<tspan font-size="25" x="3.41431" y="30.0177">n:</tspan><tspan font-size="25" x="23.0864" y="30.0177">0</tspan></text><path d="M536.5 212.374 554.459 225.487" stroke="#ED7D31" stroke-width="3.00083" stroke-miterlimit="8" fill="none" fill-rule="evenodd"/><path d="M460.5 143.415 460.5 168.792" stroke="#ED7D31" stroke-width="1.3337" stroke-miterlimit="8" fill="none" fill-rule="evenodd"/><text font-family="Calibri,Calibri_MSFontService,sans-serif" font-weight="400" font-size="25" transform="matrix(1 0 0 0.999409 467.509 164)">0x1122<tspan font-size="21" x="-417.872" y="229.135">data:0x1122</tspan><tspan font-size="21" x="-417.872" y="191.113">temp:1</tspan><tspan font-size="21" x="-357.082" y="191.113">0</tspan></text><path d="M0.194421-0.270632 299.57 214.8 299.181 215.341-0.194421 0.270632ZM300.626 211.045 304.788 218.959 295.96 217.54Z" transform="matrix(1.00059 0 0 -1 155.5 386.36)"/><text font-family="Calibri,Calibri_MSFontService,sans-serif" font-weight="400" font-size="21" transform="matrix(1 0 0 0.999409 864.955 161)">main(){<tspan font-size="21" x="48.0132" y="25.0148">Data data = new Data();</tspan><tspan font-size="21" x="48.0132" y="50.0296">data.m = 10;</tspan><tspan font-size="21" x="48.0132" y="75.0444">data.n = 20;</tspan><tspan font-size="21" x="48.0132" y="100.059">v.swap(data);</tspan><tspan font-size="21" x="48.0132" y="125.074">sysout(data.m,data.n);</tspan><tspan font-size="21" x="0" y="150.089">}</tspan><tspan font-size="21" x="0" y="175.104">swap(Data data){</tspan><tspan font-size="21" x="48.0132" y="200.118">int temp = data.m;</tspan><tspan font-size="21" x="48.0132" y="225.133">data.m = data.n;</tspan><tspan font-size="21" x="48.0132" y="250.148">data.n = temp;</tspan><tspan font-size="21" x="0" y="275.163">}</tspan><tspan font-size="25" x="-300.756" y="65.0385">10</tspan></text><path d="M534.5 240.358 552.459 253.47" stroke="#ED7D31" stroke-width="3.00083" stroke-miterlimit="8" fill="none" fill-rule="evenodd"/><text font-family="Calibri,Calibri_MSFontService,sans-serif" font-weight="400" font-size="25" transform="matrix(1 0 0 0.999409 564.2 255)">2<tspan font-size="25" x="12.5034" y="0">0</tspan><tspan font-size="25" x="35.6564" y="-29.0172">2</tspan><tspan font-size="25" x="48.1599" y="-29.0172">0</tspan><tspan font-size="25" x="35.065" y="1.00059">10</tspan></text><path d="M564.5 210.376 595.309 226.548" stroke="#ED7D31" stroke-width="3.00083" stroke-miterlimit="8" fill="none" fill-rule="evenodd"/><path d="M563.5 239.358 594.309 255.531" stroke="#ED7D31" stroke-width="3.00083" stroke-miterlimit="8" fill="none" fill-rule="evenodd"/><text font-family="DengXian,DengXian_MSFontService,sans-serif" font-weight="400" font-size="24" transform="matrix(1 0 0 0.999409 252.87 55)">形参是引用数据类型：<tspan font-size="24" x="0" y="29.0172">将实参引用数据类型变量的“</tspan><tspan fill="#FF0000" font-size="24" x="296.582" y="29.0172">地址值</tspan>”<tspan font-size="24" x="382.606" y="29.0172">传递给形参。</tspan></text></g></svg>