<svg width="1206" height="529" xmlns="http://www.w3.org/2000/svg" xmlns:xlink="http://www.w3.org/1999/xlink" overflow="hidden"><defs><clipPath id="clip0"><rect x="0" y="0" width="1206" height="529"/></clipPath></defs><g clip-path="url(#clip0)"><rect x="0" y="0" width="1206" height="528.687" fill="#FFFFFF"/><rect x="225.5" y="10.4938" width="979" height="455.73" stroke="#2F528F" stroke-width="1.3337" stroke-miterlimit="8" fill="#E7E6E6"/><text font-family="Calibri,Calibri_MSFontService,sans-serif" font-weight="400" font-size="16" transform="matrix(1 0 0 0.999409 790.327 27)">public class TransferTest1 {<tspan font-size="16" x="48.0133" y="19.0112">public static void main(String args[]) {</tspan><tspan font-size="16" x="96.0266" y="38.0225">TransferTest1 test = new TransferTest1();</tspan><tspan font-size="16" x="96.0266" y="58.0343">test.first();</tspan><tspan font-size="16" x="48.0133" y="77.0456">}</tspan><tspan font-size="16" x="48.0133" y="96.0568">public void first() {</tspan><tspan font-size="16" x="96.0266" y="115.068">int i = 5;</tspan><tspan font-size="16" x="96.0266" y="134.079">Value v = new Value();</tspan><tspan font-size="16" x="96.0266" y="154.091">v.i = 25;</tspan><tspan font-size="16" x="96.0266" y="173.102">second(v, i);</tspan><tspan font-size="16" x="96.0266" y="192.114">System.out.println(v.i);</tspan><tspan font-size="16" x="48.0133" y="211.125">}</tspan><tspan font-size="16" x="48.0133" y="230.136">public void second(Value v, int i) {</tspan><tspan font-size="16" x="96.0266" y="250.148">i = 0;</tspan><tspan font-size="16" x="96.0266" y="269.159">v.i = 20;</tspan><tspan font-size="16" x="96.0266" y="288.17">Value val = new Value();</tspan><tspan font-size="16" x="96.0266" y="307.182">v = val;</tspan><tspan font-size="16" x="96.0266" y="326.193">System.out.println(v.i + " " + i);</tspan><tspan font-size="16" x="48.0133" y="346.205">}</tspan><tspan font-size="16" x="0" y="365.216">}</tspan><tspan font-size="16" x="0" y="384.227">class Value {</tspan><tspan font-size="16" x="48.0133" y="403.238">int i = 15;</tspan><tspan font-size="16" x="0" y="422.25">}</tspan></text><rect x="19.5" y="6.49612" width="159" height="455.73" stroke="#2F528F" stroke-width="1.3337" stroke-miterlimit="8" fill="#E7E6E6"/><text font-family="DengXian,DengXian_MSFontService,sans-serif" font-weight="400" font-size="23" transform="matrix(1 0 0 0.999409 49.6381 489)">栈<tspan font-family="Calibri,Calibri_MSFontService,sans-serif" font-size="23" x="23.5065" y="0">stack</tspan>：<tspan font-size="23" x="0" y="28.0166">局部变量</tspan><tspan font-family="Calibri,Calibri_MSFontService,sans-serif" font-size="21" x="-0.000419617" y="-62.0367">test:0x1122</tspan></text><path d="M0.111398-0.314057 273.95 96.8186 273.727 97.4467-0.111398 0.314057ZM273.919 92.9182 280.12 99.3604 271.245 100.456Z" transform="matrix(1.00059 0 0 -1 148.5 420.67)"/><text font-family="DengXian,DengXian_MSFontService,sans-serif" font-weight="400" font-size="23" transform="matrix(1 0 0 0.999409 874.369 489)">堆<tspan font-family="Calibri,Calibri_MSFontService,sans-serif" font-size="23" x="23.5065" y="0">heap</tspan><tspan font-size="23" x="71.0196" y="0">：</tspan><tspan font-family="Calibri,Calibri_MSFontService,sans-serif" font-size="23" x="0" y="28.0166">new</tspan>出来的结构：对象、数组</text><path d="M428.5 294.326 428.5 319.703" stroke="#ED7D31" stroke-width="1.3337" stroke-miterlimit="8" fill="none" fill-rule="evenodd"/><text font-family="Calibri,Calibri_MSFontService,sans-serif" font-weight="400" font-size="25" transform="matrix(1 0 0 0.999409 433.768 316)">0x1122</text><rect x="428.5" y="64.4619" width="207" height="83.9503" stroke="#787878" stroke-width="1.3337" stroke-miterlimit="8" fill="#A5A5A5"/><path d="M428.5 40.4761 428.5 65.853" stroke="#ED7D31" stroke-width="1.3337" stroke-miterlimit="8" fill="none" fill-rule="evenodd"/><text font-family="Calibri,Calibri_MSFontService,sans-serif" font-weight="400" font-size="25" transform="matrix(1 0 0 0.999409 432.066 62)">0x5566<tspan font-size="21" x="-372.783" y="296.175">v</tspan><tspan font-size="21" x="-363.447" y="296.175">:</tspan><tspan font-size="21" x="-357.946" y="296.175">0x3344</tspan><tspan font-size="21" x="-379.791" y="183.108">va</tspan><tspan font-size="21" x="-360.759" y="183.108">l</tspan><tspan font-size="21" x="-355.925" y="183.108">:0x5566</tspan></text><path d="M0.157513-0.293651 284.179 152.055 283.864 152.642-0.157513 0.293651ZM284.737 148.194 289.895 155.499 280.957 155.242Z" transform="matrix(1.00059 0 0 -1 137.5 350.883)"/><path d="M0.125591-0.308655 281.78 114.296 281.529 114.914-0.125591 0.308655ZM281.926 110.398 287.827 117.116 278.912 117.806Z" transform="matrix(1.00059 0 0 -1 139.5 314.5)"/><text font-family="Calibri,Calibri_MSFontService,sans-serif" font-weight="400" font-size="25" transform="matrix(1 0 0 0.999409 455.449 244)">1</text><rect x="428.5" y="320.311" width="207" height="82.9509" stroke="#787878" stroke-width="1.3337" stroke-miterlimit="8" fill="#A5A5A5"/><text font-family="DengXian,DengXian_MSFontService,sans-serif" font-weight="400" font-size="16" transform="matrix(1 0 0 0.999409 506.894 430)">无属性<tspan font-family="Calibri,Calibri_MSFontService,sans-serif" font-size="21" x="-422.562" y="-36.0213">i:5</tspan></text><path d="M427.5 170.399 427.5 195.776" stroke="#ED7D31" stroke-width="1.3337" stroke-miterlimit="8" fill="none" fill-rule="evenodd"/><rect x="427.5" y="195.384" width="207" height="82.9509" stroke="#787878" stroke-width="1.3337" stroke-miterlimit="8" fill="#A5A5A5"/><text font-family="Calibri,Calibri_MSFontService,sans-serif" font-weight="400" font-size="25" transform="matrix(1 0 0 0.999409 434.317 192)">0x3344<tspan font-size="24" x="21.1319" y="47.0278">i:0</tspan></text><path d="M463.5 222.368 485.136 238.832" stroke="#ED7D31" stroke-width="3.00083" stroke-miterlimit="8" fill="none" fill-rule="evenodd"/><text font-family="Calibri,Calibri_MSFontService,sans-serif" font-weight="400" font-size="24" transform="matrix(1 0 0 0.999409 496.776 239)">15</text><path d="M496.5 221.369 524.13 241.408" stroke="#ED7D31" stroke-width="3.00083" stroke-miterlimit="8" fill="none" fill-rule="evenodd"/><text font-family="Calibri,Calibri_MSFontService,sans-serif" font-weight="400" font-size="24" transform="matrix(1 0 0 0.999409 539.841 239)">2<tspan font-size="24" x="12.17" y="0">5</tspan></text><path d="M537.5 221.369 565.13 241.408" stroke="#ED7D31" stroke-width="3.00083" stroke-miterlimit="8" fill="none" fill-rule="evenodd"/><text font-family="Calibri,Calibri_MSFontService,sans-serif" font-weight="400" font-size="24" transform="matrix(1 0 0 0.999409 581.259 239)">20<tspan font-size="21" x="-522.273" y="82.0485">v</tspan><tspan font-size="21" x="-512.937" y="82.0485">:</tspan><tspan font-size="21" x="-507.435" y="82.0485">0x3344</tspan><tspan font-size="21" x="-492.862" y="47.0278">i:5</tspan></text><path d="M96.5 272.339 114.403 284.611" stroke="#ED7D31" stroke-width="3.00083" stroke-miterlimit="8" fill="none" fill-rule="evenodd"/><text font-family="Calibri,Calibri_MSFontService,sans-serif" font-weight="400" font-size="21" transform="matrix(1 0 0 0.999409 121.326 285)">0</text><path d="M0.173643-0.28441 275.203 167.631 274.855 168.2-0.173643 0.28441ZM275.974 163.808 280.716 171.388 271.806 170.633Z" transform="matrix(1.00059 0 0 -1 147.5 235.85)"/><text font-family="Calibri,Calibri_MSFontService,sans-serif" font-weight="400" font-size="24" transform="matrix(1 0 0 0.999409 479.568 112)">i:0</text><path d="M487.5 97.4424 509.136 113.906" stroke="#ED7D31" stroke-width="3.00083" stroke-miterlimit="8" fill="none" fill-rule="evenodd"/><text font-family="Calibri,Calibri_MSFontService,sans-serif" font-weight="400" font-size="24" transform="matrix(1 0 0 0.999409 513.982 112)">15</text><path d="M185.748 281.661 191.985 275.263 199 282.094 206.015 275.263 212.252 281.661 205.404 288.329 212.252 294.998 206.015 301.396 199 294.565 191.985 301.396 185.748 294.998 192.596 288.329Z" stroke="#AE5A21" stroke-width="1.3337" stroke-miterlimit="8" fill="#ED7D31" fill-rule="evenodd"/><path d="M0.215837-0.253881 286.041 242.74 285.61 243.248-0.215837 0.253881ZM287.4 239.084 290.903 247.311 282.22 245.177Z" transform="matrix(1.00059 0 0 -1 137.5 313.771)"/></g></svg>