<svg id="SvgjsSvg1126" width="945.737548828125" height="456.7125244140625" xmlns="http://www.w3.org/2000/svg" version="1.1" xmlns:xlink="http://www.w3.org/1999/xlink" xmlns:svgjs="http://svgjs.com/svgjs"><defs id="SvgjsDefs1127"><marker id="SvgjsMarker1166" markerWidth="14" markerHeight="10" refX="10" refY="5" viewBox="0 0 14 10" orient="auto" markerUnits="userSpaceOnUse" stroke-dasharray="0,0"><path id="SvgjsPath1167" d="M0,0 L14,5 L0,10 L0,0" fill="#323232" stroke="#323232" stroke-width="1"></path></marker><marker id="SvgjsMarker1170" markerWidth="14" markerHeight="10" refX="10" refY="5" viewBox="0 0 14 10" orient="auto" markerUnits="userSpaceOnUse" stroke-dasharray="0,0"><path id="SvgjsPath1171" d="M0,0 L14,5 L0,10 L0,0" fill="#323232" stroke="#323232" stroke-width="1"></path></marker><marker id="SvgjsMarker1174" markerWidth="14" markerHeight="10" refX="10" refY="5" viewBox="0 0 14 10" orient="auto" markerUnits="userSpaceOnUse" stroke-dasharray="0,0"><path id="SvgjsPath1175" d="M0,0 L14,5 L0,10 L0,0" fill="#323232" stroke="#323232" stroke-width="1"></path></marker><marker id="SvgjsMarker1178" markerWidth="14" markerHeight="10" refX="10" refY="5" viewBox="0 0 14 10" orient="auto" markerUnits="userSpaceOnUse" stroke-dasharray="0,0"><path id="SvgjsPath1179" d="M0,0 L14,5 L0,10 L0,0" fill="#323232" stroke="#323232" stroke-width="1"></path></marker></defs><g id="SvgjsG1128" transform="translate(25.004145304361998,153.71251678466797)"><path id="SvgjsPath1129" d="M 0 4Q 0 0 4 0L 890 0Q 894 0 894 4L 894 274Q 894 278 890 278L 4 278Q 0 278 0 274Z" stroke="rgba(0,0,0,1)" stroke-width="2" fill-opacity="1" fill="#858585"></path><g id="SvgjsG1130"><text id="SvgjsText1131" font-family="微软雅黑" text-anchor="middle" font-size="13px" width="874px" fill="#323232" font-weight="400" align="middle" lineHeight="125%" anchor="middle" family="微软雅黑" size="13px" weight="400" font-style="" opacity="1" y="128.375" transform="rotate(0)"></text></g></g><g id="SvgjsG1132" transform="translate(59.004145304362,177.71251678466797)"><path id="SvgjsPath1133" d="M 0 4Q 0 0 4 0L 682.971435546875 0Q 686.971435546875 0 686.971435546875 4L 686.971435546875 226Q 686.971435546875 230 682.971435546875 230L 4 230Q 0 230 0 226Z" stroke="rgba(50,50,50,1)" stroke-width="2" fill-opacity="1" fill="#9e9e9e"></path><g id="SvgjsG1134"><text id="SvgjsText1135" font-family="微软雅黑" text-anchor="middle" font-size="22px" width="667px" fill="#323232" font-weight="700" align="middle" lineHeight="125%" anchor="middle" family="微软雅黑" size="22px" weight="700" font-style="" opacity="1" y="95.25" transform="rotate(0)"></text></g></g><g id="SvgjsG1136" transform="translate(89.00414530436194,208.71251678466797)"><path id="SvgjsPath1137" d="M 0 4Q 0 0 4 0L 508 0Q 512 0 512 4L 512 164Q 512 168 508 168L 4 168Q 0 168 0 164Z" stroke="rgba(33,33,33,1)" stroke-width="2" fill-opacity="1" fill="#e0e0e0"></path><g id="SvgjsG1138"><text id="SvgjsText1139" font-family="微软雅黑" text-anchor="middle" font-size="22px" width="492px" fill="#323232" font-weight="700" align="middle" lineHeight="125%" anchor="middle" family="微软雅黑" size="22px" weight="700" font-style="" opacity="1" y="64.25" transform="rotate(0)"></text></g></g><g id="SvgjsG1140" transform="translate(114.00414530436194,235.71250915527344)"><path id="SvgjsPath1141" d="M 0 4Q 0 0 4 0L 338 0Q 342 0 342 4L 342 76Q 342 80 338 80L 4 80Q 0 80 0 76Z" stroke="rgba(0,0,0,1)" stroke-width="2" fill-opacity="1" fill="#f5f5f5"></path><g id="SvgjsG1142"><text id="SvgjsText1143" font-family="微软雅黑" text-anchor="middle" font-size="26px" width="322px" fill="#323232" font-weight="700" align="middle" lineHeight="125%" anchor="middle" family="微软雅黑" size="26px" weight="700" font-style="" opacity="1" y="17.25" transform="rotate(0)"><tspan id="SvgjsTspan1144" dy="32" x="171"><tspan id="SvgjsTspan1145" style="text-decoration:;">private</tspan></tspan></text></g></g><g id="SvgjsG1146" transform="translate(425.97558085123677,283.25537545340416)"><path id="SvgjsPath1147" d="M 0 0L 180 0L 180 32.85714285714286L 0 32.85714285714286Z" stroke="none" fill="none"></path><g id="SvgjsG1148"><text id="SvgjsText1149" font-family="微软雅黑" text-anchor="middle" font-size="26px" width="180px" fill="#323232" font-weight="700" align="middle" lineHeight="125%" anchor="middle" family="微软雅黑" size="26px" weight="700" font-style="" opacity="1" y="-6.321428571428569" transform="rotate(0)"><tspan id="SvgjsTspan1150" dy="32" x="90"><tspan id="SvgjsTspan1151" style="text-decoration:;">缺省</tspan></tspan></text></g></g><g id="SvgjsG1152" transform="translate(587.4041522798086,315.7125091552735)"><path id="SvgjsPath1153" d="M 0 0L 180 0L 180 32.85714285714286L 0 32.85714285714286Z" stroke="none" fill="none"></path><g id="SvgjsG1154"><text id="SvgjsText1155" font-family="微软雅黑" text-anchor="middle" font-size="26px" width="180px" fill="#323232" font-weight="700" align="middle" lineHeight="125%" anchor="middle" family="微软雅黑" size="26px" weight="700" font-style="" opacity="1" y="-6.321428571428569" transform="rotate(0)"><tspan id="SvgjsTspan1156" dy="32" x="90"><tspan id="SvgjsTspan1157" style="text-decoration:;">protected</tspan></tspan></text></g></g><g id="SvgjsG1158" transform="translate(740.7374856131422,362.37917582194007)"><path id="SvgjsPath1159" d="M 0 0L 180 0L 180 32.85714285714286L 0 32.85714285714286Z" stroke="none" fill="none"></path><g id="SvgjsG1160"><text id="SvgjsText1161" font-family="微软雅黑" text-anchor="middle" font-size="27px" width="180px" fill="#323232" font-weight="700" align="middle" lineHeight="125%" anchor="middle" family="微软雅黑" size="27px" weight="700" font-style="" opacity="1" y="-6.946428571428569" transform="rotate(0)"><tspan id="SvgjsTspan1162" dy="33" x="90"><tspan id="SvgjsTspan1163" style="text-decoration:;">public</tspan></tspan></text></g></g><g id="SvgjsG1164"><path id="SvgjsPath1165" d="M272.2374827067058 66.94585164388022L171.004160563151 150.51248168945312" stroke="#323232" stroke-width="2" fill="none" marker-end="url(#SvgjsMarker1166)"></path></g><g id="SvgjsG1168"><path id="SvgjsPath1169" d="M371.4041493733725 66.94585164388022L238.92082722981792 175.5124816894531" stroke="#323232" stroke-width="2" fill="none" marker-end="url(#SvgjsMarker1170)"></path></g><g id="SvgjsG1172"><path id="SvgjsPath1173" d="M468.07081604003906 67.77918497721355L307.8922450015767 206.48914675772352" stroke="#323232" stroke-width="2" fill="none" marker-end="url(#SvgjsMarker1174)"></path></g><g id="SvgjsG1176"><path id="SvgjsPath1177" d="M574.7374827067056 69.44585164388022L390.3570860875269 233.94914788916523" stroke="#323232" stroke-width="2" fill="none" marker-end="url(#SvgjsMarker1178)"></path></g><g id="SvgjsG1180" transform="translate(372.43274943033794,25.001407199435832)"><path id="SvgjsPath1181" d="M 0 0L 228.57139587402395 0L 228.57139587402395 31.142839704241L 0 31.142839704241Z" stroke="none" fill="none"></path><g id="SvgjsG1182"><text id="SvgjsText1183" font-family="微软雅黑" text-anchor="middle" font-size="26px" width="229px" fill="#323232" font-weight="700" align="middle" lineHeight="125%" anchor="middle" family="微软雅黑" size="26px" weight="700" font-style="" opacity="1" y="-7.178580147879501" transform="rotate(0)"><tspan id="SvgjsTspan1184" dy="32" x="114.5"><tspan id="SvgjsTspan1185" style="text-decoration:;">相应的调用者</tspan></tspan></text></g></g></svg>