<svg id="SvgjsSvg1006" width="877" height="324" xmlns="http://www.w3.org/2000/svg" version="1.1" xmlns:xlink="http://www.w3.org/1999/xlink" xmlns:svgjs="http://svgjs.com/svgjs"><defs id="SvgjsDefs1007"><marker id="SvgjsMarker1088" markerWidth="14" markerHeight="12" refX="16" refY="6" viewBox="0 0 14 12" orient="auto" markerUnits="userSpaceOnUse" stroke-dasharray="0,0"><path id="SvgjsPath1089" d="M1,1 L14,6 L1,11L1,1" fill="#ffffff" stroke="#323232" stroke-width="2"></path></marker><marker id="SvgjsMarker1092" markerWidth="14" markerHeight="12" refX="16" refY="6" viewBox="0 0 14 12" orient="auto" markerUnits="userSpaceOnUse" stroke-dasharray="0,0"><path id="SvgjsPath1093" d="M1,1 L14,6 L1,11L1,1" fill="#ffffff" stroke="#323232" stroke-width="2"></path></marker><marker id="SvgjsMarker1096" markerWidth="14" markerHeight="10" refX="10" refY="5" viewBox="0 0 14 10" orient="auto" markerUnits="userSpaceOnUse" stroke-dasharray="0,0"><path id="SvgjsPath1097" d="M0,0 L14,5 L0,10 L0,0" fill="#323232" stroke="#323232" stroke-width="1"></path></marker><marker id="SvgjsMarker1100" markerWidth="14" markerHeight="10" refX="10" refY="5" viewBox="0 0 14 10" orient="auto" markerUnits="userSpaceOnUse" stroke-dasharray="0,0"><path id="SvgjsPath1101" d="M0,0 L14,5 L0,10 L0,0" fill="#323232" stroke="#323232" stroke-width="1"></path></marker></defs><g id="SvgjsG1008" transform="translate(25.012481689453125,25)"><path id="SvgjsPath1009" d="M 0 25L 823 25Q 827 25 827 29L 827 270Q 827 274 823 274L 4 274Q 0 274 0 270Z" stroke="rgba(50,50,50,1)" stroke-width="2" fill-opacity="1" fill="#ffffff"></path><path id="SvgjsPath1010" d="M 0 4Q 0 0 4 0L 574.9 0Q 578.9 0 581.9 3L 628.52 25L 0 25Z" stroke="rgba(50,50,50,1)" stroke-width="2" fill-opacity="1" fill="#ffffff"></path><path id="SvgjsPath1011" d="M 0 0L 578.9 0L 628.52 25L 827 25L 827 274L 0 274Z" stroke="none" fill="none"></path><g id="SvgjsG1012"><text id="SvgjsText1013" font-family="&quot;Times New Roman&quot;" text-anchor="middle" font-size="18px" width="569px" fill="#323232" font-weight="700" align="middle" lineHeight="125%" anchor="middle" family="&quot;Times New Roman&quot;" size="18px" weight="700" font-style="" opacity="1" y="-3.25" transform="rotate(0)"><tspan id="SvgjsTspan1014" dy="22" x="294.5"><tspan id="SvgjsTspan1015" style="text-decoration:;">shipping</tspan></tspan></text></g><g id="SvgjsG1016"><text id="SvgjsText1017" font-family="&quot;Times New Roman&quot;" text-anchor="middle" font-size="18px" width="807px" fill="#323232" font-weight="400" align="middle" lineHeight="125%" anchor="middle" family="&quot;Times New Roman&quot;" size="18px" weight="400" font-style="" opacity="1" y="133.75" transform="rotate(0)"></text></g></g><g id="SvgjsG1018" transform="translate(85.91249084472656,67)"><path id="SvgjsPath1019" d="M 0 25L 123 25Q 127 25 127 29L 127 73Q 127 77 123 77L 4 77Q 0 77 0 73Z" stroke="rgba(50,50,50,1)" stroke-width="2" fill-opacity="1" fill="#ffffff"></path><path id="SvgjsPath1020" d="M 0 4Q 0 0 4 0L 84.89999999999999 0Q 88.89999999999999 0 91.89999999999999 3L 96.52 25L 0 25Z" stroke="rgba(50,50,50,1)" stroke-width="2" fill-opacity="1" fill="#ffffff"></path><path id="SvgjsPath1021" d="M 0 0L 88.89999999999999 0L 96.52 25L 127 25L 127 77L 0 77Z" stroke="none" fill="none"></path><g id="SvgjsG1022"><text id="SvgjsText1023" font-family="&quot;Times New Roman&quot;" text-anchor="middle" font-size="18px" width="79px" fill="#000000" font-weight="400" align="middle" lineHeight="125%" anchor="middle" family="&quot;Times New Roman&quot;" size="18px" weight="400" font-style="" opacity="1" y="-3.25" transform="rotate(0)"></text></g><g id="SvgjsG1024"><text id="SvgjsText1025" font-family="&quot;Times New Roman&quot;" text-anchor="middle" font-size="18px" width="107px" fill="#000000" font-weight="400" align="middle" lineHeight="125%" anchor="middle" family="&quot;Times New Roman&quot;" size="18px" weight="400" font-style="" opacity="1" y="35.25" transform="rotate(0)"><tspan id="SvgjsTspan1026" dy="22" x="63.5"><tspan id="SvgjsTspan1027" style="text-decoration:;">GUI</tspan></tspan></text></g></g><g id="SvgjsG1028" transform="translate(85.91249084472656,184)"><path id="SvgjsPath1029" d="M 0 25L 123 25Q 127 25 127 29L 127 73Q 127 77 123 77L 4 77Q 0 77 0 73Z" stroke="rgba(50,50,50,1)" stroke-width="2" fill-opacity="1" fill="#ffffff"></path><path id="SvgjsPath1030" d="M 0 4Q 0 0 4 0L 84.89999999999999 0Q 88.89999999999999 0 91.89999999999999 3L 96.52 25L 0 25Z" stroke="rgba(50,50,50,1)" stroke-width="2" fill-opacity="1" fill="#ffffff"></path><path id="SvgjsPath1031" d="M 0 0L 88.89999999999999 0L 96.52 25L 127 25L 127 77L 0 77Z" stroke="none" fill="none"></path><g id="SvgjsG1032"><text id="SvgjsText1033" font-family="&quot;Times New Roman&quot;" text-anchor="middle" font-size="18px" width="79px" fill="#000000" font-weight="400" align="middle" lineHeight="125%" anchor="middle" family="&quot;Times New Roman&quot;" size="18px" weight="400" font-style="" opacity="1" y="-3.25" transform="rotate(0)"></text></g><g id="SvgjsG1034"><text id="SvgjsText1035" font-family="&quot;Times New Roman&quot;" text-anchor="middle" font-size="18px" width="107px" fill="#000000" font-weight="400" align="middle" lineHeight="125%" anchor="middle" family="&quot;Times New Roman&quot;" size="18px" weight="400" font-style="" opacity="1" y="35.25" transform="rotate(0)"><tspan id="SvgjsTspan1036" dy="22" x="63.5"><tspan id="SvgjsTspan1037" style="text-decoration:;">reports</tspan></tspan></text></g></g><g id="SvgjsG1038" transform="translate(345.0124816894531,75)"><path id="SvgjsPath1039" d="M 0 25L 445 25Q 449 25 449 29L 449 182Q 449 186 445 186L 4 186Q 0 186 0 182Z" stroke="rgba(50,50,50,1)" stroke-width="2" fill-opacity="1" fill="#ffffff"></path><path id="SvgjsPath1040" d="M 0 4Q 0 0 4 0L 310.29999999999995 0Q 314.29999999999995 0 317.29999999999995 3L 341.24 25L 0 25Z" stroke="rgba(50,50,50,1)" stroke-width="2" fill-opacity="1" fill="#ffffff"></path><path id="SvgjsPath1041" d="M 0 0L 314.29999999999995 0L 341.24 25L 449 25L 449 186L 0 186Z" stroke="none" fill="none"></path><g id="SvgjsG1042"><text id="SvgjsText1043" font-family="&quot;Times New Roman&quot;" text-anchor="middle" font-size="18px" width="305px" fill="#000000" font-weight="700" align="middle" lineHeight="125%" anchor="middle" family="&quot;Times New Roman&quot;" size="18px" weight="700" font-style="" opacity="1" y="-3.25" transform="rotate(0)"><tspan id="SvgjsTspan1044" dy="22" x="162.5"><tspan id="SvgjsTspan1045" style="text-decoration:;">domain</tspan></tspan></text></g><g id="SvgjsG1046"><text id="SvgjsText1047" font-family="&quot;Times New Roman&quot;" text-anchor="middle" font-size="18px" width="429px" fill="#000000" font-weight="400" align="middle" lineHeight="125%" anchor="middle" family="&quot;Times New Roman&quot;" size="18px" weight="400" font-style="" opacity="1" y="89.75" transform="rotate(0)"></text></g></g><g id="SvgjsG1048" transform="translate(370.0124816894531,116.9000015258789)"><path id="SvgjsPath1049" d="M 0 0L 101 0L 101 35L 0 35Z" stroke="rgba(50,50,50,1)" stroke-width="2" fill-opacity="1" fill="#ffffff"></path><g id="SvgjsG1050"><text id="SvgjsText1051" font-family="&quot;Times New Roman&quot;" text-anchor="middle" font-size="15px" width="81px" fill="#323232" font-weight="700" align="middle" lineHeight="125%" anchor="middle" family="&quot;Times New Roman&quot;" size="15px" weight="700" font-style="" opacity="1" y="5.125" transform="rotate(0)"><tspan id="SvgjsTspan1052" dy="18" x="50.5"><tspan id="SvgjsTspan1053" style="text-decoration:;">Company</tspan></tspan></text></g></g><g id="SvgjsG1054" transform="translate(569.0124816894531,116.9000015258789)"><path id="SvgjsPath1055" d="M 0 0L 101 0L 101 35L 0 35Z" stroke="rgba(50,50,50,1)" stroke-width="2" fill-opacity="1" fill="#ffffff"></path><g id="SvgjsG1056"><text id="SvgjsText1057" font-family="&quot;Times New Roman&quot;" text-anchor="middle" font-size="15px" width="81px" fill="#323232" font-weight="700" align="middle" lineHeight="125%" anchor="middle" family="&quot;Times New Roman&quot;" size="15px" weight="700" font-style="" opacity="1" y="5.125" transform="rotate(0)"><tspan id="SvgjsTspan1058" dy="18" x="50.5"><tspan id="SvgjsTspan1059" style="text-decoration:;">Company</tspan></tspan></text></g></g><g id="SvgjsG1060" transform="translate(493.91249084472656,193.9000015258789)"><path id="SvgjsPath1061" d="M 0 0L 101 0L 101 35L 0 35Z" stroke="rgba(50,50,50,1)" stroke-width="2" fill-opacity="1" fill="#ffffff"></path><g id="SvgjsG1062"><text id="SvgjsText1063" font-family="&quot;Times New Roman&quot;" text-anchor="middle" font-size="15px" width="81px" fill="#323232" font-weight="700" align="middle" lineHeight="125%" anchor="middle" family="&quot;Times New Roman&quot;" size="15px" weight="700" font-style="" opacity="1" y="5.125" transform="rotate(0)"><tspan id="SvgjsTspan1064" dy="18" x="50.5"><tspan id="SvgjsTspan1065" style="text-decoration:;">Company</tspan></tspan></text></g></g><g id="SvgjsG1066" transform="translate(653.0124816894531,193.9000015258789)"><path id="SvgjsPath1067" d="M 0 0L 101 0L 101 35L 0 35Z" stroke="rgba(50,50,50,1)" stroke-width="2" fill-opacity="1" fill="#ffffff"></path><g id="SvgjsG1068"><text id="SvgjsText1069" font-family="&quot;Times New Roman&quot;" text-anchor="middle" font-size="15px" width="81px" fill="#323232" font-weight="700" align="middle" lineHeight="125%" anchor="middle" family="&quot;Times New Roman&quot;" size="15px" weight="700" font-style="" opacity="1" y="5.125" transform="rotate(0)"><tspan id="SvgjsTspan1070" dy="18" x="50.5"><tspan id="SvgjsTspan1071" style="text-decoration:;">Company</tspan></tspan></text></g></g><g id="SvgjsG1072"><path id="SvgjsPath1073" d="M472.0124816894531 134.4000015258789L520.0124816894531 134.4000015258789L520.0124816894531 134.4000015258789L568.0124816894531 134.4000015258789" stroke="#323232" stroke-width="2" fill="none"></path></g><g id="SvgjsG1074" transform="translate(459.0124816894531,106.9000015258789)"><path id="SvgjsPath1075" d="M 0 0L 69 0L 69 35L 0 35Z" stroke="none" fill="none"></path><g id="SvgjsG1076"><text id="SvgjsText1077" font-family="&quot;Times New Roman&quot;" text-anchor="middle" font-size="13px" width="69px" fill="#323232" font-weight="700" align="middle" lineHeight="125%" anchor="middle" family="&quot;Times New Roman&quot;" size="13px" weight="700" font-style="" opacity="1" y="6.875" transform="rotate(0)"><tspan id="SvgjsTspan1078" dy="16" x="34.5"><tspan id="SvgjsTspan1079" style="text-decoration:;">owns</tspan></tspan></text></g></g><g id="SvgjsG1080" transform="translate(509.91249084472656,106.9000015258789)"><path id="SvgjsPath1081" d="M 0 0L 69 0L 69 35L 0 35Z" stroke="none" fill="none"></path><g id="SvgjsG1082"><text id="SvgjsText1083" font-family="&quot;Times New Roman&quot;" text-anchor="middle" font-size="13px" width="69px" fill="#323232" font-weight="700" align="middle" lineHeight="125%" anchor="middle" family="&quot;Times New Roman&quot;" size="13px" weight="700" font-style="" opacity="1" y="6.875" transform="rotate(0)"><tspan id="SvgjsTspan1084" dy="16" x="34.5"><tspan id="SvgjsTspan1085" style="text-decoration:;">0..*</tspan></tspan></text></g></g><g id="SvgjsG1086"><path id="SvgjsPath1087" d="M545.285274141268 193.41189363075907L616.3704618219041 153.65718994831033" stroke="#323232" stroke-width="2" fill="none" marker-end="url(#SvgjsMarker1088)"></path></g><g id="SvgjsG1090"><path id="SvgjsPath1091" d="M702.6180544984533 193.45278793037895L622.7324195770528 153.50997046967876" stroke="#323232" stroke-width="2" fill="none" marker-end="url(#SvgjsMarker1092)"></path></g><g id="SvgjsG1094"><path id="SvgjsPath1095" d="M213.8164236443514 105.92767451848621L341.7583236108037 166.46037173344962" stroke-dasharray="8,5" stroke="#323232" stroke-width="2" fill="none" marker-end="url(#SvgjsMarker1096)"></path></g><g id="SvgjsG1098"><path id="SvgjsPath1099" d="M213.83690784996463 222.11861672765224L341.6845804705961 169.37297978045203" stroke-dasharray="8,5" stroke="#323232" stroke-width="2" fill="none" marker-end="url(#SvgjsMarker1100)"></path></g></svg>