<svg width="1206" height="529" xmlns="http://www.w3.org/2000/svg" xmlns:xlink="http://www.w3.org/1999/xlink" overflow="hidden"><defs><clipPath id="clip0"><rect x="0" y="0" width="1206" height="529"/></clipPath></defs><g clip-path="url(#clip0)"><rect x="0" y="0" width="1206" height="528.687" fill="#FFFFFF"/><rect x="207.5" y="6.49612" width="978" height="455.73" stroke="#2F528F" stroke-width="1.3337" stroke-miterlimit="8" fill="#E7E6E6"/><text font-family="Calibri,Calibri_MSFontService,sans-serif" font-weight="400" font-size="21" transform="matrix(1 0 0 0.999409 865.542 37)">Person p1 = new Person();<tspan font-size="21" x="0" y="25.0148">p1.name = "Tom";</tspan><tspan font-size="21" x="0" y="50.0296">p1.isMale = true;</tspan><tspan font-size="21" x="0" y="75.0444">Person p2 = new Person();</tspan><tspan font-size="21" x="0" y="100.059">sysout(p2.name);//null</tspan><tspan font-size="21" x="0" y="125.074">Person p3 = p1;</tspan><tspan font-size="21" x="0" y="150.089">p3.age = 10;</tspan></text><rect x="19.5" y="6.49612" width="159" height="455.73" stroke="#2F528F" stroke-width="1.3337" stroke-miterlimit="8" fill="#E7E6E6"/><text font-family="DengXian,DengXian_MSFontService,sans-serif" font-weight="400" font-size="23" transform="matrix(1 0 0 0.999409 49.6381 489)">栈<tspan font-family="Calibri,Calibri_MSFontService,sans-serif" font-size="23" x="23.5065" y="0">stack</tspan>：<tspan font-size="23" x="0" y="28.0166">局部变量</tspan><tspan font-family="Calibri,Calibri_MSFontService,sans-serif" font-size="21" x="-0.000419617" y="-62.0367">p1:0x1122</tspan></text><path d="M0.152717-0.296173 283.243 145.675 282.938 146.267-0.152717 0.296173ZM283.738 141.806 289.014 149.025 280.073 148.914Z" transform="matrix(1.00059 0 0 -1 139.5 420.364)"/><text font-family="DengXian,DengXian_MSFontService,sans-serif" font-weight="400" font-size="23" transform="matrix(1 0 0 0.999409 874.369 489)">堆<tspan font-family="Calibri,Calibri_MSFontService,sans-serif" font-size="23" x="23.5065" y="0">heap</tspan><tspan font-size="23" x="71.0196" y="0">：</tspan><tspan font-family="Calibri,Calibri_MSFontService,sans-serif" font-size="23" x="0" y="28.0166">new</tspan>出来的结构：对象、数组</text><rect x="428.5" y="272.339" width="207" height="141.916" stroke="#787878" stroke-width="1.3337" stroke-miterlimit="8" fill="#A5A5A5"/><text font-family="Calibri,Calibri_MSFontService,sans-serif" font-weight="400" font-size="25" transform="matrix(1 0 0 0.999409 484.835 321)">name:null<tspan font-size="25" x="23.1064" y="30.0177">age</tspan><tspan font-size="25" x="58.7429" y="30.0177">:0</tspan><tspan font-size="25" x="-9.26257" y="60.0355">isMale:false</tspan></text><path d="M542.5 300.322 590.803 328.527" stroke="#ED7D31" stroke-width="3.00083" stroke-miterlimit="8" fill="none" fill-rule="evenodd"/><text font-family="Calibri,Calibri_MSFontService,sans-serif" font-weight="400" font-size="25" transform="matrix(1 0 0 0.999409 651.984 321)">Tom<tspan font-size="25" x="0" y="29.0172">10</tspan><tspan font-size="25" x="0" y="59.0349">true</tspan></text><path d="M545.5 335.302 574.624 351.765" stroke="#ED7D31" stroke-width="3.00083" stroke-miterlimit="8" fill="none" fill-rule="evenodd"/><path d="M542.5 358.288 590.803 386.493" stroke="#ED7D31" stroke-width="3.00083" stroke-miterlimit="8" fill="none" fill-rule="evenodd"/><path d="M428.5 247.354 428.5 272.731" stroke="#ED7D31" stroke-width="1.3337" stroke-miterlimit="8" fill="none" fill-rule="evenodd"/><text font-family="Calibri,Calibri_MSFontService,sans-serif" font-weight="400" font-size="25" transform="matrix(1 0 0 0.999409 432.066 269)">0x1122</text><rect x="428.5" y="65.4613" width="207" height="141.916" stroke="#787878" stroke-width="1.3337" stroke-miterlimit="8" fill="#A5A5A5"/><text font-family="Calibri,Calibri_MSFontService,sans-serif" font-weight="400" font-size="25" transform="matrix(1 0 0 0.999409 484.834 114)">name:null<tspan font-size="25" x="23.1064" y="30.0177">age</tspan><tspan font-size="25" x="58.7429" y="30.0177">:0</tspan><tspan font-size="25" x="-9.26254" y="60.0355">isMale:false</tspan></text><path d="M428.5 40.4761 428.5 65.853" stroke="#ED7D31" stroke-width="1.3337" stroke-miterlimit="8" fill="none" fill-rule="evenodd"/><text font-family="Calibri,Calibri_MSFontService,sans-serif" font-weight="400" font-size="25" transform="matrix(1 0 0 0.999409 432.066 62)">0xaabb<tspan font-size="21" x="-382.429" y="331.196">p2:0x3344</tspan><tspan font-size="21" x="-382.429" y="293.173">p3:0x1122</tspan></text><path d="M0.247906-0.222674 284.809 316.584 284.313 317.029-0.247906 0.222674ZM286.644 313.141 289.013 321.763 280.694 318.486Z" transform="matrix(1.00059 0 0 -1 139.5 386.225)"/><path d="M0.0821434-0.322945 282.636 71.5467 282.472 72.1926-0.0821434 0.322945ZM282.249 67.6659 289.014 73.5127 280.277 75.4166Z" transform="matrix(1.00059 0 0 -1 139.5 345.852)"/><text font-family="Calibri,Calibri_MSFontService,sans-serif" font-weight="400" font-size="21" transform="matrix(1 0 0 0.999409 865.542 277)">class Person {<tspan font-size="21" x="32.6757" y="25.0148">String name;</tspan><tspan font-size="21" x="32.6757" y="50.0296">int age = 1;</tspan><tspan font-size="21" x="32.6757" y="75.0444">boolean isMale;</tspan><tspan font-size="21" x="0" y="100.059">}</tspan><tspan font-size="25" x="-280.538" y="74.0438">1</tspan><tspan font-size="25" x="-280.274" y="-132.078">1</tspan></text><path d="M542.5 128.424 571.624 144.887" stroke="#ED7D31" stroke-width="3.00083" stroke-miterlimit="8" fill="none" fill-rule="evenodd"/></g></svg>