<svg width="1206" height="529" xmlns="http://www.w3.org/2000/svg" xmlns:xlink="http://www.w3.org/1999/xlink" overflow="hidden"><defs><clipPath id="clip0"><rect x="0" y="0" width="1206" height="529"/></clipPath></defs><g clip-path="url(#clip0)"><rect x="0" y="0" width="1206" height="528.687" fill="#FFFFFF"/><rect x="207.5" y="6.49612" width="978" height="455.73" stroke="#2F528F" stroke-width="1.3337" stroke-miterlimit="8" fill="#E7E6E6"/><text font-family="Calibri,Calibri_MSFontService,sans-serif" font-weight="400" font-size="21" transform="matrix(1 0 0 0.999409 886.798 39)">Student[] stus = new Student[5];<tspan font-size="21" x="0" y="25.0148">stus[0] = new Student();</tspan><tspan font-size="21" x="0" y="50.0296">sysout(stus[0].state);//1</tspan><tspan font-size="21" x="0" y="75.0444">sysout(stus[1]);//null</tspan><tspan font-size="21" x="0" y="99.0586">sysout(stus[1].number);//</tspan><tspan font-family="DengXian,DengXian_MSFontService,sans-serif" font-size="21" x="218.427" y="99.0586">异常</tspan><tspan font-size="21" x="0" y="125.074">stus[1] = new Student();</tspan><tspan font-size="21" x="0" y="150.089">sysout(stus[1].number);//0</tspan></text><rect x="19.5" y="6.49612" width="159" height="455.73" stroke="#2F528F" stroke-width="1.3337" stroke-miterlimit="8" fill="#E7E6E6"/><text font-family="DengXian,DengXian_MSFontService,sans-serif" font-weight="400" font-size="23" transform="matrix(1 0 0 0.999409 49.6381 489)">栈<tspan font-family="Calibri,Calibri_MSFontService,sans-serif" font-size="23" x="23.5065" y="0">stack</tspan>：<tspan font-size="23" x="0" y="28.0166">局部变量</tspan><tspan font-family="Calibri,Calibri_MSFontService,sans-serif" font-size="25" x="-13.1863" y="-59.0349">stus:</tspan><tspan font-family="Calibri,Calibri_MSFontService,sans-serif" font-size="25" x="33.88" y="-59.0349">0x1122</tspan></text><path d="M0.225492-0.245346 163.671 149.974 163.22 150.465-0.225492 0.245346ZM165.17 146.373 168.352 154.729 159.758 152.261Z" transform="matrix(1.00059 0 0 -1 154.5 423.07)"/><text font-family="DengXian,DengXian_MSFontService,sans-serif" font-weight="400" font-size="23" transform="matrix(1 0 0 0.999409 874.369 489)">堆<tspan font-family="Calibri,Calibri_MSFontService,sans-serif" font-size="23" x="23.5065" y="0">heap</tspan><tspan font-size="23" x="71.0196" y="0">：</tspan><tspan font-family="Calibri,Calibri_MSFontService,sans-serif" font-size="23" x="0" y="28.0166">new</tspan>出来的结构：对象、数组</text><path d="M336.5 275.337 384.803 303.542" stroke="#ED7D31" stroke-width="3.00083" stroke-miterlimit="8" fill="none" fill-rule="evenodd"/><text font-family="Calibri,Calibri_MSFontService,sans-serif" font-weight="400" font-size="25" transform="matrix(1 0 0 0.999409 352.902 118)">10<tspan font-size="25" x="0" y="29.0172">true</tspan></text><path d="M320.5 245.355 320.5 270.732" stroke="#ED7D31" stroke-width="1.3337" stroke-miterlimit="8" fill="none" fill-rule="evenodd"/><text font-family="Calibri,Calibri_MSFontService,sans-serif" font-weight="400" font-size="25" transform="matrix(1 0 0 0.999409 322.548 267)">0x1122</text><rect x="606.5" y="110.435" width="207" height="141.916" stroke="#787878" stroke-width="1.3337" stroke-miterlimit="8" fill="#A5A5A5"/><text font-family="Calibri,Calibri_MSFontService,sans-serif" font-weight="400" font-size="25" transform="matrix(1 0 0 0.999409 663.675 159)">number:0<tspan font-size="25" x="15.2109" y="30.0177">stat</tspan><tspan font-size="25" x="52.3078" y="30.0177">e</tspan><tspan font-size="25" x="64.6445" y="30.0177">:</tspan><tspan font-size="25" x="71.313" y="30.0177">0</tspan><tspan font-size="25" x="13.1036" y="60.0355">scor</tspan><tspan font-size="25" x="54.415" y="60.0355">e</tspan><tspan font-size="25" x="66.7518" y="60.0355">:0</tspan></text><path d="M606.5 85.4494 606.5 110.826" stroke="#ED7D31" stroke-width="1.3337" stroke-miterlimit="8" fill="none" fill-rule="evenodd"/><text font-family="Calibri,Calibri_MSFontService,sans-serif" font-weight="400" font-size="25" transform="matrix(1 0 0 0.999409 609.91 107)">0xaabb</text><path d="M319.521 306.676 395.913 306.676" stroke="#000000" stroke-width="1.3337" stroke-linejoin="round" stroke-miterlimit="10" fill="none" fill-rule="evenodd"/><path d="M319.521 345.486 395.913 345.486" stroke="#000000" stroke-width="1.3337" stroke-linejoin="round" stroke-miterlimit="10" fill="none" fill-rule="evenodd"/><path d="M319.521 384.297 395.913 384.297" stroke="#000000" stroke-width="1.3337" stroke-linejoin="round" stroke-miterlimit="10" fill="none" fill-rule="evenodd"/><path d="M319.521 423.108 395.913 423.108" stroke="#000000" stroke-width="1.3337" stroke-linejoin="round" stroke-miterlimit="10" fill="none" fill-rule="evenodd"/><path d="M320.188 269.447 320.188 462.585" stroke="#000000" stroke-width="1.3337" stroke-linejoin="round" stroke-miterlimit="10" fill="none" fill-rule="evenodd"/><path d="M395.246 269.447 395.246 462.585" stroke="#000000" stroke-width="1.3337" stroke-linejoin="round" stroke-miterlimit="10" fill="none" fill-rule="evenodd"/><path d="M319.521 270.113 395.913 270.113" stroke="#000000" stroke-width="1.3337" stroke-linejoin="round" stroke-miterlimit="10" fill="none" fill-rule="evenodd"/><path d="M319.521 461.919 395.913 461.919" stroke="#000000" stroke-width="1.3337" stroke-linejoin="round" stroke-miterlimit="10" fill="none" fill-rule="evenodd"/><path d="M14.5856-10.73C14.7652-10.73 14.9148-10.7244 15.0346-10.7131 15.1543-10.7019 15.2497-10.6795 15.3208-10.6458 15.3919-10.6121 15.4424-10.5747 15.4723-10.5336 15.5022-10.4924 15.5172-10.4419 15.5172-10.382L15.5172-4.50076C15.5172-3.90963 15.5602-3.43636 15.6463-3.08094 15.7323-2.72552 15.8633-2.42248 16.0391-2.17181 16.2149-1.92115 16.4375-1.7266 16.7069-1.58817 16.9763-1.44974 17.2906-1.38053 17.6497-1.38053 18.1136-1.38053 18.5757-1.54515 19.0359-1.87438 19.496-2.20361 19.9843-2.68624 20.5006-3.32225L20.5006-10.382C20.5006-10.4419 20.5137-10.4924 20.5399-10.5336 20.566-10.5747 20.6165-10.6121 20.6914-10.6458 20.7662-10.6795 20.8616-10.7019 20.9776-10.7131 21.0936-10.7244 21.2451-10.73 21.4321-10.73 21.6117-10.73 21.7614-10.7244 21.8811-10.7131 22.0008-10.7019 22.0944-10.6795 22.1617-10.6458 22.229-10.6121 22.2795-10.5747 22.3132-10.5336 22.3469-10.4924 22.3637-10.4419 22.3637-10.382L22.3637-0.280596C22.3637-0.220735 22.3506-0.170228 22.3244-0.129074 22.2982-0.08792 22.2515-0.0523778 22.1841-0.0224476 22.1168 0.00748255 22.0289 0.0299302 21.9204 0.0448953 21.8119 0.0598604 21.6791 0.0673429 21.5219 0.0673429 21.3498 0.0673429 21.2095 0.0598604 21.101 0.0448953 20.9925 0.0299302 20.9065 0.00748255 20.8429-0.0224476 20.7793-0.0523778 20.7363-0.08792 20.7138-0.129074 20.6914-0.170228 20.6801-0.220735 20.6801-0.280596L20.6801-1.61623C20.104-0.980214 19.5353-0.516296 18.9741-0.224476 18.4129 0.0673429 17.8443 0.213253 17.2681 0.213253 16.5947 0.213253 16.0279 0.101015 15.5677-0.123462 15.1075-0.347939 14.7353-0.652853 14.4509-1.0382 14.1666-1.42356 13.9627-1.87251 13.8392-2.38506 13.7158-2.89762 13.654-3.52054 13.654-4.25383L13.654-10.382C13.654-10.4419 13.6671-10.4924 13.6933-10.5336 13.7195-10.5747 13.77-10.6121 13.8448-10.6458 13.9197-10.6795 14.0169-10.7019 14.1367-10.7131 14.2564-10.7244 14.406-10.73 14.5856-10.73ZM6.80164-10.8871C7.47507-10.8871 8.04187-10.773 8.50205-10.5448 8.96223-10.3166 9.33448-10.0117 9.61882-9.63004 9.90316-9.24844 10.1071-8.80135 10.2305-8.2888 10.354-7.77624 10.4157-7.1608 10.4157-6.44248L10.4157-0.280596C10.4157-0.220735 10.4007-0.170228 10.3708-0.129074 10.3409-0.08792 10.2923-0.0523778 10.2249-0.0224476 10.1576 0.00748255 10.064 0.0299302 9.94431 0.0448953 9.82459 0.0598604 9.67494 0.0673429 9.49536 0.0673429 9.30829 0.0673429 9.1549 0.0598604 9.03518 0.0448953 8.91546 0.0299302 8.82193 0.00748255 8.75459-0.0224476 8.68724-0.0523778 8.63861-0.08792 8.60868-0.129074 8.57875-0.170228 8.56378-0.220735 8.56378-0.280596L8.56378-6.19555C8.56378-6.77171 8.51889-7.23563 8.4291-7.58731 8.33931-7.93899 8.20836-8.24203 8.03626-8.49644 7.86416-8.75084 7.64156-8.94539 7.36844-9.08008 7.09533-9.21476 6.77919-9.28211 6.42003-9.28211 5.95611-9.28211 5.49219-9.11749 5.02828-8.78826 4.56436-8.45903 4.07799-7.9764 3.56918-7.34038L3.56918-0.280596C3.56918-0.220735 3.55421-0.170228 3.52428-0.129074 3.49435-0.08792 3.44572-0.0523778 3.37837-0.0224476 3.31103 0.00748255 3.2175 0.0299302 3.09778 0.0448953 2.97806 0.0598604 2.82466 0.0673429 2.6376 0.0673429 2.45802 0.0673429 2.30837 0.0598604 2.18865 0.0448953 2.06893 0.0299302 1.97352 0.00748255 1.90244-0.0224476 1.83136-0.0523778 1.78272-0.08792 1.75653-0.129074 1.73034-0.170228 1.71725-0.220735 1.71725-0.280596L1.71725-10.382C1.71725-10.4419 1.72847-10.4924 1.75092-10.5336 1.77337-10.5747 1.81826-10.6121 1.8856-10.6458 1.95295-10.6795 2.039-10.7019 2.14375-10.7131 2.24851-10.7244 2.38693-10.73 2.55903-10.73 2.72365-10.73 2.86021-10.7244 2.9687-10.7131 3.0772-10.7019 3.16138-10.6795 3.22124-10.6458 3.2811-10.6121 3.32412-10.5747 3.35031-10.5336 3.3765-10.4924 3.3896-10.4419 3.3896-10.382L3.3896-9.04641C3.95827-9.68242 4.52507-10.1482 5.09001-10.4438 5.65494-10.7393 6.22548-10.8871 6.80164-10.8871ZM31.6205-15.6348C31.8075-15.6348 31.9609-15.6273 32.0806-15.6123 32.2004-15.5974 32.2939-15.5749 32.3612-15.545 32.4286-15.5151 32.4772-15.4777 32.5071-15.4328 32.5371-15.3879 32.552-15.3355 32.552-15.2756L32.552-0.280596C32.552-0.220735 32.5371-0.170228 32.5071-0.129074 32.4772-0.08792 32.4286-0.0523778 32.3612-0.0224476 32.2939 0.00748255 32.2004 0.0299302 32.0806 0.0448953 31.9609 0.0598604 31.8075 0.0673429 31.6205 0.0673429 31.4409 0.0673429 31.2912 0.0598604 31.1715 0.0448953 31.0518 0.0299302 30.9564 0.00748255 30.8853-0.0224476 30.8142-0.0523778 30.7656-0.08792 30.7394-0.129074 30.7132-0.170228 30.7001-0.220735 30.7001-0.280596L30.7001-15.2756C30.7001-15.3355 30.7132-15.3879 30.7394-15.4328 30.7656-15.4777 30.8142-15.5151 30.8853-15.545 30.9564-15.5749 31.0518-15.5974 31.1715-15.6123 31.2912-15.6273 31.4409-15.6348 31.6205-15.6348ZM26.6234-15.6348C26.8105-15.6348 26.9639-15.6273 27.0836-15.6123 27.2033-15.5974 27.2968-15.5749 27.3642-15.545 27.4315-15.5151 27.4802-15.4777 27.5101-15.4328 27.54-15.3879 27.555-15.3355 27.555-15.2756L27.555-0.280596C27.555-0.220735 27.54-0.170228 27.5101-0.129074 27.4802-0.08792 27.4315-0.0523778 27.3642-0.0224476 27.2968 0.00748255 27.2033 0.0299302 27.0836 0.0448953 26.9639 0.0598604 26.8105 0.0673429 26.6234 0.0673429 26.4438 0.0673429 26.2942 0.0598604 26.1745 0.0448953 26.0547 0.0299302 25.9593 0.00748255 25.8882-0.0224476 25.8172-0.0523778 25.7685-0.08792 25.7423-0.129074 25.7162-0.170228 25.7031-0.220735 25.7031-0.280596L25.7031-15.2756C25.7031-15.3355 25.7162-15.3879 25.7423-15.4328 25.7685-15.4777 25.8172-15.5151 25.8882-15.545 25.9593-15.5749 26.0547-15.5974 26.1745-15.6123 26.2942-15.6273 26.4438-15.6348 26.6234-15.6348Z" stroke="#000000" stroke-width="0.999409" stroke-linejoin="round" stroke-miterlimit="10" fill-rule="evenodd" transform="matrix(1.00059 0 0 1 340.712 295.617)"/><text fill="#000000" fill-opacity="0" font-family="Arial,Arial_MSFontService,sans-serif" font-size="15.848" x="1.71725" y="-1.76775">null</text><path d="M14.7959-10.9857 16.2833-10.9857 16.2833-3.99373C16.2833-2.60393 16.5215-1.60062 16.9978-0.983793 17.474-0.366971 18.2158-0.0585591 19.223-0.0585591 20.3239-0.0585591 21.1925-0.454809 21.8289-1.24731 22.4652-2.03981 22.7834-3.10754 22.7834-4.45049L22.7834-10.9857 24.2825-10.9857 24.2825-1.72164C24.2825-1.27659 24.2923-0.833491 24.3118-0.392346 24.3313 0.0487993 24.3489 0.491897 24.3645 0.936946L23.0176 0.936946 22.8771-1.32344 22.8302-1.32344C22.4164-0.472377 21.8913 0.156158 21.255 0.562167 20.6187 0.968177 19.8086 1.17118 18.8248 1.17118 17.4584 1.17118 16.4453 0.780788 15.7856 0 15.1258-0.780788 14.7959-1.99101 14.7959-3.63066ZM7.36674-11.2199C8.73311-11.2199 9.74619-10.8276 10.406-10.0429 11.0657-9.25819 11.3956-8.04602 11.3956-6.40637L11.3956 0.936946 9.9082 0.936946 9.9082-6.0433C9.9082-7.42529 9.67006-8.42861 9.19378-9.05324 8.7175-9.67787 7.97575-9.99018 6.96853-9.99018 5.88324-9.99018 5.02047-9.59393 4.38022-8.80143 3.73998-8.00893 3.41985-6.9373 3.41985-5.58654L3.41985 0.936946 1.93245 0.936946 1.93245-8.3271C1.93245-8.77215 1.92269-9.21525 1.90317-9.6564 1.88365-10.0975 1.86608-10.5406 1.85047-10.9857L3.18562-10.9857 3.32616-8.71359 3.373-8.71359C3.78682-9.56465 4.30995-10.1951 4.94239-10.6051 5.57483-11.015 6.38294-11.2199 7.36674-11.2199ZM33.9135-16.092 35.4009-16.092 35.4009 0.936946 33.9135 0.936946ZM27.9171-16.092 29.4045-16.092 29.4045 0.936946 27.9171 0.936946Z" stroke="#000000" stroke-width="0.999409" stroke-linejoin="round" stroke-miterlimit="10" fill-rule="evenodd" transform="matrix(1.00059 0 0 1 339.212 333.157)"/><text fill="#000000" fill-opacity="0" font-family="Arial,Arial_MSFontService,sans-serif" font-size="17.2632" x="1.85047" y="-0.986721">null</text><path d="M14.7959-10.9857 16.2833-10.9857 16.2833-3.99373C16.2833-2.60393 16.5215-1.60062 16.9978-0.983793 17.474-0.366971 18.2158-0.0585591 19.223-0.0585591 20.3239-0.0585591 21.1925-0.454809 21.8289-1.24731 22.4652-2.03981 22.7834-3.10754 22.7834-4.45049L22.7834-10.9857 24.2825-10.9857 24.2825-1.72164C24.2825-1.27659 24.2923-0.833491 24.3118-0.392346 24.3313 0.0487993 24.3489 0.491897 24.3645 0.936946L23.0176 0.936946 22.8771-1.32344 22.8302-1.32344C22.4164-0.472377 21.8913 0.156158 21.255 0.562167 20.6187 0.968177 19.8086 1.17118 18.8248 1.17118 17.4584 1.17118 16.4453 0.780788 15.7856 0 15.1258-0.780788 14.7959-1.99101 14.7959-3.63066ZM7.36674-11.2199C8.73311-11.2199 9.74619-10.8276 10.406-10.0429 11.0657-9.25819 11.3956-8.04602 11.3956-6.40637L11.3956 0.936946 9.9082 0.936946 9.9082-6.0433C9.9082-7.42529 9.67006-8.42861 9.19378-9.05324 8.7175-9.67787 7.97575-9.99018 6.96853-9.99018 5.88324-9.99018 5.02047-9.59393 4.38022-8.80143 3.73998-8.00893 3.41985-6.9373 3.41985-5.58654L3.41985 0.936946 1.93245 0.936946 1.93245-8.3271C1.93245-8.77215 1.92269-9.21525 1.90317-9.6564 1.88365-10.0975 1.86608-10.5406 1.85047-10.9857L3.18562-10.9857 3.32616-8.71359 3.373-8.71359C3.78682-9.56465 4.30995-10.1951 4.94239-10.6051 5.57483-11.015 6.38294-11.2199 7.36674-11.2199ZM33.9135-16.092 35.4009-16.092 35.4009 0.936946 33.9135 0.936946ZM27.9171-16.092 29.4045-16.092 29.4045 0.936946 27.9171 0.936946Z" stroke="#000000" stroke-width="0.999409" stroke-linejoin="round" stroke-miterlimit="10" fill-rule="evenodd" transform="matrix(1.00059 0 0 1 339.212 371.945)"/><text fill="#000000" fill-opacity="0" font-family="Arial,Arial_MSFontService,sans-serif" font-size="17.2632" x="1.85047" y="-0.986721">null</text><path d="M14.7959-10.9857 16.2833-10.9857 16.2833-3.99373C16.2833-2.60393 16.5215-1.60062 16.9978-0.983793 17.474-0.366971 18.2158-0.0585591 19.223-0.0585591 20.3239-0.0585591 21.1925-0.454809 21.8289-1.24731 22.4652-2.03981 22.7834-3.10754 22.7834-4.45049L22.7834-10.9857 24.2825-10.9857 24.2825-1.72164C24.2825-1.27659 24.2923-0.833491 24.3118-0.392346 24.3313 0.0487993 24.3489 0.491897 24.3645 0.936946L23.0176 0.936946 22.8771-1.32344 22.8302-1.32344C22.4164-0.472377 21.8913 0.156158 21.255 0.562167 20.6187 0.968177 19.8086 1.17118 18.8248 1.17118 17.4584 1.17118 16.4453 0.780788 15.7856 0 15.1258-0.780788 14.7959-1.99101 14.7959-3.63066ZM7.36674-11.2199C8.73311-11.2199 9.74619-10.8276 10.406-10.0429 11.0657-9.25819 11.3956-8.04602 11.3956-6.40637L11.3956 0.936946 9.9082 0.936946 9.9082-6.0433C9.9082-7.42529 9.67006-8.42861 9.19378-9.05324 8.7175-9.67787 7.97575-9.99018 6.96853-9.99018 5.88324-9.99018 5.02047-9.59393 4.38022-8.80143 3.73998-8.00893 3.41985-6.9373 3.41985-5.58654L3.41985 0.936946 1.93245 0.936946 1.93245-8.3271C1.93245-8.77215 1.92269-9.21525 1.90317-9.6564 1.88365-10.0975 1.86608-10.5406 1.85047-10.9857L3.18562-10.9857 3.32616-8.71359 3.373-8.71359C3.78682-9.56465 4.30995-10.1951 4.94239-10.6051 5.57483-11.015 6.38294-11.2199 7.36674-11.2199ZM33.9135-16.092 35.4009-16.092 35.4009 0.936946 33.9135 0.936946ZM27.9171-16.092 29.4045-16.092 29.4045 0.936946 27.9171 0.936946Z" stroke="#000000" stroke-width="0.999409" stroke-linejoin="round" stroke-miterlimit="10" fill-rule="evenodd" transform="matrix(1.00059 0 0 1 339.212 410.733)"/><text fill="#000000" fill-opacity="0" font-family="Arial,Arial_MSFontService,sans-serif" font-size="17.2632" x="1.85047" y="-0.986721">null</text><path d="M14.7959-10.9857 16.2833-10.9857 16.2833-3.99373C16.2833-2.60393 16.5215-1.60062 16.9978-0.983793 17.474-0.366971 18.2158-0.0585591 19.223-0.0585591 20.3239-0.0585591 21.1925-0.454809 21.8289-1.24731 22.4652-2.03981 22.7834-3.10754 22.7834-4.45049L22.7834-10.9857 24.2825-10.9857 24.2825-1.72164C24.2825-1.27659 24.2923-0.833491 24.3118-0.392346 24.3313 0.0487993 24.3489 0.491897 24.3645 0.936946L23.0176 0.936946 22.8771-1.32344 22.8302-1.32344C22.4164-0.472377 21.8913 0.156158 21.255 0.562167 20.6187 0.968177 19.8086 1.17118 18.8248 1.17118 17.4584 1.17118 16.4453 0.780788 15.7856 0 15.1258-0.780788 14.7959-1.99101 14.7959-3.63066ZM7.36674-11.2199C8.73311-11.2199 9.74619-10.8276 10.406-10.0429 11.0657-9.25819 11.3956-8.04602 11.3956-6.40637L11.3956 0.936946 9.9082 0.936946 9.9082-6.0433C9.9082-7.42529 9.67006-8.42861 9.19378-9.05324 8.7175-9.67787 7.97575-9.99018 6.96853-9.99018 5.88324-9.99018 5.02047-9.59393 4.38022-8.80143 3.73998-8.00893 3.41985-6.9373 3.41985-5.58654L3.41985 0.936946 1.93245 0.936946 1.93245-8.3271C1.93245-8.77215 1.92269-9.21525 1.90317-9.6564 1.88365-10.0975 1.86608-10.5406 1.85047-10.9857L3.18562-10.9857 3.32616-8.71359 3.373-8.71359C3.78682-9.56465 4.30995-10.1951 4.94239-10.6051 5.57483-11.015 6.38294-11.2199 7.36674-11.2199ZM33.9135-16.092 35.4009-16.092 35.4009 0.936946 33.9135 0.936946ZM27.9171-16.092 29.4045-16.092 29.4045 0.936946 27.9171 0.936946Z" stroke="#000000" stroke-width="0.999409" stroke-linejoin="round" stroke-miterlimit="10" fill-rule="evenodd" transform="matrix(1.00059 0 0 1 339.212 449.521)"/><text fill="#000000" fill-opacity="0" font-family="Arial,Arial_MSFontService,sans-serif" font-size="17.2632" x="1.85047" y="-0.986721">null</text><rect x="606.5" y="320.311" width="207" height="141.916" stroke="#787878" stroke-width="1.3337" stroke-miterlimit="8" fill="#A5A5A5"/><text font-family="Calibri,Calibri_MSFontService,sans-serif" font-weight="400" font-size="25" transform="matrix(1 0 0 0.999409 663.675 369)">number:0<tspan font-size="25" x="15.2109" y="30.0177">state:0</tspan><tspan font-size="25" x="13.1036" y="60.0355">score:0</tspan></text><path d="M606.5 294.326 606.5 319.703" stroke="#ED7D31" stroke-width="1.3337" stroke-miterlimit="8" fill="none" fill-rule="evenodd"/><text font-family="Calibri,Calibri_MSFontService,sans-serif" font-weight="400" font-size="25" transform="matrix(1 0 0 0.999409 609.91 316)">0xccdd</text><path d="M334.5 312.315 382.803 340.52" stroke="#ED7D31" stroke-width="3.00083" stroke-miterlimit="8" fill="none" fill-rule="evenodd"/><text font-family="Calibri,Calibri_MSFontService,sans-serif" font-weight="400" font-size="25" transform="matrix(1 0 0 0.999409 404.786 295)">0xaabb<tspan font-size="25" x="-0.31842" y="38.0225">0xccdd</tspan></text><path d="M0.267776-0.198336 125.642 169.07 125.106 169.467-0.267776 0.198336ZM127.794 165.818 129.341 174.624 121.368 170.578Z" transform="matrix(1.00059 0 0 -1 477.5 285.059)"/><path d="M0.0154355-0.332871 127.052 5.55794 127.021 6.22368-0.0154355 0.332871ZM125.891 1.83462 133.694 6.19952 125.52 9.82351Z" transform="matrix(1.00059 0 0 -1 472.5 326.51)"/><text font-family="Calibri,Calibri_MSFontService,sans-serif" font-weight="400" font-size="21" transform="matrix(1 0 0 0.999409 885.746 279)">class Student{<tspan font-size="21" x="32.6757" y="24.0142">int number;//</tspan><tspan font-family="DengXian,DengXian_MSFontService,sans-serif" font-size="21" x="148.848" y="24.0142">学号</tspan><tspan font-size="21" x="32.6757" y="49.029">int state = 1;//</tspan><tspan font-family="DengXian,DengXian_MSFontService,sans-serif" font-size="21" x="153.276" y="49.029">年级</tspan><tspan font-size="21" x="32.6757" y="74.0438">int score;//</tspan><tspan font-family="DengXian,DengXian_MSFontService,sans-serif" font-size="21" x="126.728" y="74.0438">成绩</tspan><tspan font-size="21" x="0" y="100.059">}</tspan></text><path d="M725.5 169.4 759.018 193.157" stroke="#ED7D31" stroke-width="3.00083" stroke-miterlimit="8" fill="none" fill-rule="evenodd"/><path d="M725.5 380.275 759.018 404.032" stroke="#ED7D31" stroke-width="3.00083" stroke-miterlimit="8" fill="none" fill-rule="evenodd"/><text font-family="Calibri,Calibri_MSFontService,sans-serif" font-weight="400" font-size="25" transform="matrix(1 0 0 0.999409 778.946 189)">1<tspan font-size="25" x="0" y="210.124">1</tspan></text></g></svg>